<?xml version="1.0" encoding="UTF-8" standalone="no"?>
<!-- Created with Inkscape (http://www.inkscape.org/) -->

<svg
   xmlns:ns0="http://www.iki.fi/pav/software/textext/"
   xmlns:dc="http://purl.org/dc/elements/1.1/"
   xmlns:cc="http://creativecommons.org/ns#"
   xmlns:rdf="http://www.w3.org/1999/02/22-rdf-syntax-ns#"
   xmlns:svg="http://www.w3.org/2000/svg"
   xmlns="http://www.w3.org/2000/svg"
   xmlns:xlink="http://www.w3.org/1999/xlink"
   xmlns:sodipodi="http://sodipodi.sourceforge.net/DTD/sodipodi-0.dtd"
   xmlns:inkscape="http://www.inkscape.org/namespaces/inkscape"
   width="176.96886mm"
   height="62.442081mm"
   viewBox="0 0 176.96886 62.442081"
   version="1.1"
   id="svg8"
   inkscape:version="0.92.2 (5c3e80d, 2017-08-06)"
   sodipodi:docname="drawing_h_f1.svg">
  <sodipodi:namedview
     id="base"
     pagecolor="#ffffff"
     bordercolor="#666666"
     borderopacity="1.0"
     inkscape:pageopacity="0.0"
     inkscape:pageshadow="2"
     inkscape:zoom="1.4"
     inkscape:cx="347.14045"
     inkscape:cy="104.36165"
     inkscape:document-units="mm"
     inkscape:current-layer="layer1"
     showgrid="false"
     inkscape:window-width="1920"
     inkscape:window-height="1026"
     inkscape:window-x="0"
     inkscape:window-y="0"
     inkscape:window-maximized="1"
     inkscape:lockguides="true"
     fit-margin-top="0"
     fit-margin-left="0"
     fit-margin-right="0"
     fit-margin-bottom="0" />
  <defs
     id="defs2">
    <marker
       inkscape:stockid="Arrow1Send"
       orient="auto"
       refY="0"
       refX="0"
       id="marker3623"
       style="overflow:visible"
       inkscape:isstock="true">
      <path
         id="path3621"
         d="M 0,0 5,-5 -12.5,0 5,5 Z"
         style="fill:#000000;fill-opacity:1;fill-rule:evenodd;stroke:#000000;stroke-width:1.00000003pt;stroke-opacity:1"
         transform="matrix(-0.2,0,0,-0.2,-1.2,0)"
         inkscape:connector-curvature="0" />
    </marker>
    <marker
       inkscape:stockid="Arrow1Send"
       orient="auto"
       refY="0"
       refX="0"
       id="marker2776"
       style="overflow:visible"
       inkscape:isstock="true">
      <path
         id="path2774"
         d="M 0,0 5,-5 -12.5,0 5,5 Z"
         style="fill:#000000;fill-opacity:1;fill-rule:evenodd;stroke:#000000;stroke-width:1.00000003pt;stroke-opacity:1"
         transform="matrix(-0.2,0,0,-0.2,-1.2,0)"
         inkscape:connector-curvature="0" />
    </marker>
    <marker
       inkscape:stockid="Arrow1Sstart"
       orient="auto"
       refY="0"
       refX="0"
       id="marker2766"
       style="overflow:visible"
       inkscape:isstock="true">
      <path
         id="path2764"
         d="M 0,0 5,-5 -12.5,0 5,5 Z"
         style="fill:#000000;fill-opacity:1;fill-rule:evenodd;stroke:#000000;stroke-width:1.00000003pt;stroke-opacity:1"
         transform="matrix(0.2,0,0,0.2,1.2,0)"
         inkscape:connector-curvature="0" />
    </marker>
    <marker
       inkscape:stockid="Arrow1Send"
       orient="auto"
       refY="0"
       refX="0"
       id="marker2634"
       style="overflow:visible"
       inkscape:isstock="true">
      <path
         id="path2632"
         d="M 0,0 5,-5 -12.5,0 5,5 Z"
         style="fill:#000000;fill-opacity:1;fill-rule:evenodd;stroke:#000000;stroke-width:1.00000003pt;stroke-opacity:1"
         transform="matrix(-0.2,0,0,-0.2,-1.2,0)"
         inkscape:connector-curvature="0" />
    </marker>
    <marker
       inkscape:stockid="Arrow1Sstart"
       orient="auto"
       refY="0"
       refX="0"
       id="marker2624"
       style="overflow:visible"
       inkscape:isstock="true">
      <path
         id="path2622"
         d="M 0,0 5,-5 -12.5,0 5,5 Z"
         style="fill:#000000;fill-opacity:1;fill-rule:evenodd;stroke:#000000;stroke-width:1.00000003pt;stroke-opacity:1"
         transform="matrix(0.2,0,0,0.2,1.2,0)"
         inkscape:connector-curvature="0" />
    </marker>
    <marker
       inkscape:isstock="true"
       style="overflow:visible"
       id="marker2484"
       refX="0"
       refY="0"
       orient="auto"
       inkscape:stockid="Arrow1Send"
       inkscape:collect="always">
      <path
         transform="matrix(-0.2,0,0,-0.2,-1.2,0)"
         style="fill:#000000;fill-opacity:1;fill-rule:evenodd;stroke:#000000;stroke-width:1.00000003pt;stroke-opacity:1"
         d="M 0,0 5,-5 -12.5,0 5,5 Z"
         id="path2482"
         inkscape:connector-curvature="0" />
    </marker>
    <marker
       inkscape:collect="always"
       inkscape:isstock="true"
       style="overflow:visible"
       id="marker2456"
       refX="0"
       refY="0"
       orient="auto"
       inkscape:stockid="Arrow1Sstart">
      <path
         transform="matrix(0.2,0,0,0.2,1.2,0)"
         style="fill:#000000;fill-opacity:1;fill-rule:evenodd;stroke:#000000;stroke-width:1.00000003pt;stroke-opacity:1"
         d="M 0,0 5,-5 -12.5,0 5,5 Z"
         id="path2454"
         inkscape:connector-curvature="0" />
    </marker>
    <marker
       inkscape:stockid="Arrow1Send"
       orient="auto"
       refY="0"
       refX="0"
       id="Arrow1Send"
       style="overflow:visible"
       inkscape:isstock="true">
      <path
         id="path930"
         d="M 0,0 5,-5 -12.5,0 5,5 Z"
         style="fill:#000000;fill-opacity:1;fill-rule:evenodd;stroke:#000000;stroke-width:1.00000003pt;stroke-opacity:1"
         transform="matrix(-0.2,0,0,-0.2,-1.2,0)"
         inkscape:connector-curvature="0" />
    </marker>
    <marker
       inkscape:stockid="Arrow1Sstart"
       orient="auto"
       refY="0"
       refX="0"
       id="Arrow1Sstart"
       style="overflow:visible"
       inkscape:isstock="true">
      <path
         id="path927"
         d="M 0,0 5,-5 -12.5,0 5,5 Z"
         style="fill:#000000;fill-opacity:1;fill-rule:evenodd;stroke:#000000;stroke-width:1.00000003pt;stroke-opacity:1"
         transform="matrix(0.2,0,0,0.2,1.2,0)"
         inkscape:connector-curvature="0" />
    </marker>
  </defs>
  <metadata
     id="metadata5">
    <rdf:RDF>
      <cc:Work
         rdf:about="">
        <dc:format>image/svg+xml</dc:format>
        <dc:type
           rdf:resource="http://purl.org/dc/dcmitype/StillImage" />
        <dc:title></dc:title>
      </cc:Work>
    </rdf:RDF>
  </metadata>
  <g
     id="layer1"
     inkscape:groupmode="layer"
     inkscape:label="Layer 1"
     transform="translate(-5.5371429,-9.0386226)">
    <path
       inkscape:connector-curvature="0"
       id="path815"
       d="M 15.768902,15.297918 V 62.070085 H 92.207987"
       style="fill:none;stroke:#000000;stroke-width:0.26458332px;stroke-linecap:butt;stroke-linejoin:miter;stroke-opacity:1;marker-start:url(#marker2456);marker-end:url(#marker2484)" />
    <path
       inkscape:connector-curvature="0"
       id="path817"
       d="m 15.763968,61.142855 v 1.889882"
       style="fill:none;stroke:#000000;stroke-width:0.26458332px;stroke-linecap:butt;stroke-linejoin:miter;stroke-opacity:1" />
    <path
       style="fill:none;stroke:#000000;stroke-width:0.26458332px;stroke-linecap:butt;stroke-linejoin:miter;stroke-opacity:1"
       d="m 83.72173,61.142855 v 1.889882"
       id="path819"
       inkscape:connector-curvature="0" />
    <text
       id="text823"
       y="65.695534"
       x="14.959885"
       style="font-style:normal;font-weight:normal;font-size:2.7124486px;line-height:1.25;font-family:sans-serif;letter-spacing:0px;word-spacing:0px;fill:#000000;fill-opacity:1;stroke:none;stroke-width:0.06781121"
       xml:space="preserve"><tspan
         style="stroke-width:0.06781121"
         y="65.695534"
         x="14.959885"
         id="tspan821"
         sodipodi:role="line">0</tspan></text>
    <text
       xml:space="preserve"
       style="font-style:normal;font-weight:normal;font-size:2.7124486px;line-height:1.25;font-family:sans-serif;letter-spacing:0px;word-spacing:0px;fill:#000000;fill-opacity:1;stroke:none;stroke-width:0.06781121"
       x="82.917641"
       y="65.695534"
       id="text827"><tspan
         sodipodi:role="line"
         id="tspan825"
         x="82.917641"
         y="65.695534"
         style="stroke-width:0.06781121">1</tspan></text>
    <text
       xml:space="preserve"
       style="font-style:normal;font-weight:normal;font-size:2.7124486px;line-height:1.25;font-family:sans-serif;letter-spacing:0px;word-spacing:0px;fill:#000000;fill-opacity:1;stroke:none;stroke-width:0.06781121"
       x="13.464516"
       y="63.049702"
       id="text833"><tspan
         sodipodi:role="line"
         id="tspan831"
         x="13.464516"
         y="63.049702"
         style="stroke-width:0.06781121">0</tspan></text>
    <path
       inkscape:connector-curvature="0"
       id="path835"
       d="M 15.686012,47.913689 H 83.910714"
       style="fill:none;stroke:#000000;stroke-width:0.26499999;stroke-linecap:butt;stroke-linejoin:miter;stroke-miterlimit:4;stroke-dasharray:0.265, 0.53;stroke-dashoffset:0;stroke-opacity:1" />
    <g
       id="g875"
       ns0:preamble="/home/ajaramillo/Dropbox/preamble.ini"
       ns0:text="$h_0$"
       transform="matrix(0.35472256,0,0,0.35472256,-67.461727,0.55175894)">
      <defs
         id="defs864">
        <g
           id="g862">
          <symbol
             id="textext-951594a2-0"
             overflow="visible"
             style="overflow:visible">
            <path
               id="path850"
               d=""
               style="stroke:none"
               inkscape:connector-curvature="0" />
          </symbol>
          <symbol
             id="textext-951594a2-1"
             overflow="visible"
             style="overflow:visible">
            <path
               id="path853"
               d="m 2.859375,-6.8125 c 0,0 0,-0.109375 -0.125,-0.109375 -0.234375,0 -0.953125,0.078125 -1.21875,0.109375 -0.078125,0 -0.1875,0.015625 -0.1875,0.1875 0,0.125 0.09375,0.125 0.234375,0.125 0.484375,0 0.5,0.0625 0.5,0.171875 L 2.03125,-6.125 0.59375,-0.390625 c -0.046875,0.140625 -0.046875,0.15625 -0.046875,0.21875 0,0.234375 0.203125,0.28125 0.296875,0.28125 0.15625,0 0.3125,-0.125 0.359375,-0.265625 l 0.1875,-0.75 0.21875,-0.890625 C 1.671875,-2.03125 1.734375,-2.25 1.78125,-2.46875 1.796875,-2.53125 1.890625,-2.859375 1.890625,-2.921875 1.921875,-3.015625 2.234375,-3.5625 2.578125,-3.84375 2.796875,-4 3.09375,-4.1875 3.53125,-4.1875 c 0.421875,0 0.53125,0.34375 0.53125,0.703125 0,0.53125 -0.375,1.625 -0.609375,2.234375 C 3.375,-1.03125 3.3125,-0.90625 3.3125,-0.703125 c 0,0.46875 0.359375,0.8125 0.828125,0.8125 0.9375,0 1.296875,-1.453125 1.296875,-1.53125 0,-0.109375 -0.078125,-0.109375 -0.109375,-0.109375 -0.109375,0 -0.109375,0.03125 -0.15625,0.1875 -0.140625,0.53125 -0.46875,1.234375 -1.015625,1.234375 -0.171875,0 -0.234375,-0.09375 -0.234375,-0.328125 0,-0.25 0.078125,-0.484375 0.171875,-0.703125 0.15625,-0.4375 0.609375,-1.625 0.609375,-2.203125 0,-0.640625 -0.390625,-1.0625 -1.140625,-1.0625 -0.625,0 -1.109375,0.3125 -1.484375,0.765625 z m 0,0"
               style="stroke:none"
               inkscape:connector-curvature="0" />
          </symbol>
          <symbol
             id="textext-951594a2-2"
             overflow="visible"
             style="overflow:visible">
            <path
               id="path856"
               d=""
               style="stroke:none"
               inkscape:connector-curvature="0" />
          </symbol>
          <symbol
             id="textext-951594a2-3"
             overflow="visible"
             style="overflow:visible">
            <path
               id="path859"
               d="M 3.59375,-2.21875 C 3.59375,-2.984375 3.5,-3.546875 3.1875,-4.03125 2.96875,-4.34375 2.53125,-4.625 1.984375,-4.625 c -1.625,0 -1.625,1.90625 -1.625,2.40625 0,0.5 0,2.359375 1.625,2.359375 1.609375,0 1.609375,-1.859375 1.609375,-2.359375 z M 1.984375,-0.0625 c -0.328125,0 -0.75,-0.1875 -0.890625,-0.75 C 1,-1.21875 1,-1.796875 1,-2.3125 1,-2.828125 1,-3.359375 1.09375,-3.734375 1.25,-4.28125 1.6875,-4.4375 1.984375,-4.4375 c 0.375,0 0.734375,0.234375 0.859375,0.640625 0.109375,0.375 0.125,0.875 0.125,1.484375 0,0.515625 0,1.03125 -0.09375,1.46875 -0.140625,0.640625 -0.609375,0.78125 -0.890625,0.78125 z m 0,0"
               style="stroke:none"
               inkscape:connector-curvature="0" />
          </symbol>
        </g>
      </defs>
      <g
         id="textext-951594a2-4">
        <g
           id="g868"
           style="fill:#000000;fill-opacity:1">
          <use
             id="use866"
             y="134.765"
             x="223.43201"
             xlink:href="#textext-951594a2-1"
             width="100%"
             height="100%" />
        </g>
        <g
           id="g872"
           style="fill:#000000;fill-opacity:1">
          <use
             id="use870"
             y="136.259"
             x="229.172"
             xlink:href="#textext-951594a2-3"
             width="100%"
             height="100%" />
        </g>
      </g>
    </g>
    <path
       style="fill:none;stroke:#000000;stroke-width:0.26458332px;stroke-linecap:butt;stroke-linejoin:miter;stroke-opacity:1"
       d="m 15.719421,47.011654 c 5.198441,-1.444068 7.023948,1.922069 12.206929,0.423825 1.708921,-1.243006 7.910611,-5.281715 9.304305,-5.474922 1.160076,-0.152349 2.194183,-0.367393 3.401786,-0.283478 1.255749,-0.144066 2.319402,0.574566 3.307283,0.944924 0.855703,0.426667 1.87591,0.41789 2.645806,0.85041 1.189239,0.189343 2.305316,1.436314 3.539211,1.417451 1.14943,0.03325 2.388313,0.309447 3.441021,-0.30092 0.556409,-0.249391 1.892612,-0.817513 2.752662,-1.116456 1.31346,-0.440929 2.951956,-0.150872 4.063233,0.755953 0.985514,0.128166 1.794759,1.703627 2.929287,2.078845 0.884023,0.519041 2.37165,0.111162 3.496272,0.37796 0.90927,0.404461 1.761388,0.872944 2.551299,1.228391 0.911542,-0.06493 2.085201,0.131949 2.834817,-0.09449 0.90616,-0.145008 1.457218,-0.60573 2.287372,-0.884186 0.724182,-0.242193 2.214559,-0.791299 2.980524,-0.178947 0.828203,0.568445 1.862836,0.685933 2.669529,1.063134 1.017655,0.115029 1.400365,-0.401535 2.322007,-0.587611 0.423399,-0.409082 0.929732,-0.463527 0.851655,-1.246168 0,0 0.272462,-1.237437 0.472416,-0.594029"
       id="path908"
       inkscape:connector-curvature="0"
       sodipodi:nodetypes="cccccccccccccccccccc" />
    <path
       style="fill:none;stroke:#000000;stroke-width:0.26073697px;stroke-linecap:butt;stroke-linejoin:miter;stroke-opacity:1;marker-start:url(#Arrow1Sstart);marker-end:url(#Arrow1Send)"
       d="M 40.491334,42.279917 V 47.3088"
       id="path913"
       inkscape:connector-curvature="0" />
    <g
       ns0:text="$h^+$"
       ns0:preamble="/home/ajaramillo/Dropbox/preamble.ini"
       transform="matrix(0.35472256,0,0,0.35472256,-43.412992,-1.5271101)"
       id="g2059">
      <defs
         id="defs2048">
        <g
           id="g2046">
          <symbol
             style="overflow:visible"
             overflow="visible"
             id="textext-0e90e79e-0">
            <path
               inkscape:connector-curvature="0"
               style="stroke:none"
               d=""
               id="path2034" />
          </symbol>
          <symbol
             style="overflow:visible"
             overflow="visible"
             id="textext-0e90e79e-1">
            <path
               inkscape:connector-curvature="0"
               style="stroke:none"
               d="m 2.859375,-6.8125 c 0,0 0,-0.109375 -0.125,-0.109375 -0.234375,0 -0.953125,0.078125 -1.21875,0.109375 -0.078125,0 -0.1875,0.015625 -0.1875,0.1875 0,0.125 0.09375,0.125 0.234375,0.125 0.484375,0 0.5,0.0625 0.5,0.171875 L 2.03125,-6.125 0.59375,-0.390625 c -0.046875,0.140625 -0.046875,0.15625 -0.046875,0.21875 0,0.234375 0.203125,0.28125 0.296875,0.28125 0.15625,0 0.3125,-0.125 0.359375,-0.265625 l 0.1875,-0.75 0.21875,-0.890625 C 1.671875,-2.03125 1.734375,-2.25 1.78125,-2.46875 1.796875,-2.53125 1.890625,-2.859375 1.890625,-2.921875 1.921875,-3.015625 2.234375,-3.5625 2.578125,-3.84375 2.796875,-4 3.09375,-4.1875 3.53125,-4.1875 c 0.421875,0 0.53125,0.34375 0.53125,0.703125 0,0.53125 -0.375,1.625 -0.609375,2.234375 C 3.375,-1.03125 3.3125,-0.90625 3.3125,-0.703125 c 0,0.46875 0.359375,0.8125 0.828125,0.8125 0.9375,0 1.296875,-1.453125 1.296875,-1.53125 0,-0.109375 -0.078125,-0.109375 -0.109375,-0.109375 -0.109375,0 -0.109375,0.03125 -0.15625,0.1875 -0.140625,0.53125 -0.46875,1.234375 -1.015625,1.234375 -0.171875,0 -0.234375,-0.09375 -0.234375,-0.328125 0,-0.25 0.078125,-0.484375 0.171875,-0.703125 0.15625,-0.4375 0.609375,-1.625 0.609375,-2.203125 0,-0.640625 -0.390625,-1.0625 -1.140625,-1.0625 -0.625,0 -1.109375,0.3125 -1.484375,0.765625 z m 0,0"
               id="path2037" />
          </symbol>
          <symbol
             style="overflow:visible"
             overflow="visible"
             id="textext-0e90e79e-2">
            <path
               inkscape:connector-curvature="0"
               style="stroke:none"
               d=""
               id="path2040" />
          </symbol>
          <symbol
             style="overflow:visible"
             overflow="visible"
             id="textext-0e90e79e-3">
            <path
               inkscape:connector-curvature="0"
               style="stroke:none"
               d="m 3.21875,-1.578125 h 2.140625 c 0.09375,0 0.25,0 0.25,-0.15625 0,-0.1875 -0.15625,-0.1875 -0.25,-0.1875 H 3.21875 V -4.0625 c 0,-0.078125 0,-0.25 -0.15625,-0.25 -0.171875,0 -0.171875,0.15625 -0.171875,0.25 v 2.140625 H 0.75 c -0.09375,0 -0.265625,0 -0.265625,0.171875 0,0.171875 0.15625,0.171875 0.265625,0.171875 H 2.890625 V 0.5625 c 0,0.09375 0,0.265625 0.15625,0.265625 0.171875,0 0.171875,-0.171875 0.171875,-0.265625 z m 0,0"
               id="path2043" />
          </symbol>
        </g>
      </defs>
      <g
         id="textext-0e90e79e-4">
        <g
           style="fill:#000000;fill-opacity:1"
           id="g2052">
          <use
             height="100%"
             width="100%"
             xlink:href="#textext-0e90e79e-1"
             x="223.43201"
             y="134.765"
             id="use2050" />
        </g>
        <g
           style="fill:#000000;fill-opacity:1"
           id="g2056">
          <use
             height="100%"
             width="100%"
             xlink:href="#textext-0e90e79e-3"
             x="229.172"
             y="131.14999"
             id="use2054" />
        </g>
      </g>
    </g>
    <g
       id="g2180"
       ns0:preamble="/home/ajaramillo/Dropbox/preamble.ini"
       ns0:text="$x$"
       transform="matrix(0.32888027,0,0,0.32888027,-23.44543,21.257107)">
      <defs
         id="defs2173">
        <g
           id="g2171">
          <symbol
             id="textext-e676a391-0"
             overflow="visible"
             style="overflow:visible">
            <path
               id="path2165"
               d=""
               style="stroke:none"
               inkscape:connector-curvature="0" />
          </symbol>
          <symbol
             id="textext-e676a391-1"
             overflow="visible"
             style="overflow:visible">
            <path
               id="path2168"
               d="M 3.328125,-3.015625 C 3.390625,-3.265625 3.625,-4.1875 4.3125,-4.1875 c 0.046875,0 0.296875,0 0.5,0.125 C 4.53125,-4 4.34375,-3.765625 4.34375,-3.515625 c 0,0.15625 0.109375,0.34375 0.375,0.34375 0.21875,0 0.53125,-0.171875 0.53125,-0.578125 0,-0.515625 -0.578125,-0.65625 -0.921875,-0.65625 -0.578125,0 -0.921875,0.53125 -1.046875,0.75 -0.25,-0.65625 -0.78125,-0.75 -1.078125,-0.75 -1.03125,0 -1.609375,1.28125 -1.609375,1.53125 0,0.109375 0.109375,0.109375 0.125,0.109375 0.078125,0 0.109375,-0.03125 0.125,-0.109375 0.34375,-1.0625 1,-1.3125 1.34375,-1.3125 0.1875,0 0.53125,0.09375 0.53125,0.671875 0,0.3125 -0.171875,0.96875 -0.53125,2.375 -0.15625,0.609375 -0.515625,1.03125 -0.953125,1.03125 -0.0625,0 -0.28125,0 -0.5,-0.125 0.25,-0.0625 0.46875,-0.265625 0.46875,-0.546875 0,-0.265625 -0.21875,-0.34375 -0.359375,-0.34375 -0.3125,0 -0.546875,0.25 -0.546875,0.578125 0,0.453125 0.484375,0.65625 0.921875,0.65625 0.671875,0 1.03125,-0.703125 1.046875,-0.75 0.125,0.359375 0.484375,0.75 1.078125,0.75 1.03125,0 1.59375,-1.28125 1.59375,-1.53125 0,-0.109375 -0.078125,-0.109375 -0.109375,-0.109375 -0.09375,0 -0.109375,0.046875 -0.140625,0.109375 -0.328125,1.078125 -1,1.3125 -1.3125,1.3125 -0.390625,0 -0.546875,-0.3125 -0.546875,-0.65625 0,-0.21875 0.046875,-0.4375 0.15625,-0.875 z m 0,0"
               style="stroke:none"
               inkscape:connector-curvature="0" />
          </symbol>
        </g>
      </defs>
      <g
         id="textext-e676a391-2">
        <g
           id="g2177"
           style="fill:#000000;fill-opacity:1">
          <use
             id="use2175"
             y="134.765"
             x="223.43201"
             xlink:href="#textext-e676a391-1"
             width="100%"
             height="100%" />
        </g>
      </g>
    </g>
    <g
       ns0:text="$h(x)$"
       ns0:preamble="/home/ajaramillo/Dropbox/preamble.ini"
       transform="matrix(0.32888027,0,0,0.32888027,-64.717084,-25.63795)"
       id="g2365">
      <defs
         id="defs2346">
        <g
           id="g2344">
          <symbol
             style="overflow:visible"
             overflow="visible"
             id="textext-768b3c15-0">
            <path
               inkscape:connector-curvature="0"
               style="stroke:none"
               d=""
               id="path2326" />
          </symbol>
          <symbol
             style="overflow:visible"
             overflow="visible"
             id="textext-768b3c15-1">
            <path
               inkscape:connector-curvature="0"
               style="stroke:none"
               d="m 2.859375,-6.8125 c 0,0 0,-0.109375 -0.125,-0.109375 -0.234375,0 -0.953125,0.078125 -1.21875,0.109375 -0.078125,0 -0.1875,0.015625 -0.1875,0.1875 0,0.125 0.09375,0.125 0.234375,0.125 0.484375,0 0.5,0.0625 0.5,0.171875 L 2.03125,-6.125 0.59375,-0.390625 c -0.046875,0.140625 -0.046875,0.15625 -0.046875,0.21875 0,0.234375 0.203125,0.28125 0.296875,0.28125 0.15625,0 0.3125,-0.125 0.359375,-0.265625 l 0.1875,-0.75 0.21875,-0.890625 C 1.671875,-2.03125 1.734375,-2.25 1.78125,-2.46875 1.796875,-2.53125 1.890625,-2.859375 1.890625,-2.921875 1.921875,-3.015625 2.234375,-3.5625 2.578125,-3.84375 2.796875,-4 3.09375,-4.1875 3.53125,-4.1875 c 0.421875,0 0.53125,0.34375 0.53125,0.703125 0,0.53125 -0.375,1.625 -0.609375,2.234375 C 3.375,-1.03125 3.3125,-0.90625 3.3125,-0.703125 c 0,0.46875 0.359375,0.8125 0.828125,0.8125 0.9375,0 1.296875,-1.453125 1.296875,-1.53125 0,-0.109375 -0.078125,-0.109375 -0.109375,-0.109375 -0.109375,0 -0.109375,0.03125 -0.15625,0.1875 -0.140625,0.53125 -0.46875,1.234375 -1.015625,1.234375 -0.171875,0 -0.234375,-0.09375 -0.234375,-0.328125 0,-0.25 0.078125,-0.484375 0.171875,-0.703125 0.15625,-0.4375 0.609375,-1.625 0.609375,-2.203125 0,-0.640625 -0.390625,-1.0625 -1.140625,-1.0625 -0.625,0 -1.109375,0.3125 -1.484375,0.765625 z m 0,0"
               id="path2329" />
          </symbol>
          <symbol
             style="overflow:visible"
             overflow="visible"
             id="textext-768b3c15-2">
            <path
               inkscape:connector-curvature="0"
               style="stroke:none"
               d="M 3.328125,-3.015625 C 3.390625,-3.265625 3.625,-4.1875 4.3125,-4.1875 c 0.046875,0 0.296875,0 0.5,0.125 C 4.53125,-4 4.34375,-3.765625 4.34375,-3.515625 c 0,0.15625 0.109375,0.34375 0.375,0.34375 0.21875,0 0.53125,-0.171875 0.53125,-0.578125 0,-0.515625 -0.578125,-0.65625 -0.921875,-0.65625 -0.578125,0 -0.921875,0.53125 -1.046875,0.75 -0.25,-0.65625 -0.78125,-0.75 -1.078125,-0.75 -1.03125,0 -1.609375,1.28125 -1.609375,1.53125 0,0.109375 0.109375,0.109375 0.125,0.109375 0.078125,0 0.109375,-0.03125 0.125,-0.109375 0.34375,-1.0625 1,-1.3125 1.34375,-1.3125 0.1875,0 0.53125,0.09375 0.53125,0.671875 0,0.3125 -0.171875,0.96875 -0.53125,2.375 -0.15625,0.609375 -0.515625,1.03125 -0.953125,1.03125 -0.0625,0 -0.28125,0 -0.5,-0.125 0.25,-0.0625 0.46875,-0.265625 0.46875,-0.546875 0,-0.265625 -0.21875,-0.34375 -0.359375,-0.34375 -0.3125,0 -0.546875,0.25 -0.546875,0.578125 0,0.453125 0.484375,0.65625 0.921875,0.65625 0.671875,0 1.03125,-0.703125 1.046875,-0.75 0.125,0.359375 0.484375,0.75 1.078125,0.75 1.03125,0 1.59375,-1.28125 1.59375,-1.53125 0,-0.109375 -0.078125,-0.109375 -0.109375,-0.109375 -0.09375,0 -0.109375,0.046875 -0.140625,0.109375 -0.328125,1.078125 -1,1.3125 -1.3125,1.3125 -0.390625,0 -0.546875,-0.3125 -0.546875,-0.65625 0,-0.21875 0.046875,-0.4375 0.15625,-0.875 z m 0,0"
               id="path2332" />
          </symbol>
          <symbol
             style="overflow:visible"
             overflow="visible"
             id="textext-768b3c15-3">
            <path
               inkscape:connector-curvature="0"
               style="stroke:none"
               d=""
               id="path2335" />
          </symbol>
          <symbol
             style="overflow:visible"
             overflow="visible"
             id="textext-768b3c15-4">
            <path
               inkscape:connector-curvature="0"
               style="stroke:none"
               d="m 3.296875,2.390625 c 0,-0.03125 0,-0.046875 -0.171875,-0.21875 C 1.890625,0.921875 1.5625,-0.96875 1.5625,-2.5 c 0,-1.734375 0.375,-3.46875 1.609375,-4.703125 0.125,-0.125 0.125,-0.140625 0.125,-0.171875 0,-0.078125 -0.03125,-0.109375 -0.09375,-0.109375 -0.109375,0 -1,0.6875 -1.59375,1.953125 -0.5,1.09375 -0.625,2.203125 -0.625,3.03125 0,0.78125 0.109375,1.984375 0.65625,3.125 C 2.25,1.84375 3.09375,2.5 3.203125,2.5 c 0.0625,0 0.09375,-0.03125 0.09375,-0.109375 z m 0,0"
               id="path2338" />
          </symbol>
          <symbol
             style="overflow:visible"
             overflow="visible"
             id="textext-768b3c15-5">
            <path
               inkscape:connector-curvature="0"
               style="stroke:none"
               d="m 2.875,-2.5 c 0,-0.765625 -0.109375,-1.96875 -0.65625,-3.109375 -0.59375,-1.21875 -1.453125,-1.875 -1.546875,-1.875 -0.0625,0 -0.109375,0.046875 -0.109375,0.109375 0,0.03125 0,0.046875 0.1875,0.234375 0.984375,0.984375 1.546875,2.5625 1.546875,4.640625 0,1.71875 -0.359375,3.46875 -1.59375,4.71875 C 0.5625,2.34375 0.5625,2.359375 0.5625,2.390625 0.5625,2.453125 0.609375,2.5 0.671875,2.5 0.765625,2.5 1.671875,1.8125 2.25,0.546875 2.765625,-0.546875 2.875,-1.65625 2.875,-2.5 Z m 0,0"
               id="path2341" />
          </symbol>
        </g>
      </defs>
      <g
         id="textext-768b3c15-6">
        <g
           style="fill:#000000;fill-opacity:1"
           id="g2350">
          <use
             height="100%"
             width="100%"
             xlink:href="#textext-768b3c15-1"
             x="223.43201"
             y="134.765"
             id="use2348" />
        </g>
        <g
           style="fill:#000000;fill-opacity:1"
           id="g2354">
          <use
             height="100%"
             width="100%"
             xlink:href="#textext-768b3c15-4"
             x="229.172"
             y="134.765"
             id="use2352" />
        </g>
        <g
           style="fill:#000000;fill-opacity:1"
           id="g2358">
          <use
             height="100%"
             width="100%"
             xlink:href="#textext-768b3c15-2"
             x="233.047"
             y="134.765"
             id="use2356" />
        </g>
        <g
           style="fill:#000000;fill-opacity:1"
           id="g2362">
          <use
             height="100%"
             width="100%"
             xlink:href="#textext-768b3c15-5"
             x="238.74001"
             y="134.765"
             id="use2360" />
        </g>
      </g>
    </g>
    <path
       style="fill:none;stroke:#000000;stroke-width:0.26458332px;stroke-linecap:butt;stroke-linejoin:miter;stroke-opacity:1;marker-start:url(#marker2766);marker-end:url(#marker2776)"
       d="M 99.906403,15.297918 V 46.195085 H 176.34553"
       id="path2762"
       inkscape:connector-curvature="0"
       sodipodi:nodetypes="ccc" />
    <g
       id="g3117"
       transform="matrix(0.32888027,0,0,0.32888027,100.00159,5.9490713)"
       ns0:preamble="/home/ajaramillo/Dropbox/preamble.ini"
       ns0:text="$R$">
      <defs
         id="defs3110">
        <g
           id="g3108">
          <symbol
             id="textext-920aaa66-0"
             overflow="visible"
             style="overflow:visible">
            <path
               id="path3102"
               d=""
               style="stroke:none"
               inkscape:connector-curvature="0" />
          </symbol>
          <symbol
             id="textext-920aaa66-1"
             overflow="visible"
             style="overflow:visible">
            <path
               id="path3105"
               d="m 3.734375,-6.125 c 0.0625,-0.234375 0.09375,-0.328125 0.28125,-0.359375 C 4.109375,-6.5 4.421875,-6.5 4.625,-6.5 c 0.703125,0 1.8125,0 1.8125,0.984375 0,0.34375 -0.15625,1.03125 -0.546875,1.421875 -0.265625,0.25 -0.78125,0.578125 -1.6875,0.578125 H 3.09375 Z m 1.4375,2.734375 c 1.015625,-0.21875 2.1875,-0.921875 2.1875,-1.921875 0,-0.859375 -0.890625,-1.5 -2.203125,-1.5 H 2.328125 c -0.203125,0 -0.296875,0 -0.296875,0.203125 C 2.03125,-6.5 2.125,-6.5 2.3125,-6.5 c 0.015625,0 0.203125,0 0.375,0.015625 0.1875,0.03125 0.265625,0.03125 0.265625,0.171875 0,0.03125 0,0.0625 -0.03125,0.1875 l -1.34375,5.34375 C 1.484375,-0.390625 1.46875,-0.3125 0.671875,-0.3125 0.5,-0.3125 0.40625,-0.3125 0.40625,-0.109375 0.40625,0 0.53125,0 0.546875,0 c 0.28125,0 0.984375,-0.03125 1.25,-0.03125 0.28125,0 1,0.03125 1.28125,0.03125 0.078125,0 0.1875,0 0.1875,-0.203125 0,-0.109375 -0.078125,-0.109375 -0.28125,-0.109375 -0.359375,0 -0.640625,0 -0.640625,-0.171875 0,-0.0625 0.015625,-0.109375 0.03125,-0.171875 l 0.65625,-2.640625 h 1.1875 c 0.90625,0 1.078125,0.5625 1.078125,0.90625 0,0.140625 -0.078125,0.453125 -0.140625,0.6875 C 5.09375,-1.421875 5,-1.0625 5,-0.859375 5,0.21875 6.203125,0.21875 6.328125,0.21875 c 0.84375,0 1.203125,-1 1.203125,-1.140625 0,-0.125 -0.109375,-0.125 -0.125,-0.125 -0.09375,0 -0.109375,0.0625 -0.125,0.140625 C 7.03125,-0.171875 6.59375,0 6.375,0 6.046875,0 5.96875,-0.21875 5.96875,-0.609375 c 0,-0.3125 0.0625,-0.8125 0.109375,-1.140625 0.015625,-0.140625 0.03125,-0.328125 0.03125,-0.46875 0,-0.765625 -0.671875,-1.078125 -0.9375,-1.171875 z m 0,0"
               style="stroke:none"
               inkscape:connector-curvature="0" />
          </symbol>
        </g>
      </defs>
      <g
         id="textext-920aaa66-2">
        <g
           id="g3114"
           style="fill:#000000;fill-opacity:1">
          <use
             id="use3112"
             y="134.765"
             x="223.43201"
             xlink:href="#textext-920aaa66-1"
             width="100%"
             height="100%" />
        </g>
      </g>
    </g>
    <path
       style="fill:none;stroke:#000000;stroke-width:0.26458332px;stroke-linecap:butt;stroke-linejoin:miter;stroke-opacity:1;marker-end:url(#marker3623)"
       d="M 99.906403,46.195085 V 62.276778"
       id="path3613"
       inkscape:connector-curvature="0" />
    <path
       style="fill:none;stroke:#000000;stroke-width:0.26458332px;stroke-linecap:butt;stroke-linejoin:miter;stroke-opacity:1"
       d="m 122.68208,25.454151 c 2.0111,0.598295 3.03413,2.485333 4.56915,3.705639 1.51846,1.207141 3.2431,2.181313 4.59047,3.576841 1.80361,1.868076 3.32654,4.029221 4.56937,6.309158 1.15527,2.119316 1.65926,4.53669 2.6277,6.747634 0.3531,0.806126 0.74622,1.594939 1.1587,2.372358 0.38341,0.722628 0.78893,1.43425 1.22212,2.128182 0.7355,1.178215 1.55301,2.303217 2.335,3.451106 1.00743,1.478823 1.70207,3.234581 3.03637,4.426841 1.36082,1.215957 3.1203,1.94234 4.83346,2.571187 0.78692,0.288854 1.62729,0.416687 2.45704,0.535817 0.57622,0.08273 1.15965,0.142073 1.74204,0.122988"
       id="path3657"
       inkscape:connector-curvature="0"
       sodipodi:nodetypes="caaaaaaaaaac" />
    <text
       xml:space="preserve"
       style="font-style:normal;font-weight:normal;font-size:3.68121457px;line-height:1.25;font-family:sans-serif;letter-spacing:0px;word-spacing:0px;fill:#000000;fill-opacity:1;stroke:none;stroke-width:0.09203037"
       x="114.72263"
       y="25.829554"
       id="text3663"><tspan
         sodipodi:role="line"
         id="tspan3661"
         x="114.72263"
         y="25.829554"
         style="stroke-width:0.09203037">(...)</tspan></text>
    <text
       id="text3667"
       y="64.049095"
       x="156.14941"
       style="font-style:normal;font-weight:normal;font-size:3.68121457px;line-height:1.25;font-family:sans-serif;letter-spacing:0px;word-spacing:0px;fill:#000000;fill-opacity:1;stroke:none;stroke-width:0.09203037"
       xml:space="preserve"><tspan
         style="stroke-width:0.09203037"
         y="64.049095"
         x="156.14941"
         id="tspan3665"
         sodipodi:role="line">(...)</tspan></text>
    <text
       id="text3671"
       y="47.147163"
       x="96.991615"
       style="font-style:normal;font-weight:normal;font-size:2.7124486px;line-height:1.25;font-family:sans-serif;letter-spacing:0px;word-spacing:0px;fill:#000000;fill-opacity:1;stroke:none;stroke-width:0.06781121"
       xml:space="preserve"><tspan
         style="stroke-width:0.06781121"
         y="47.147163"
         x="96.991615"
         id="tspan3669"
         sodipodi:role="line">0</tspan></text>
    <g
       ns0:text="$f_1(R)$"
       ns0:preamble="/home/ajaramillo/Dropbox/preamble.ini"
       transform="matrix(0.32888027,0,0,0.32888027,16.774584,-25.63795)"
       id="g3888">
      <defs
         id="defs3865">
        <g
           id="g3863">
          <symbol
             style="overflow:visible"
             overflow="visible"
             id="textext-1baea735-0">
            <path
               inkscape:connector-curvature="0"
               style="stroke:none"
               d=""
               id="path3839" />
          </symbol>
          <symbol
             style="overflow:visible"
             overflow="visible"
             id="textext-1baea735-1">
            <path
               inkscape:connector-curvature="0"
               style="stroke:none"
               d="m 3.65625,-3.984375 h 0.859375 c 0.203125,0 0.296875,0 0.296875,-0.203125 0,-0.109375 -0.09375,-0.109375 -0.265625,-0.109375 H 3.71875 L 3.921875,-5.4375 c 0.046875,-0.203125 0.1875,-0.90625 0.25,-1.03125 0.078125,-0.1875 0.25,-0.34375 0.46875,-0.34375 0.03125,0 0.296875,0 0.484375,0.1875 -0.4375,0.03125 -0.546875,0.390625 -0.546875,0.53125 0,0.234375 0.1875,0.359375 0.375,0.359375 C 5.21875,-5.734375 5.5,-5.96875 5.5,-6.34375 c 0,-0.453125 -0.453125,-0.6875 -0.859375,-0.6875 -0.34375,0 -0.96875,0.1875 -1.265625,1.171875 -0.0625,0.203125 -0.09375,0.3125 -0.328125,1.5625 h -0.6875 c -0.203125,0 -0.3125,0 -0.3125,0.1875 0,0.125 0.09375,0.125 0.28125,0.125 h 0.65625 L 2.25,-0.046875 c -0.1875,0.96875 -0.359375,1.875 -0.875,1.875 -0.046875,0 -0.28125,0 -0.484375,-0.1875 C 1.359375,1.609375 1.453125,1.25 1.453125,1.109375 1.453125,0.875 1.265625,0.75 1.078125,0.75 0.8125,0.75 0.53125,0.984375 0.53125,1.359375 c 0,0.4375 0.4375,0.6875 0.84375,0.6875 0.546875,0 0.953125,-0.59375 1.125,-0.96875 0.328125,-0.625 0.546875,-1.828125 0.5625,-1.90625 z m 0,0"
               id="path3842" />
          </symbol>
          <symbol
             style="overflow:visible"
             overflow="visible"
             id="textext-1baea735-2">
            <path
               inkscape:connector-curvature="0"
               style="stroke:none"
               d="m 3.734375,-6.125 c 0.0625,-0.234375 0.09375,-0.328125 0.28125,-0.359375 C 4.109375,-6.5 4.421875,-6.5 4.625,-6.5 c 0.703125,0 1.8125,0 1.8125,0.984375 0,0.34375 -0.15625,1.03125 -0.546875,1.421875 -0.265625,0.25 -0.78125,0.578125 -1.6875,0.578125 H 3.09375 Z m 1.4375,2.734375 c 1.015625,-0.21875 2.1875,-0.921875 2.1875,-1.921875 0,-0.859375 -0.890625,-1.5 -2.203125,-1.5 H 2.328125 c -0.203125,0 -0.296875,0 -0.296875,0.203125 C 2.03125,-6.5 2.125,-6.5 2.3125,-6.5 c 0.015625,0 0.203125,0 0.375,0.015625 0.1875,0.03125 0.265625,0.03125 0.265625,0.171875 0,0.03125 0,0.0625 -0.03125,0.1875 l -1.34375,5.34375 C 1.484375,-0.390625 1.46875,-0.3125 0.671875,-0.3125 0.5,-0.3125 0.40625,-0.3125 0.40625,-0.109375 0.40625,0 0.53125,0 0.546875,0 c 0.28125,0 0.984375,-0.03125 1.25,-0.03125 0.28125,0 1,0.03125 1.28125,0.03125 0.078125,0 0.1875,0 0.1875,-0.203125 0,-0.109375 -0.078125,-0.109375 -0.28125,-0.109375 -0.359375,0 -0.640625,0 -0.640625,-0.171875 0,-0.0625 0.015625,-0.109375 0.03125,-0.171875 l 0.65625,-2.640625 h 1.1875 c 0.90625,0 1.078125,0.5625 1.078125,0.90625 0,0.140625 -0.078125,0.453125 -0.140625,0.6875 C 5.09375,-1.421875 5,-1.0625 5,-0.859375 5,0.21875 6.203125,0.21875 6.328125,0.21875 c 0.84375,0 1.203125,-1 1.203125,-1.140625 0,-0.125 -0.109375,-0.125 -0.125,-0.125 -0.09375,0 -0.109375,0.0625 -0.125,0.140625 C 7.03125,-0.171875 6.59375,0 6.375,0 6.046875,0 5.96875,-0.21875 5.96875,-0.609375 c 0,-0.3125 0.0625,-0.8125 0.109375,-1.140625 0.015625,-0.140625 0.03125,-0.328125 0.03125,-0.46875 0,-0.765625 -0.671875,-1.078125 -0.9375,-1.171875 z m 0,0"
               id="path3845" />
          </symbol>
          <symbol
             style="overflow:visible"
             overflow="visible"
             id="textext-1baea735-3">
            <path
               inkscape:connector-curvature="0"
               style="stroke:none"
               d=""
               id="path3848" />
          </symbol>
          <symbol
             style="overflow:visible"
             overflow="visible"
             id="textext-1baea735-4">
            <path
               inkscape:connector-curvature="0"
               style="stroke:none"
               d="m 2.328125,-4.4375 c 0,-0.1875 0,-0.1875 -0.203125,-0.1875 -0.453125,0.4375 -1.078125,0.4375 -1.359375,0.4375 v 0.25 c 0.15625,0 0.625,0 1,-0.1875 v 3.546875 c 0,0.234375 0,0.328125 -0.6875,0.328125 H 0.8125 V 0 c 0.125,0 0.984375,-0.03125 1.234375,-0.03125 0.21875,0 1.09375,0.03125 1.25,0.03125 V -0.25 H 3.03125 c -0.703125,0 -0.703125,-0.09375 -0.703125,-0.328125 z m 0,0"
               id="path3851" />
          </symbol>
          <symbol
             style="overflow:visible"
             overflow="visible"
             id="textext-1baea735-5">
            <path
               inkscape:connector-curvature="0"
               style="stroke:none"
               d=""
               id="path3854" />
          </symbol>
          <symbol
             style="overflow:visible"
             overflow="visible"
             id="textext-1baea735-6">
            <path
               inkscape:connector-curvature="0"
               style="stroke:none"
               d="m 3.296875,2.390625 c 0,-0.03125 0,-0.046875 -0.171875,-0.21875 C 1.890625,0.921875 1.5625,-0.96875 1.5625,-2.5 c 0,-1.734375 0.375,-3.46875 1.609375,-4.703125 0.125,-0.125 0.125,-0.140625 0.125,-0.171875 0,-0.078125 -0.03125,-0.109375 -0.09375,-0.109375 -0.109375,0 -1,0.6875 -1.59375,1.953125 -0.5,1.09375 -0.625,2.203125 -0.625,3.03125 0,0.78125 0.109375,1.984375 0.65625,3.125 C 2.25,1.84375 3.09375,2.5 3.203125,2.5 c 0.0625,0 0.09375,-0.03125 0.09375,-0.109375 z m 0,0"
               id="path3857" />
          </symbol>
          <symbol
             style="overflow:visible"
             overflow="visible"
             id="textext-1baea735-7">
            <path
               inkscape:connector-curvature="0"
               style="stroke:none"
               d="m 2.875,-2.5 c 0,-0.765625 -0.109375,-1.96875 -0.65625,-3.109375 -0.59375,-1.21875 -1.453125,-1.875 -1.546875,-1.875 -0.0625,0 -0.109375,0.046875 -0.109375,0.109375 0,0.03125 0,0.046875 0.1875,0.234375 0.984375,0.984375 1.546875,2.5625 1.546875,4.640625 0,1.71875 -0.359375,3.46875 -1.59375,4.71875 C 0.5625,2.34375 0.5625,2.359375 0.5625,2.390625 0.5625,2.453125 0.609375,2.5 0.671875,2.5 0.765625,2.5 1.671875,1.8125 2.25,0.546875 2.765625,-0.546875 2.875,-1.65625 2.875,-2.5 Z m 0,0"
               id="path3860" />
          </symbol>
        </g>
      </defs>
      <g
         id="textext-1baea735-8">
        <g
           style="fill:#000000;fill-opacity:1"
           id="g3869">
          <use
             height="100%"
             width="100%"
             xlink:href="#textext-1baea735-1"
             x="223.43201"
             y="134.765"
             id="use3867" />
        </g>
        <g
           style="fill:#000000;fill-opacity:1"
           id="g3873">
          <use
             height="100%"
             width="100%"
             xlink:href="#textext-1baea735-4"
             x="228.31"
             y="136.259"
             id="use3871" />
        </g>
        <g
           style="fill:#000000;fill-opacity:1"
           id="g3877">
          <use
             height="100%"
             width="100%"
             xlink:href="#textext-1baea735-6"
             x="232.77901"
             y="134.765"
             id="use3875" />
        </g>
        <g
           style="fill:#000000;fill-opacity:1"
           id="g3881">
          <use
             height="100%"
             width="100%"
             xlink:href="#textext-1baea735-2"
             x="236.653"
             y="134.765"
             id="use3879" />
        </g>
        <g
           style="fill:#000000;fill-opacity:1"
           id="g3885">
          <use
             height="100%"
             width="100%"
             xlink:href="#textext-1baea735-7"
             x="244.295"
             y="134.765"
             id="use3883" />
        </g>
      </g>
    </g>
    <g
       id="g4233"
       transform="matrix(0.32888027,0,0,0.32888027,63.227194,5.2808975)"
       ns0:preamble="/home/ajaramillo/Dropbox/preamble.ini"
       ns0:text="$\\bar{R}$">
      <defs
         id="defs4222">
        <g
           id="g4220">
          <symbol
             id="textext-a58b266b-0"
             overflow="visible"
             style="overflow:visible">
            <path
               id="path4208"
               d=""
               style="stroke:none"
               inkscape:connector-curvature="0" />
          </symbol>
          <symbol
             id="textext-a58b266b-1"
             overflow="visible"
             style="overflow:visible">
            <path
               id="path4211"
               d="M 4.28125,-5.578125 V -5.875 H 0.6875 v 0.296875 z m 0,0"
               style="stroke:none"
               inkscape:connector-curvature="0" />
          </symbol>
          <symbol
             id="textext-a58b266b-2"
             overflow="visible"
             style="overflow:visible">
            <path
               id="path4214"
               d=""
               style="stroke:none"
               inkscape:connector-curvature="0" />
          </symbol>
          <symbol
             id="textext-a58b266b-3"
             overflow="visible"
             style="overflow:visible">
            <path
               id="path4217"
               d="m 3.734375,-6.125 c 0.0625,-0.234375 0.09375,-0.328125 0.28125,-0.359375 C 4.109375,-6.5 4.421875,-6.5 4.625,-6.5 c 0.703125,0 1.8125,0 1.8125,0.984375 0,0.34375 -0.15625,1.03125 -0.546875,1.421875 -0.265625,0.25 -0.78125,0.578125 -1.6875,0.578125 H 3.09375 Z m 1.4375,2.734375 c 1.015625,-0.21875 2.1875,-0.921875 2.1875,-1.921875 0,-0.859375 -0.890625,-1.5 -2.203125,-1.5 H 2.328125 c -0.203125,0 -0.296875,0 -0.296875,0.203125 C 2.03125,-6.5 2.125,-6.5 2.3125,-6.5 c 0.015625,0 0.203125,0 0.375,0.015625 0.1875,0.03125 0.265625,0.03125 0.265625,0.171875 0,0.03125 0,0.0625 -0.03125,0.1875 l -1.34375,5.34375 C 1.484375,-0.390625 1.46875,-0.3125 0.671875,-0.3125 0.5,-0.3125 0.40625,-0.3125 0.40625,-0.109375 0.40625,0 0.53125,0 0.546875,0 c 0.28125,0 0.984375,-0.03125 1.25,-0.03125 0.28125,0 1,0.03125 1.28125,0.03125 0.078125,0 0.1875,0 0.1875,-0.203125 0,-0.109375 -0.078125,-0.109375 -0.28125,-0.109375 -0.359375,0 -0.640625,0 -0.640625,-0.171875 0,-0.0625 0.015625,-0.109375 0.03125,-0.171875 l 0.65625,-2.640625 h 1.1875 c 0.90625,0 1.078125,0.5625 1.078125,0.90625 0,0.140625 -0.078125,0.453125 -0.140625,0.6875 C 5.09375,-1.421875 5,-1.0625 5,-0.859375 5,0.21875 6.203125,0.21875 6.328125,0.21875 c 0.84375,0 1.203125,-1 1.203125,-1.140625 0,-0.125 -0.109375,-0.125 -0.125,-0.125 -0.09375,0 -0.109375,0.0625 -0.125,0.140625 C 7.03125,-0.171875 6.59375,0 6.375,0 6.046875,0 5.96875,-0.21875 5.96875,-0.609375 c 0,-0.3125 0.0625,-0.8125 0.109375,-1.140625 0.015625,-0.140625 0.03125,-0.328125 0.03125,-0.46875 0,-0.765625 -0.671875,-1.078125 -0.9375,-1.171875 z m 0,0"
               style="stroke:none"
               inkscape:connector-curvature="0" />
          </symbol>
        </g>
      </defs>
      <g
         id="textext-a58b266b-4">
        <g
           id="g4226"
           style="fill:#000000;fill-opacity:1">
          <use
             id="use4224"
             y="132.24699"
             x="225.592"
             xlink:href="#textext-a58b266b-1"
             width="100%"
             height="100%" />
        </g>
        <g
           id="g4230"
           style="fill:#000000;fill-opacity:1">
          <use
             id="use4228"
             y="134.765"
             x="223.43201"
             xlink:href="#textext-a58b266b-3"
             width="100%"
             height="100%" />
        </g>
      </g>
    </g>
  </g>
</svg>
