<?xml version="1.0" encoding="UTF-8" standalone="no"?>
<!-- Created with Inkscape (http://www.inkscape.org/) -->

<svg
   xmlns:ns0="http://www.iki.fi/pav/software/textext/"
   xmlns:dc="http://purl.org/dc/elements/1.1/"
   xmlns:cc="http://creativecommons.org/ns#"
   xmlns:rdf="http://www.w3.org/1999/02/22-rdf-syntax-ns#"
   xmlns:svg="http://www.w3.org/2000/svg"
   xmlns="http://www.w3.org/2000/svg"
   xmlns:xlink="http://www.w3.org/1999/xlink"
   xmlns:sodipodi="http://sodipodi.sourceforge.net/DTD/sodipodi-0.dtd"
   xmlns:inkscape="http://www.inkscape.org/namespaces/inkscape"
   width="117.29769mm"
   height="85.75988mm"
   viewBox="0 0 117.29769 85.75988"
   version="1.1"
   id="svg8"
   inkscape:version="0.92.0 r"
   sodipodi:docname="positive_gradient_flux.svg">
  <sodipodi:namedview
     id="base"
     pagecolor="#ffffff"
     bordercolor="#666666"
     borderopacity="1.0"
     inkscape:pageopacity="0.0"
     inkscape:pageshadow="2"
     inkscape:zoom="1.979899"
     inkscape:cx="162.04891"
     inkscape:cy="142.28789"
     inkscape:document-units="mm"
     inkscape:current-layer="layer1"
     showgrid="false"
     inkscape:window-width="1920"
     inkscape:window-height="1022"
     inkscape:window-x="0"
     inkscape:window-y="1080"
     inkscape:window-maximized="1"
     fit-margin-top="0"
     fit-margin-left="0"
     fit-margin-right="0"
     fit-margin-bottom="0" />
  <defs
     id="defs2">
    <marker
       inkscape:isstock="true"
       style="overflow:visible"
       id="marker17790"
       refX="0"
       refY="0"
       orient="auto"
       inkscape:stockid="Arrow1Send">
      <path
         transform="matrix(-0.2,0,0,-0.2,-1.2,0)"
         style="fill:#000000;fill-opacity:1;fill-rule:evenodd;stroke:#000000;stroke-width:1.00000003pt;stroke-opacity:1"
         d="M 0,0 5,-5 -12.5,0 5,5 Z"
         id="path17788"
         inkscape:connector-curvature="0" />
    </marker>
    <marker
       inkscape:isstock="true"
       style="overflow:visible"
       id="marker15838"
       refX="0"
       refY="0"
       orient="auto"
       inkscape:stockid="Arrow1Send">
      <path
         transform="matrix(-0.2,0,0,-0.2,-1.2,0)"
         style="fill:#000000;fill-opacity:1;fill-rule:evenodd;stroke:#000000;stroke-width:1.00000003pt;stroke-opacity:1"
         d="M 0,0 5,-5 -12.5,0 5,5 Z"
         id="path15836"
         inkscape:connector-curvature="0" />
    </marker>
    <marker
       inkscape:isstock="true"
       style="overflow:visible"
       id="marker10878"
       refX="0"
       refY="0"
       orient="auto"
       inkscape:stockid="Arrow1Send">
      <path
         transform="matrix(-0.2,0,0,-0.2,-1.2,0)"
         style="fill:#000000;fill-opacity:1;fill-rule:evenodd;stroke:#000000;stroke-width:1.00000003pt;stroke-opacity:1"
         d="M 0,0 5,-5 -12.5,0 5,5 Z"
         id="path10876"
         inkscape:connector-curvature="0" />
    </marker>
    <marker
       inkscape:collect="always"
       inkscape:stockid="Arrow1Send"
       orient="auto"
       refY="0"
       refX="0"
       id="marker10436"
       style="overflow:visible"
       inkscape:isstock="true">
      <path
         id="path10434"
         d="M 0,0 5,-5 -12.5,0 5,5 Z"
         style="fill:#000000;fill-opacity:1;fill-rule:evenodd;stroke:#000000;stroke-width:1.00000003pt;stroke-opacity:1"
         transform="matrix(-0.2,0,0,-0.2,-1.2,0)"
         inkscape:connector-curvature="0" />
    </marker>
    <marker
       inkscape:collect="always"
       inkscape:isstock="true"
       style="overflow:visible"
       id="marker9948"
       refX="0"
       refY="0"
       orient="auto"
       inkscape:stockid="Arrow1Send">
      <path
         transform="matrix(-0.2,0,0,-0.2,-1.2,0)"
         style="fill:#000000;fill-opacity:1;fill-rule:evenodd;stroke:#000000;stroke-width:1.00000003pt;stroke-opacity:1"
         d="M 0,0 5,-5 -12.5,0 5,5 Z"
         id="path9946"
         inkscape:connector-curvature="0" />
    </marker>
    <marker
       inkscape:collect="always"
       inkscape:stockid="Arrow1Send"
       orient="auto"
       refY="0"
       refX="0"
       id="marker9744"
       style="overflow:visible"
       inkscape:isstock="true">
      <path
         id="path9742"
         d="M 0,0 5,-5 -12.5,0 5,5 Z"
         style="fill:#000000;fill-opacity:1;fill-rule:evenodd;stroke:#000000;stroke-width:1.00000003pt;stroke-opacity:1"
         transform="matrix(-0.2,0,0,-0.2,-1.2,0)"
         inkscape:connector-curvature="0" />
    </marker>
    <marker
       inkscape:stockid="Arrow1Send"
       orient="auto"
       refY="0"
       refX="0"
       id="marker8964"
       style="overflow:visible"
       inkscape:isstock="true"
       inkscape:collect="always">
      <path
         id="path8962"
         d="M 0,0 5,-5 -12.5,0 5,5 Z"
         style="fill:#000000;fill-opacity:1;fill-rule:evenodd;stroke:#000000;stroke-width:1.00000003pt;stroke-opacity:1"
         transform="matrix(-0.2,0,0,-0.2,-1.2,0)"
         inkscape:connector-curvature="0" />
    </marker>
    <marker
       inkscape:collect="always"
       inkscape:isstock="true"
       style="overflow:visible"
       id="marker8688"
       refX="0"
       refY="0"
       orient="auto"
       inkscape:stockid="Arrow1Send">
      <path
         transform="matrix(-0.2,0,0,-0.2,-1.2,0)"
         style="fill:#000000;fill-opacity:1;fill-rule:evenodd;stroke:#000000;stroke-width:1.00000003pt;stroke-opacity:1"
         d="M 0,0 5,-5 -12.5,0 5,5 Z"
         id="path8686"
         inkscape:connector-curvature="0" />
    </marker>
    <marker
       inkscape:collect="always"
       inkscape:stockid="Arrow1Send"
       orient="auto"
       refY="0"
       refX="0"
       id="marker8342"
       style="overflow:visible"
       inkscape:isstock="true">
      <path
         id="path8340"
         d="M 0,0 5,-5 -12.5,0 5,5 Z"
         style="fill:#000000;fill-opacity:1;fill-rule:evenodd;stroke:#000000;stroke-width:1.00000003pt;stroke-opacity:1"
         transform="matrix(-0.2,0,0,-0.2,-1.2,0)"
         inkscape:connector-curvature="0" />
    </marker>
    <marker
       inkscape:stockid="Arrow1Send"
       orient="auto"
       refY="0"
       refX="0"
       id="marker7710"
       style="overflow:visible"
       inkscape:isstock="true"
       inkscape:collect="always">
      <path
         id="path7708"
         d="M 0,0 5,-5 -12.5,0 5,5 Z"
         style="fill:#000000;fill-opacity:1;fill-rule:evenodd;stroke:#000000;stroke-width:1.00000003pt;stroke-opacity:1"
         transform="matrix(-0.2,0,0,-0.2,-1.2,0)"
         inkscape:connector-curvature="0" />
    </marker>
    <marker
       inkscape:collect="always"
       inkscape:stockid="Arrow1Send"
       orient="auto"
       refY="0"
       refX="0"
       id="marker6204"
       style="overflow:visible"
       inkscape:isstock="true">
      <path
         id="path6202"
         d="M 0,0 5,-5 -12.5,0 5,5 Z"
         style="fill:#000000;fill-opacity:1;fill-rule:evenodd;stroke:#000000;stroke-width:1.00000003pt;stroke-opacity:1"
         transform="matrix(-0.2,0,0,-0.2,-1.2,0)"
         inkscape:connector-curvature="0" />
    </marker>
    <marker
       inkscape:collect="always"
       inkscape:isstock="true"
       style="overflow:visible"
       id="marker5796"
       refX="0"
       refY="0"
       orient="auto"
       inkscape:stockid="Arrow1Send">
      <path
         transform="matrix(-0.2,0,0,-0.2,-1.2,0)"
         style="fill:#000000;fill-opacity:1;fill-rule:evenodd;stroke:#000000;stroke-width:1.00000003pt;stroke-opacity:1"
         d="M 0,0 5,-5 -12.5,0 5,5 Z"
         id="path5794"
         inkscape:connector-curvature="0" />
    </marker>
    <marker
       inkscape:collect="always"
       inkscape:stockid="Arrow1Send"
       orient="auto"
       refY="0"
       refX="0"
       id="marker5510"
       style="overflow:visible"
       inkscape:isstock="true">
      <path
         id="path5508"
         d="M 0,0 5,-5 -12.5,0 5,5 Z"
         style="fill:#000000;fill-opacity:1;fill-rule:evenodd;stroke:#000000;stroke-width:1.00000003pt;stroke-opacity:1"
         transform="matrix(-0.2,0,0,-0.2,-1.2,0)"
         inkscape:connector-curvature="0" />
    </marker>
    <marker
       inkscape:collect="always"
       inkscape:isstock="true"
       style="overflow:visible"
       id="Arrow1Send"
       refX="0"
       refY="0"
       orient="auto"
       inkscape:stockid="Arrow1Send">
      <path
         transform="matrix(-0.2,0,0,-0.2,-1.2,0)"
         style="fill:#000000;fill-opacity:1;fill-rule:evenodd;stroke:#000000;stroke-width:1.00000003pt;stroke-opacity:1"
         d="M 0,0 5,-5 -12.5,0 5,5 Z"
         id="path4502"
         inkscape:connector-curvature="0" />
    </marker>
    <marker
       inkscape:isstock="true"
       style="overflow:visible"
       id="Arrow1Lstart"
       refX="0"
       refY="0"
       orient="auto"
       inkscape:stockid="Arrow1Lstart">
      <path
         transform="matrix(0.8,0,0,0.8,10,0)"
         style="fill:#000000;fill-opacity:1;fill-rule:evenodd;stroke:#000000;stroke-width:1.00000003pt;stroke-opacity:1"
         d="M 0,0 5,-5 -12.5,0 5,5 Z"
         id="path4487"
         inkscape:connector-curvature="0" />
    </marker>
    <marker
       inkscape:isstock="true"
       style="overflow:visible"
       id="Arrow2Lend"
       refX="0"
       refY="0"
       orient="auto"
       inkscape:stockid="Arrow2Lend">
      <path
         transform="matrix(-1.1,0,0,-1.1,-1.1,0)"
         d="M 8.7185878,4.0337352 -2.2072895,0.01601326 8.7185884,-4.0017078 c -1.7454984,2.3720609 -1.7354408,5.6174519 -6e-7,8.035443 z"
         style="fill:#000000;fill-opacity:1;fill-rule:evenodd;stroke:#000000;stroke-width:0.625;stroke-linejoin:round;stroke-opacity:1"
         id="path4508"
         inkscape:connector-curvature="0" />
    </marker>
    <marker
       inkscape:isstock="true"
       style="overflow:visible"
       id="Arrow2Lstart"
       refX="0"
       refY="0"
       orient="auto"
       inkscape:stockid="Arrow2Lstart">
      <path
         transform="matrix(1.1,0,0,1.1,1.1,0)"
         d="M 8.7185878,4.0337352 -2.2072895,0.01601326 8.7185884,-4.0017078 c -1.7454984,2.3720609 -1.7354408,5.6174519 -6e-7,8.035443 z"
         style="fill:#000000;fill-opacity:1;fill-rule:evenodd;stroke:#000000;stroke-width:0.625;stroke-linejoin:round;stroke-opacity:1"
         id="path4505"
         inkscape:connector-curvature="0" />
    </marker>
    <defs
       id="defs11533">
      <g
         id="g11531">
        <symbol
           style="overflow:visible"
           overflow="visible"
           id="textext-08de584b-0">
          <path
             inkscape:connector-curvature="0"
             style="stroke:none"
             d=""
             id="path11501" />
        </symbol>
        <symbol
           style="overflow:visible"
           overflow="visible"
           id="textext-08de584b-1">
          <path
             inkscape:connector-curvature="0"
             style="stroke:none"
             d="m 4.609375,-3.375 c -0.09375,-0.625 -0.5,-1.1875 -1.28125,-1.1875 -0.609375,0 -1.25,0.171875 -2.03125,0.9375 -0.828125,0.828125 -0.890625,1.765625 -0.890625,2.0625 0,0.625 0.4375,1.78125 1.828125,1.78125 2.375,0 3.40625,-3.34375 3.40625,-4.78125 0,-1.578125 -0.921875,-2.578125 -2.15625,-2.578125 -1.4375,0 -1.90625,1.296875 -1.90625,1.578125 0,0.140625 0.09375,0.34375 0.390625,0.34375 0.328125,0 0.53125,-0.296875 0.53125,-0.515625 0,-0.359375 -0.3125,-0.359375 -0.46875,-0.359375 0.4375,-0.734375 1.15625,-0.796875 1.4375,-0.796875 0.734375,0 1.421875,0.515625 1.421875,1.8125 0,0.390625 -0.0625,0.890625 -0.265625,1.703125 z m -2.34375,3.3125 c -1.09375,0 -1.09375,-1.03125 -1.09375,-1.125 0,-0.265625 0.25,-1.65625 0.65625,-2.265625 0.390625,-0.5625 0.890625,-0.890625 1.5,-0.890625 1.09375,0 1.109375,1.125 1.109375,1.328125 0,0.71875 -0.640625,2.953125 -2.171875,2.953125 z m 0,0"
             id="path11504" />
        </symbol>
        <symbol
           style="overflow:visible"
           overflow="visible"
           id="textext-08de584b-2">
          <path
             inkscape:connector-curvature="0"
             style="stroke:none"
             d="M 0.453125,1.21875 C 0.375,1.5625 0.34375,1.625 -0.09375,1.625 c -0.109375,0 -0.21875,0 -0.21875,0.1875 0,0.078125 0.046875,0.125 0.125,0.125 0.265625,0 0.5625,-0.03125 0.828125,-0.03125 0.34375,0 0.671875,0.03125 1,0.03125 0.046875,0 0.171875,0 0.171875,-0.203125 C 1.8125,1.625 1.71875,1.625 1.578125,1.625 c -0.5,0 -0.5,-0.0625 -0.5,-0.15625 0,-0.125 0.421875,-1.75 0.484375,-2 0.125,0.296875 0.40625,0.640625 0.921875,0.640625 1.15625,0 2.40625,-1.453125 2.40625,-2.921875 0,-0.9375 -0.578125,-1.59375 -1.328125,-1.59375 -0.5,0 -0.984375,0.359375 -1.3125,0.75 -0.09375,-0.546875 -0.53125,-0.75 -0.890625,-0.75 -0.46875,0 -0.65625,0.390625 -0.734375,0.5625 C 0.4375,-3.5 0.3125,-2.90625 0.3125,-2.875 c 0,0.109375 0.09375,0.109375 0.109375,0.109375 0.109375,0 0.109375,-0.015625 0.171875,-0.234375 0.171875,-0.703125 0.375,-1.1875 0.734375,-1.1875 0.171875,0 0.3125,0.078125 0.3125,0.453125 0,0.234375 -0.03125,0.34375 -0.078125,0.515625 z m 1.75,-4.328125 C 2.265625,-3.375 2.546875,-3.65625 2.71875,-3.8125 c 0.359375,-0.296875 0.640625,-0.375 0.8125,-0.375 0.390625,0 0.640625,0.34375 0.640625,0.9375 0,0.59375 -0.328125,1.734375 -0.515625,2.109375 -0.34375,0.703125 -0.8125,1.03125 -1.1875,1.03125 C 1.8125,-0.109375 1.6875,-0.9375 1.6875,-1 c 0,-0.015625 0,-0.03125 0.03125,-0.15625 z m 0,0"
             id="path11507" />
        </symbol>
        <symbol
           style="overflow:visible"
           overflow="visible"
           id="textext-08de584b-3">
          <path
             inkscape:connector-curvature="0"
             style="stroke:none"
             d=""
             id="path11510" />
        </symbol>
        <symbol
           style="overflow:visible"
           overflow="visible"
           id="textext-08de584b-4">
          <path
             inkscape:connector-curvature="0"
             style="stroke:none"
             d="M 1.734375,-0.734375 C 1.671875,-0.5 1.4375,-0.125 1.078125,-0.125 c -0.015625,0 -0.234375,0 -0.375,-0.09375 0.28125,-0.09375 0.3125,-0.34375 0.3125,-0.390625 0,-0.15625 -0.125,-0.25 -0.28125,-0.25 -0.203125,0 -0.40625,0.15625 -0.40625,0.421875 0,0.34375 0.390625,0.5 0.734375,0.5 0.328125,0 0.609375,-0.1875 0.78125,-0.484375 C 2.015625,-0.0625 2.390625,0.0625 2.671875,0.0625 c 0.8125,0 1.234375,-0.859375 1.234375,-1.0625 0,-0.09375 -0.09375,-0.09375 -0.109375,-0.09375 -0.109375,0 -0.109375,0.046875 -0.140625,0.125 -0.140625,0.484375 -0.5625,0.84375 -0.953125,0.84375 -0.28125,0 -0.421875,-0.1875 -0.421875,-0.453125 0,-0.1875 0.171875,-0.8125 0.359375,-1.59375 C 2.78125,-2.703125 3.09375,-2.875 3.328125,-2.875 c 0.015625,0 0.21875,0 0.375,0.09375 -0.21875,0.0625 -0.3125,0.265625 -0.3125,0.390625 0,0.140625 0.125,0.25 0.28125,0.25 0.15625,0 0.390625,-0.125 0.390625,-0.421875 0,-0.390625 -0.453125,-0.515625 -0.71875,-0.515625 -0.359375,0 -0.640625,0.234375 -0.78125,0.5 -0.125,-0.28125 -0.453125,-0.5 -0.84375,-0.5 C 0.9375,-3.078125 0.5,-2.21875 0.5,-2 c 0,0.078125 0.09375,0.078125 0.109375,0.078125 0.09375,0 0.09375,-0.015625 0.140625,-0.109375 C 0.921875,-2.578125 1.359375,-2.875 1.703125,-2.875 1.9375,-2.875 2.125,-2.75 2.125,-2.421875 2.125,-2.28125 2.03125,-1.9375 1.96875,-1.6875 Z m 0,0"
             id="path11513" />
        </symbol>
        <symbol
           style="overflow:visible"
           overflow="visible"
           id="textext-08de584b-5">
          <path
             inkscape:connector-curvature="0"
             style="stroke:none"
             d=""
             id="path11516" />
        </symbol>
        <symbol
           style="overflow:visible"
           overflow="visible"
           id="textext-08de584b-6">
          <path
             inkscape:connector-curvature="0"
             style="stroke:none"
             d="M 1.984375,-3.171875 C 1.984375,-3.3125 1.96875,-3.3125 1.796875,-3.3125 1.453125,-3 0.890625,-3 0.796875,-3 H 0.71875 v 0.21875 h 0.078125 c 0.109375,0 0.4375,-0.015625 0.734375,-0.140625 v 2.5 c 0,0.140625 0,0.203125 -0.53125,0.203125 H 0.75 V 0 c 0.265625,-0.015625 0.71875,-0.015625 1,-0.015625 0.296875,0 0.734375,0 1.015625,0.015625 v -0.21875 h -0.25 c -0.53125,0 -0.53125,-0.0625 -0.53125,-0.203125 z m 0,0"
             id="path11519" />
        </symbol>
        <symbol
           style="overflow:visible"
           overflow="visible"
           id="textext-08de584b-7">
          <path
             inkscape:connector-curvature="0"
             style="stroke:none"
             d=""
             id="path11522" />
        </symbol>
        <symbol
           style="overflow:visible"
           overflow="visible"
           id="textext-08de584b-8">
          <path
             inkscape:connector-curvature="0"
             style="stroke:none"
             d="m 6.84375,-3.265625 c 0.15625,0 0.34375,0 0.34375,-0.1875 C 7.1875,-3.65625 7,-3.65625 6.859375,-3.65625 h -5.96875 c -0.140625,0 -0.328125,0 -0.328125,0.203125 0,0.1875 0.1875,0.1875 0.328125,0.1875 z m 0.015625,1.9375 c 0.140625,0 0.328125,0 0.328125,-0.203125 0,-0.1875 -0.1875,-0.1875 -0.34375,-0.1875 H 0.890625 c -0.140625,0 -0.328125,0 -0.328125,0.1875 0,0.203125 0.1875,0.203125 0.328125,0.203125 z m 0,0"
             id="path11525" />
        </symbol>
        <symbol
           style="overflow:visible"
           overflow="visible"
           id="textext-08de584b-9">
          <path
             inkscape:connector-curvature="0"
             style="stroke:none"
             d="m 4.578125,-3.1875 c 0,-0.796875 -0.046875,-1.59375 -0.390625,-2.328125 -0.453125,-0.96875 -1.28125,-1.125 -1.6875,-1.125 -0.609375,0 -1.328125,0.265625 -1.75,1.1875 -0.3125,0.6875 -0.359375,1.46875 -0.359375,2.265625 0,0.75 0.03125,1.640625 0.453125,2.40625 0.421875,0.796875 1.15625,1 1.640625,1 0.53125,0 1.296875,-0.203125 1.734375,-1.15625 0.3125,-0.6875 0.359375,-1.46875 0.359375,-2.25 z M 2.484375,0 C 2.09375,0 1.5,-0.25 1.328125,-1.203125 1.21875,-1.796875 1.21875,-2.71875 1.21875,-3.3125 c 0,-0.640625 0,-1.296875 0.078125,-1.828125 0.1875,-1.1875 0.9375,-1.28125 1.1875,-1.28125 0.328125,0 0.984375,0.1875 1.171875,1.171875 0.109375,0.5625 0.109375,1.3125 0.109375,1.9375 0,0.75 0,1.421875 -0.109375,2.0625 C 3.5,-0.296875 2.9375,0 2.484375,0 Z m 0,0"
             id="path11528" />
        </symbol>
      </g>
    </defs>
  </defs>
  <metadata
     id="metadata5">
    <rdf:RDF>
      <cc:Work
         rdf:about="">
        <dc:format>image/svg+xml</dc:format>
        <dc:type
           rdf:resource="http://purl.org/dc/dcmitype/StillImage" />
        <dc:title></dc:title>
      </cc:Work>
    </rdf:RDF>
  </metadata>
  <g
     id="layer1"
     inkscape:groupmode="layer"
     inkscape:label="Layer 1"
     transform="translate(-31.086904,-24.468707)">
    <path
       inkscape:connector-curvature="0"
       id="path4485"
       d="M 52.160713,27.880951 V 98.562499 H 142.11905"
       style="fill:none;fill-rule:evenodd;stroke:#000000;stroke-width:0.26499999;stroke-linecap:butt;stroke-linejoin:miter;stroke-miterlimit:4;stroke-dasharray:none;stroke-opacity:1;marker-start:url(#Arrow2Lstart);marker-end:url(#Arrow2Lend)" />
    <text
       id="text4803"
       y="17.108631"
       x="39.498508"
       style="font-style:normal;font-weight:normal;font-size:10.58333302px;line-height:6.61458302px;font-family:Sans;letter-spacing:0px;word-spacing:0px;fill:#000000;fill-opacity:1;stroke:none;stroke-width:0.26458332px;stroke-linecap:butt;stroke-linejoin:miter;stroke-opacity:1"
       xml:space="preserve"><tspan
         style="stroke-width:0.26458332px"
         y="23.16511"
         x="39.498508"
         id="tspan4801"
         sodipodi:role="line" /></text>
    <path
       style="fill:none;fill-rule:evenodd;stroke:#000000;stroke-width:0.26458332px;stroke-linecap:butt;stroke-linejoin:miter;stroke-opacity:1"
       d="m 51.546503,39.928934 h 1.322916"
       id="path5010"
       inkscape:connector-curvature="0" />
    <text
       xml:space="preserve"
       style="font-style:normal;font-weight:normal;font-size:4.14947033px;line-height:2.59341908px;font-family:Sans;letter-spacing:0px;word-spacing:0px;fill:#000000;fill-opacity:1;stroke:none;stroke-width:0.26458332px;stroke-linecap:butt;stroke-linejoin:miter;stroke-opacity:1"
       x="49.282917"
       y="102.16469"
       id="text5014"><tspan
         sodipodi:role="line"
         id="tspan5012"
         x="49.282917"
         y="102.16469"
         style="stroke-width:0.26458332px">0</tspan></text>
    <text
       id="text5022"
       y="104.11942"
       x="124.84179"
       style="font-style:normal;font-weight:normal;font-size:4.14947033px;line-height:2.59341908px;font-family:Sans;letter-spacing:0px;word-spacing:0px;fill:#000000;fill-opacity:1;stroke:none;stroke-width:0.26458332px;stroke-linecap:butt;stroke-linejoin:miter;stroke-opacity:1"
       xml:space="preserve"><tspan
         style="stroke-width:0.26458332px"
         y="104.11942"
         x="124.84179"
         id="tspan5020"
         sodipodi:role="line">1</tspan></text>
    <text
       xml:space="preserve"
       style="font-style:normal;font-weight:normal;font-size:10.58333302px;line-height:6.61458302px;font-family:Sans;letter-spacing:0px;word-spacing:0px;fill:#000000;fill-opacity:1;stroke:none;stroke-width:0.26458332px;stroke-linecap:butt;stroke-linejoin:miter;stroke-opacity:1"
       x="204.86308"
       y="109.90178"
       id="text5030"><tspan
         sodipodi:role="line"
         id="tspan5028"
         x="204.86308"
         y="115.95826"
         style="stroke-width:0.26458332px" /></text>
    <path
       inkscape:connector-curvature="0"
       id="path5175"
       d="m 125.94095,97.883009 v 1.32291"
       style="fill:none;fill-rule:evenodd;stroke:#000000;stroke-width:0.26458332px;stroke-linecap:butt;stroke-linejoin:miter;stroke-opacity:1" />
    <g
       id="g5244"
       style="stroke-width:1.71975064"
       transform="matrix(0.58147965,0,0,0.58147965,-83.583425,-48.251734)"
       ns0:preamble="/home/ajaramillo/Dropbox/preamble.ini"
       ns0:text="$\\hat{z}$">
      <defs
         id="defs5233">
        <g
           id="g5231">
          <symbol
             id="textext-8b26fa5a-0"
             overflow="visible"
             style="overflow:visible">
            <path
               id="path5219"
               d=""
               style="stroke:none"
               inkscape:connector-curvature="0" />
          </symbol>
          <symbol
             id="textext-8b26fa5a-1"
             overflow="visible"
             style="overflow:visible">
            <path
               id="path5222"
               d="M 2.5,-6.921875 1.15625,-5.5625 1.328125,-5.390625 2.5,-6.40625 3.640625,-5.390625 3.8125,-5.5625 Z m 0,0"
               style="stroke:none"
               inkscape:connector-curvature="0" />
          </symbol>
          <symbol
             id="textext-8b26fa5a-2"
             overflow="visible"
             style="overflow:visible">
            <path
               id="path5225"
               d=""
               style="stroke:none"
               inkscape:connector-curvature="0" />
          </symbol>
          <symbol
             id="textext-8b26fa5a-3"
             overflow="visible"
             style="overflow:visible">
            <path
               id="path5228"
               d="m 1.328125,-0.828125 c 0.53125,-0.578125 0.828125,-0.828125 1.1875,-1.140625 0,0 0.609375,-0.53125 0.96875,-0.890625 C 4.4375,-3.78125 4.65625,-4.265625 4.65625,-4.3125 c 0,-0.09375 -0.09375,-0.09375 -0.109375,-0.09375 -0.078125,0 -0.09375,0.015625 -0.15625,0.109375 -0.296875,0.484375 -0.5,0.640625 -0.734375,0.640625 -0.25,0 -0.359375,-0.15625 -0.515625,-0.328125 -0.1875,-0.21875 -0.359375,-0.421875 -0.6875,-0.421875 -0.75,0 -1.203125,0.921875 -1.203125,1.140625 0,0.046875 0.03125,0.109375 0.109375,0.109375 0.09375,0 0.109375,-0.046875 0.140625,-0.109375 0.1875,-0.46875 0.765625,-0.46875 0.84375,-0.46875 0.203125,0 0.390625,0.0625 0.625,0.140625 0.40625,0.15625 0.515625,0.15625 0.765625,0.15625 -0.359375,0.421875 -1.1875,1.140625 -1.375,1.296875 l -0.90625,0.84375 C 0.78125,-0.625 0.421875,-0.0625 0.421875,0.015625 c 0,0.09375 0.109375,0.09375 0.125,0.09375 0.078125,0 0.09375,-0.015625 0.15625,-0.125 0.234375,-0.359375 0.53125,-0.625 0.859375,-0.625 0.21875,0 0.328125,0.09375 0.578125,0.375 0.15625,0.21875 0.34375,0.375 0.625,0.375 1,0 1.578125,-1.265625 1.578125,-1.53125 0,-0.046875 -0.046875,-0.109375 -0.125,-0.109375 -0.09375,0 -0.109375,0.0625 -0.140625,0.140625 C 3.84375,-0.75 3.203125,-0.5625 2.875,-0.5625 c -0.1875,0 -0.375,-0.0625 -0.578125,-0.125 -0.34375,-0.125 -0.5,-0.171875 -0.703125,-0.171875 -0.015625,0 -0.171875,0 -0.265625,0.03125 z m 0,0"
               style="stroke:none"
               inkscape:connector-curvature="0" />
          </symbol>
        </g>
      </defs>
      <g
         id="textext-8b26fa5a-4">
        <g
           id="g5237"
           style="fill:#000000;fill-opacity:1">
          <use
             id="use5235"
             y="134.765"
             x="224.03101"
             xlink:href="#textext-8b26fa5a-1"
             width="100%"
             height="100%" />
        </g>
        <g
           id="g5241"
           style="fill:#000000;fill-opacity:1">
          <use
             id="use5239"
             y="134.765"
             x="223.43201"
             xlink:href="#textext-8b26fa5a-3"
             width="100%"
             height="100%" />
        </g>
      </g>
    </g>
    <g
       ns0:text="$\\hat{u}(\\hat{z})$"
       ns0:preamble="/home/ajaramillo/Dropbox/preamble.ini"
       transform="matrix(0.58147965,0,0,0.58147965,6.5638967,28.099456)"
       style="stroke-width:1.71975064"
       id="g5390">
      <defs
         id="defs5363">
        <g
           id="g5361">
          <symbol
             overflow="visible"
             id="textext-ee682d29-0"
             style="overflow:visible">
            <path
               style="stroke:none"
               d=""
               id="path5340"
               inkscape:connector-curvature="0" />
          </symbol>
          <symbol
             overflow="visible"
             id="textext-ee682d29-1"
             style="overflow:visible">
            <path
               style="stroke:none"
               d="M 2.5,-6.921875 1.15625,-5.5625 1.328125,-5.390625 2.5,-6.40625 3.640625,-5.390625 3.8125,-5.5625 Z m 0,0"
               id="path5343"
               inkscape:connector-curvature="0" />
          </symbol>
          <symbol
             overflow="visible"
             id="textext-ee682d29-2"
             style="overflow:visible">
            <path
               style="stroke:none"
               d="m 3.296875,2.390625 c 0,-0.03125 0,-0.046875 -0.171875,-0.21875 C 1.890625,0.921875 1.5625,-0.96875 1.5625,-2.5 c 0,-1.734375 0.375,-3.46875 1.609375,-4.703125 0.125,-0.125 0.125,-0.140625 0.125,-0.171875 0,-0.078125 -0.03125,-0.109375 -0.09375,-0.109375 -0.109375,0 -1,0.6875 -1.59375,1.953125 -0.5,1.09375 -0.625,2.203125 -0.625,3.03125 0,0.78125 0.109375,1.984375 0.65625,3.125 C 2.25,1.84375 3.09375,2.5 3.203125,2.5 c 0.0625,0 0.09375,-0.03125 0.09375,-0.109375 z m 0,0"
               id="path5346"
               inkscape:connector-curvature="0" />
          </symbol>
          <symbol
             overflow="visible"
             id="textext-ee682d29-3"
             style="overflow:visible">
            <path
               style="stroke:none"
               d="m 2.875,-2.5 c 0,-0.765625 -0.109375,-1.96875 -0.65625,-3.109375 -0.59375,-1.21875 -1.453125,-1.875 -1.546875,-1.875 -0.0625,0 -0.109375,0.046875 -0.109375,0.109375 0,0.03125 0,0.046875 0.1875,0.234375 0.984375,0.984375 1.546875,2.5625 1.546875,4.640625 0,1.71875 -0.359375,3.46875 -1.59375,4.71875 C 0.5625,2.34375 0.5625,2.359375 0.5625,2.390625 0.5625,2.453125 0.609375,2.5 0.671875,2.5 0.765625,2.5 1.671875,1.8125 2.25,0.546875 2.765625,-0.546875 2.875,-1.65625 2.875,-2.5 Z m 0,0"
               id="path5349"
               inkscape:connector-curvature="0" />
          </symbol>
          <symbol
             overflow="visible"
             id="textext-ee682d29-4"
             style="overflow:visible">
            <path
               style="stroke:none"
               d=""
               id="path5352"
               inkscape:connector-curvature="0" />
          </symbol>
          <symbol
             overflow="visible"
             id="textext-ee682d29-5"
             style="overflow:visible">
            <path
               style="stroke:none"
               d="M 3.484375,-0.5625 C 3.59375,-0.15625 3.953125,0.109375 4.375,0.109375 4.71875,0.109375 4.953125,-0.125 5.109375,-0.4375 5.28125,-0.796875 5.40625,-1.40625 5.40625,-1.421875 c 0,-0.109375 -0.078125,-0.109375 -0.109375,-0.109375 -0.109375,0 -0.109375,0.046875 -0.140625,0.1875 -0.140625,0.5625 -0.328125,1.234375 -0.75,1.234375 -0.203125,0 -0.3125,-0.125 -0.3125,-0.453125 0,-0.21875 0.125,-0.6875 0.203125,-1.046875 L 4.578125,-2.6875 C 4.609375,-2.828125 4.703125,-3.203125 4.75,-3.359375 4.796875,-3.59375 4.890625,-3.96875 4.890625,-4.03125 c 0,-0.171875 -0.140625,-0.265625 -0.28125,-0.265625 -0.046875,0 -0.3125,0.015625 -0.390625,0.34375 -0.1875,0.734375 -0.625,2.484375 -0.75,3 -0.015625,0.046875 -0.40625,0.84375 -1.140625,0.84375 -0.515625,0 -0.609375,-0.453125 -0.609375,-0.8125 0,-0.5625 0.28125,-1.34375 0.53125,-2.03125 0.125,-0.3125 0.171875,-0.453125 0.171875,-0.640625 0,-0.4375 -0.3125,-0.8125 -0.8125,-0.8125 -0.953125,0 -1.3125,1.453125 -1.3125,1.53125 0,0.109375 0.09375,0.109375 0.109375,0.109375 0.109375,0 0.109375,-0.03125 0.15625,-0.1875 0.25,-0.859375 0.640625,-1.234375 1.015625,-1.234375 0.09375,0 0.25,0.015625 0.25,0.328125 0,0.234375 -0.109375,0.53125 -0.171875,0.671875 -0.375,1 -0.578125,1.609375 -0.578125,2.09375 0,0.953125 0.6875,1.203125 1.21875,1.203125 0.65625,0 1.015625,-0.453125 1.1875,-0.671875 z m 0,0"
               id="path5355"
               inkscape:connector-curvature="0" />
          </symbol>
          <symbol
             overflow="visible"
             id="textext-ee682d29-6"
             style="overflow:visible">
            <path
               style="stroke:none"
               d="m 1.328125,-0.828125 c 0.53125,-0.578125 0.828125,-0.828125 1.1875,-1.140625 0,0 0.609375,-0.53125 0.96875,-0.890625 C 4.4375,-3.78125 4.65625,-4.265625 4.65625,-4.3125 c 0,-0.09375 -0.09375,-0.09375 -0.109375,-0.09375 -0.078125,0 -0.09375,0.015625 -0.15625,0.109375 -0.296875,0.484375 -0.5,0.640625 -0.734375,0.640625 -0.25,0 -0.359375,-0.15625 -0.515625,-0.328125 -0.1875,-0.21875 -0.359375,-0.421875 -0.6875,-0.421875 -0.75,0 -1.203125,0.921875 -1.203125,1.140625 0,0.046875 0.03125,0.109375 0.109375,0.109375 0.09375,0 0.109375,-0.046875 0.140625,-0.109375 0.1875,-0.46875 0.765625,-0.46875 0.84375,-0.46875 0.203125,0 0.390625,0.0625 0.625,0.140625 0.40625,0.15625 0.515625,0.15625 0.765625,0.15625 -0.359375,0.421875 -1.1875,1.140625 -1.375,1.296875 l -0.90625,0.84375 C 0.78125,-0.625 0.421875,-0.0625 0.421875,0.015625 c 0,0.09375 0.109375,0.09375 0.125,0.09375 0.078125,0 0.09375,-0.015625 0.15625,-0.125 0.234375,-0.359375 0.53125,-0.625 0.859375,-0.625 0.21875,0 0.328125,0.09375 0.578125,0.375 0.15625,0.21875 0.34375,0.375 0.625,0.375 1,0 1.578125,-1.265625 1.578125,-1.53125 0,-0.046875 -0.046875,-0.109375 -0.125,-0.109375 -0.09375,0 -0.109375,0.0625 -0.140625,0.140625 C 3.84375,-0.75 3.203125,-0.5625 2.875,-0.5625 c -0.1875,0 -0.375,-0.0625 -0.578125,-0.125 -0.34375,-0.125 -0.5,-0.171875 -0.703125,-0.171875 -0.015625,0 -0.171875,0 -0.265625,0.03125 z m 0,0"
               id="path5358"
               inkscape:connector-curvature="0" />
          </symbol>
        </g>
      </defs>
      <g
         id="textext-ee682d29-7">
        <g
           style="fill:#000000;fill-opacity:1"
           id="g5367">
          <use
             xlink:href="#textext-ee682d29-1"
             x="224.07001"
             y="134.765"
             id="use5365"
             width="100%"
             height="100%" />
        </g>
        <g
           style="fill:#000000;fill-opacity:1"
           id="g5371">
          <use
             xlink:href="#textext-ee682d29-5"
             x="223.43201"
             y="134.765"
             id="use5369"
             width="100%"
             height="100%" />
        </g>
        <g
           style="fill:#000000;fill-opacity:1"
           id="g5375">
          <use
             xlink:href="#textext-ee682d29-2"
             x="229.13499"
             y="134.765"
             id="use5373"
             width="100%"
             height="100%" />
        </g>
        <g
           style="fill:#000000;fill-opacity:1"
           id="g5379">
          <use
             xlink:href="#textext-ee682d29-1"
             x="233.60721"
             y="134.765"
             id="use5377"
             width="100%"
             height="100%" />
        </g>
        <g
           style="fill:#000000;fill-opacity:1"
           id="g5383">
          <use
             xlink:href="#textext-ee682d29-6"
             x="233.00999"
             y="134.765"
             id="use5381"
             width="100%"
             height="100%" />
        </g>
        <g
           style="fill:#000000;fill-opacity:1"
           id="g5387">
          <use
             xlink:href="#textext-ee682d29-3"
             x="238.08099"
             y="134.765"
             id="use5385"
             width="100%"
             height="100%" />
        </g>
      </g>
    </g>
    <text
       xml:space="preserve"
       style="font-style:normal;font-weight:normal;font-size:4.14947033px;line-height:2.59341908px;font-family:Sans;letter-spacing:0px;word-spacing:0px;fill:#000000;fill-opacity:1;stroke:none;stroke-width:0.26458332px;stroke-linecap:butt;stroke-linejoin:miter;stroke-opacity:1"
       x="47.734646"
       y="40.997398"
       id="text5460"><tspan
         sodipodi:role="line"
         id="tspan5458"
         x="47.734646"
         y="40.997398"
         style="stroke-width:0.26458332px">1</tspan></text>
    <path
       inkscape:connector-curvature="0"
       id="path5462"
       d="m 52.13709,39.952556 73.79985,58.598122"
       style="fill:none;fill-rule:evenodd;stroke:#000000;stroke-width:0.4;stroke-linecap:butt;stroke-linejoin:miter;stroke-miterlimit:4;stroke-dasharray:none;stroke-opacity:1" />
    <path
       sodipodi:nodetypes="cac"
       style="fill:none;fill-rule:evenodd;stroke:#000000;stroke-width:0.1;stroke-linecap:butt;stroke-linejoin:miter;stroke-miterlimit:4;stroke-dasharray:none;stroke-opacity:1"
       d="m 52.13709,39.952556 c 0,0 48.9519,13.955636 64.82959,32.105391 6.13876,7.017207 8.97026,26.492731 8.97026,26.492731"
       id="path5464"
       inkscape:connector-curvature="0" />
    <path
       inkscape:connector-curvature="0"
       id="path5466"
       d="m 52.13709,39.952556 c 0,0 -19.150765,19.261896 -14.950363,29.432696 11.886557,28.781958 88.750213,29.165426 88.750213,29.165426"
       style="fill:none;fill-rule:evenodd;stroke:#000000;stroke-width:0.1;stroke-linecap:butt;stroke-linejoin:miter;stroke-miterlimit:4;stroke-dasharray:none;stroke-opacity:1"
       sodipodi:nodetypes="cac" />
    <path
       sodipodi:nodetypes="cac"
       style="fill:none;fill-rule:evenodd;stroke:#000000;stroke-width:0.1;stroke-linecap:butt;stroke-linejoin:miter;stroke-miterlimit:4;stroke-dasharray:none;stroke-opacity:1"
       d="m 52.13709,39.952556 c 0,0 2.704749,22.677411 9.905703,30.635409 15.598659,17.238561 63.894147,27.962713 63.894147,27.962713"
       id="path5468"
       inkscape:connector-curvature="0" />
    <path
       inkscape:connector-curvature="0"
       id="path5470"
       d="M 45.262649,46.16554 H 41.388392"
       style="fill:none;fill-rule:evenodd;stroke:#000000;stroke-width:0.26458332px;stroke-linecap:butt;stroke-linejoin:miter;stroke-opacity:1;marker-end:url(#Arrow1Send)" />
    <path
       style="fill:none;fill-rule:evenodd;stroke:#000000;stroke-width:0.26458332px;stroke-linecap:butt;stroke-linejoin:miter;stroke-opacity:1;marker-end:url(#marker5510)"
       d="M 36.758185,57.174098 H 32.883928"
       id="path5506"
       inkscape:connector-curvature="0" />
    <path
       inkscape:connector-curvature="0"
       id="path5792"
       d="M 38.931549,74.655495 H 35.057292"
       style="fill:none;fill-rule:evenodd;stroke:#000000;stroke-width:0.26458332px;stroke-linecap:butt;stroke-linejoin:miter;stroke-opacity:1;marker-end:url(#marker5796)" />
    <path
       style="fill:none;fill-rule:evenodd;stroke:#000000;stroke-width:0.26458332px;stroke-linecap:butt;stroke-linejoin:miter;stroke-opacity:1;marker-end:url(#marker6204)"
       d="m 60.835366,90.152519 h 3.874257"
       id="path6200"
       inkscape:connector-curvature="0" />
    <path
       style="fill:none;fill-rule:evenodd;stroke:#000000;stroke-width:0.26458332px;stroke-linecap:butt;stroke-linejoin:miter;stroke-opacity:1;marker-end:url(#marker7710)"
       d="m 88.541022,90.152519 h 3.87426"
       id="path7706"
       inkscape:connector-curvature="0" />
    <path
       style="fill:none;fill-rule:evenodd;stroke:#000000;stroke-width:0.26458332px;stroke-linecap:butt;stroke-linejoin:miter;stroke-opacity:1;marker-end:url(#marker8342)"
       d="m 61.043255,74.655495 h 3.87426"
       id="path8338"
       inkscape:connector-curvature="0" />
    <path
       inkscape:connector-curvature="0"
       id="path8684"
       d="m 55.127926,46.16554 h 3.87426"
       style="fill:none;fill-rule:evenodd;stroke:#000000;stroke-width:0.26458332px;stroke-linecap:butt;stroke-linejoin:miter;stroke-opacity:1;marker-end:url(#marker8688)" />
    <path
       style="fill:none;fill-rule:evenodd;stroke:#000000;stroke-width:0.26458332px;stroke-linecap:butt;stroke-linejoin:miter;stroke-opacity:1;marker-end:url(#marker8964)"
       d="m 68.602779,57.174098 h 3.87426"
       id="path8960"
       inkscape:connector-curvature="0" />
    <path
       style="fill:none;fill-rule:evenodd;stroke:#000000;stroke-width:0.26458332px;stroke-linecap:butt;stroke-linejoin:miter;stroke-opacity:1;marker-end:url(#marker9744)"
       d="m 119.62956,74.655495 h 3.87426"
       id="path9740"
       inkscape:connector-curvature="0" />
    <path
       inkscape:connector-curvature="0"
       id="path9944"
       d="m 125.01573,90.152519 h 3.87426"
       style="fill:none;fill-rule:evenodd;stroke:#000000;stroke-width:0.26458332px;stroke-linecap:butt;stroke-linejoin:miter;stroke-opacity:1;marker-end:url(#marker9948)" />
    <path
       style="fill:none;fill-rule:evenodd;stroke:#000000;stroke-width:0.26458332px;stroke-linecap:butt;stroke-linejoin:miter;stroke-opacity:1;marker-end:url(#marker10436)"
       d="m 99.502333,57.174098 h 3.874257"
       id="path10432"
       inkscape:connector-curvature="0" />
    <path
       inkscape:connector-curvature="0"
       id="path10874"
       d="m 73.232988,46.16554 h 3.874256"
       style="fill:none;fill-rule:evenodd;stroke:#000000;stroke-width:0.26458332px;stroke-linecap:butt;stroke-linejoin:miter;stroke-opacity:1;marker-end:url(#marker10878)" />
    <g
       style="stroke-width:2.70331287"
       id="g12582"
       transform="matrix(0.27644071,0.24580223,-0.24580223,0.27644071,79.971366,-30.577477)"
       ns0:preamble="/home/ajaramillo/Dropbox/preamble.ini"
       ns0:text="$\\partial_{x_1} p  &lt; 0$">
      <defs
         id="defs12554">
        <g
           id="g12552">
          <symbol
             style="overflow:visible"
             id="symbol12514"
             overflow="visible">
            <path
               inkscape:connector-curvature="0"
               id="path12512"
               d=""
               style="stroke:none" />
          </symbol>
          <symbol
             style="overflow:visible"
             id="symbol12518"
             overflow="visible">
            <path
               inkscape:connector-curvature="0"
               id="path12516"
               d="m 4.609375,-3.375 c -0.09375,-0.625 -0.5,-1.1875 -1.28125,-1.1875 -0.609375,0 -1.25,0.171875 -2.03125,0.9375 -0.828125,0.828125 -0.890625,1.765625 -0.890625,2.0625 0,0.625 0.4375,1.78125 1.828125,1.78125 2.375,0 3.40625,-3.34375 3.40625,-4.78125 0,-1.578125 -0.921875,-2.578125 -2.15625,-2.578125 -1.4375,0 -1.90625,1.296875 -1.90625,1.578125 0,0.140625 0.09375,0.34375 0.390625,0.34375 0.328125,0 0.53125,-0.296875 0.53125,-0.515625 0,-0.359375 -0.3125,-0.359375 -0.46875,-0.359375 0.4375,-0.734375 1.15625,-0.796875 1.4375,-0.796875 0.734375,0 1.421875,0.515625 1.421875,1.8125 0,0.390625 -0.0625,0.890625 -0.265625,1.703125 z m -2.34375,3.3125 c -1.09375,0 -1.09375,-1.03125 -1.09375,-1.125 0,-0.265625 0.25,-1.65625 0.65625,-2.265625 0.390625,-0.5625 0.890625,-0.890625 1.5,-0.890625 1.09375,0 1.109375,1.125 1.109375,1.328125 0,0.71875 -0.640625,2.953125 -2.171875,2.953125 z m 0,0"
               style="stroke:none" />
          </symbol>
          <symbol
             style="overflow:visible"
             id="symbol12522"
             overflow="visible">
            <path
               inkscape:connector-curvature="0"
               id="path12520"
               d="M 0.453125,1.21875 C 0.375,1.5625 0.34375,1.625 -0.09375,1.625 c -0.109375,0 -0.21875,0 -0.21875,0.1875 0,0.078125 0.046875,0.125 0.125,0.125 0.265625,0 0.5625,-0.03125 0.828125,-0.03125 0.34375,0 0.671875,0.03125 1,0.03125 0.046875,0 0.171875,0 0.171875,-0.203125 C 1.8125,1.625 1.71875,1.625 1.578125,1.625 c -0.5,0 -0.5,-0.0625 -0.5,-0.15625 0,-0.125 0.421875,-1.75 0.484375,-2 0.125,0.296875 0.40625,0.640625 0.921875,0.640625 1.15625,0 2.40625,-1.453125 2.40625,-2.921875 0,-0.9375 -0.578125,-1.59375 -1.328125,-1.59375 -0.5,0 -0.984375,0.359375 -1.3125,0.75 -0.09375,-0.546875 -0.53125,-0.75 -0.890625,-0.75 -0.46875,0 -0.65625,0.390625 -0.734375,0.5625 C 0.4375,-3.5 0.3125,-2.90625 0.3125,-2.875 c 0,0.109375 0.09375,0.109375 0.109375,0.109375 0.109375,0 0.109375,-0.015625 0.171875,-0.234375 0.171875,-0.703125 0.375,-1.1875 0.734375,-1.1875 0.171875,0 0.3125,0.078125 0.3125,0.453125 0,0.234375 -0.03125,0.34375 -0.078125,0.515625 z m 1.75,-4.328125 C 2.265625,-3.375 2.546875,-3.65625 2.71875,-3.8125 c 0.359375,-0.296875 0.640625,-0.375 0.8125,-0.375 0.390625,0 0.640625,0.34375 0.640625,0.9375 0,0.59375 -0.328125,1.734375 -0.515625,2.109375 -0.34375,0.703125 -0.8125,1.03125 -1.1875,1.03125 C 1.8125,-0.109375 1.6875,-0.9375 1.6875,-1 c 0,-0.015625 0,-0.03125 0.03125,-0.15625 z m 0,0"
               style="stroke:none" />
          </symbol>
          <symbol
             style="overflow:visible"
             id="symbol12526"
             overflow="visible">
            <path
               inkscape:connector-curvature="0"
               id="path12524"
               d="m 6.734375,-4.96875 c 0.109375,-0.0625 0.1875,-0.109375 0.1875,-0.21875 0,-0.109375 -0.09375,-0.203125 -0.203125,-0.203125 -0.03125,0 -0.046875,0 -0.171875,0.078125 l -5.53125,2.59375 c -0.109375,0.0625 -0.1875,0.109375 -0.1875,0.21875 0,0.125 0.078125,0.171875 0.1875,0.234375 l 5.53125,2.59375 C 6.671875,0.40625 6.6875,0.40625 6.71875,0.40625 c 0.109375,0 0.203125,-0.09375 0.203125,-0.203125 0,-0.109375 -0.078125,-0.15625 -0.1875,-0.21875 L 1.5,-2.5 Z m 0,0"
               style="stroke:none" />
          </symbol>
          <symbol
             style="overflow:visible"
             id="symbol12530"
             overflow="visible">
            <path
               inkscape:connector-curvature="0"
               id="path12528"
               d=""
               style="stroke:none" />
          </symbol>
          <symbol
             style="overflow:visible"
             id="symbol12534"
             overflow="visible">
            <path
               inkscape:connector-curvature="0"
               id="path12532"
               d="M 1.734375,-0.734375 C 1.671875,-0.5 1.4375,-0.125 1.078125,-0.125 c -0.015625,0 -0.234375,0 -0.375,-0.09375 0.28125,-0.09375 0.3125,-0.34375 0.3125,-0.390625 0,-0.15625 -0.125,-0.25 -0.28125,-0.25 -0.203125,0 -0.40625,0.15625 -0.40625,0.421875 0,0.34375 0.390625,0.5 0.734375,0.5 0.328125,0 0.609375,-0.1875 0.78125,-0.484375 C 2.015625,-0.0625 2.390625,0.0625 2.671875,0.0625 c 0.8125,0 1.234375,-0.859375 1.234375,-1.0625 0,-0.09375 -0.09375,-0.09375 -0.109375,-0.09375 -0.109375,0 -0.109375,0.046875 -0.140625,0.125 -0.140625,0.484375 -0.5625,0.84375 -0.953125,0.84375 -0.28125,0 -0.421875,-0.1875 -0.421875,-0.453125 0,-0.1875 0.171875,-0.8125 0.359375,-1.59375 C 2.78125,-2.703125 3.09375,-2.875 3.328125,-2.875 c 0.015625,0 0.21875,0 0.375,0.09375 -0.21875,0.0625 -0.3125,0.265625 -0.3125,0.390625 0,0.140625 0.125,0.25 0.28125,0.25 0.15625,0 0.390625,-0.125 0.390625,-0.421875 0,-0.390625 -0.453125,-0.515625 -0.71875,-0.515625 -0.359375,0 -0.640625,0.234375 -0.78125,0.5 -0.125,-0.28125 -0.453125,-0.5 -0.84375,-0.5 C 0.9375,-3.078125 0.5,-2.21875 0.5,-2 c 0,0.078125 0.09375,0.078125 0.109375,0.078125 0.09375,0 0.09375,-0.015625 0.140625,-0.109375 C 0.921875,-2.578125 1.359375,-2.875 1.703125,-2.875 1.9375,-2.875 2.125,-2.75 2.125,-2.421875 2.125,-2.28125 2.03125,-1.9375 1.96875,-1.6875 Z m 0,0"
               style="stroke:none" />
          </symbol>
          <symbol
             style="overflow:visible"
             id="symbol12538"
             overflow="visible">
            <path
               inkscape:connector-curvature="0"
               id="path12536"
               d=""
               style="stroke:none" />
          </symbol>
          <symbol
             style="overflow:visible"
             id="symbol12542"
             overflow="visible">
            <path
               inkscape:connector-curvature="0"
               id="path12540"
               d="M 1.984375,-3.171875 C 1.984375,-3.3125 1.96875,-3.3125 1.796875,-3.3125 1.453125,-3 0.890625,-3 0.796875,-3 H 0.71875 v 0.21875 h 0.078125 c 0.109375,0 0.4375,-0.015625 0.734375,-0.140625 v 2.5 c 0,0.140625 0,0.203125 -0.53125,0.203125 H 0.75 V 0 c 0.265625,-0.015625 0.71875,-0.015625 1,-0.015625 0.296875,0 0.734375,0 1.015625,0.015625 v -0.21875 h -0.25 c -0.53125,0 -0.53125,-0.0625 -0.53125,-0.203125 z m 0,0"
               style="stroke:none" />
          </symbol>
          <symbol
             style="overflow:visible"
             id="symbol12546"
             overflow="visible">
            <path
               inkscape:connector-curvature="0"
               id="path12544"
               d=""
               style="stroke:none" />
          </symbol>
          <symbol
             style="overflow:visible"
             id="symbol12550"
             overflow="visible">
            <path
               inkscape:connector-curvature="0"
               id="path12548"
               d="m 4.578125,-3.1875 c 0,-0.796875 -0.046875,-1.59375 -0.390625,-2.328125 -0.453125,-0.96875 -1.28125,-1.125 -1.6875,-1.125 -0.609375,0 -1.328125,0.265625 -1.75,1.1875 -0.3125,0.6875 -0.359375,1.46875 -0.359375,2.265625 0,0.75 0.03125,1.640625 0.453125,2.40625 0.421875,0.796875 1.15625,1 1.640625,1 0.53125,0 1.296875,-0.203125 1.734375,-1.15625 0.3125,-0.6875 0.359375,-1.46875 0.359375,-2.25 z M 2.484375,0 C 2.09375,0 1.5,-0.25 1.328125,-1.203125 1.21875,-1.796875 1.21875,-2.71875 1.21875,-3.3125 c 0,-0.640625 0,-1.296875 0.078125,-1.828125 0.1875,-1.1875 0.9375,-1.28125 1.1875,-1.28125 0.328125,0 0.984375,0.1875 1.171875,1.171875 0.109375,0.5625 0.109375,1.3125 0.109375,1.9375 0,0.75 0,1.421875 -0.109375,2.0625 C 3.5,-0.296875 2.9375,0 2.484375,0 Z m 0,0"
               style="stroke:none" />
          </symbol>
        </g>
      </defs>
      <g
         id="g12580"
         style="stroke-width:2.70331287">
        <g
           id="g12558"
           style="fill:#000000;fill-opacity:1;stroke-width:2.70331287">
          <g
             transform="translate(223.43201,134.765)"
             id="use12556"
             style="stroke-width:2.70331287">
            <path
               inkscape:connector-curvature="0"
               id="path13774"
               d="m 4.609375,-3.375 c -0.09375,-0.625 -0.5,-1.1875 -1.28125,-1.1875 -0.609375,0 -1.25,0.171875 -2.03125,0.9375 -0.828125,0.828125 -0.890625,1.765625 -0.890625,2.0625 0,0.625 0.4375,1.78125 1.828125,1.78125 2.375,0 3.40625,-3.34375 3.40625,-4.78125 0,-1.578125 -0.921875,-2.578125 -2.15625,-2.578125 -1.4375,0 -1.90625,1.296875 -1.90625,1.578125 0,0.140625 0.09375,0.34375 0.390625,0.34375 0.328125,0 0.53125,-0.296875 0.53125,-0.515625 0,-0.359375 -0.3125,-0.359375 -0.46875,-0.359375 0.4375,-0.734375 1.15625,-0.796875 1.4375,-0.796875 0.734375,0 1.421875,0.515625 1.421875,1.8125 0,0.390625 -0.0625,0.890625 -0.265625,1.703125 z m -2.34375,3.3125 c -1.09375,0 -1.09375,-1.03125 -1.09375,-1.125 0,-0.265625 0.25,-1.65625 0.65625,-2.265625 0.390625,-0.5625 0.890625,-0.890625 1.5,-0.890625 1.09375,0 1.109375,1.125 1.109375,1.328125 0,0.71875 -0.640625,2.953125 -2.171875,2.953125 z m 0,0"
               style="stroke:none;stroke-width:2.70331287" />
          </g>
        </g>
        <g
           id="g12562"
           style="fill:#000000;fill-opacity:1;stroke-width:2.70331287">
          <g
             transform="translate(228.72099,136.259)"
             id="use12560"
             style="stroke-width:2.70331287">
            <path
               inkscape:connector-curvature="0"
               id="path13798"
               d="M 1.734375,-0.734375 C 1.671875,-0.5 1.4375,-0.125 1.078125,-0.125 c -0.015625,0 -0.234375,0 -0.375,-0.09375 0.28125,-0.09375 0.3125,-0.34375 0.3125,-0.390625 0,-0.15625 -0.125,-0.25 -0.28125,-0.25 -0.203125,0 -0.40625,0.15625 -0.40625,0.421875 0,0.34375 0.390625,0.5 0.734375,0.5 0.328125,0 0.609375,-0.1875 0.78125,-0.484375 C 2.015625,-0.0625 2.390625,0.0625 2.671875,0.0625 c 0.8125,0 1.234375,-0.859375 1.234375,-1.0625 0,-0.09375 -0.09375,-0.09375 -0.109375,-0.09375 -0.109375,0 -0.109375,0.046875 -0.140625,0.125 -0.140625,0.484375 -0.5625,0.84375 -0.953125,0.84375 -0.28125,0 -0.421875,-0.1875 -0.421875,-0.453125 0,-0.1875 0.171875,-0.8125 0.359375,-1.59375 C 2.78125,-2.703125 3.09375,-2.875 3.328125,-2.875 c 0.015625,0 0.21875,0 0.375,0.09375 -0.21875,0.0625 -0.3125,0.265625 -0.3125,0.390625 0,0.140625 0.125,0.25 0.28125,0.25 0.15625,0 0.390625,-0.125 0.390625,-0.421875 0,-0.390625 -0.453125,-0.515625 -0.71875,-0.515625 -0.359375,0 -0.640625,0.234375 -0.78125,0.5 -0.125,-0.28125 -0.453125,-0.5 -0.84375,-0.5 C 0.9375,-3.078125 0.5,-2.21875 0.5,-2 c 0,0.078125 0.09375,0.078125 0.109375,0.078125 0.09375,0 0.09375,-0.015625 0.140625,-0.109375 C 0.921875,-2.578125 1.359375,-2.875 1.703125,-2.875 1.9375,-2.875 2.125,-2.75 2.125,-2.421875 2.125,-2.28125 2.03125,-1.9375 1.96875,-1.6875 Z m 0,0"
               style="stroke:none;stroke-width:2.70331287" />
          </g>
        </g>
        <g
           id="g12566"
           style="fill:#000000;fill-opacity:1;stroke-width:2.70331287">
          <g
             transform="translate(233.239,137.256)"
             id="use12564"
             style="stroke-width:2.70331287">
            <path
               inkscape:connector-curvature="0"
               id="path13806"
               d="M 1.984375,-3.171875 C 1.984375,-3.3125 1.96875,-3.3125 1.796875,-3.3125 1.453125,-3 0.890625,-3 0.796875,-3 H 0.71875 v 0.21875 h 0.078125 c 0.109375,0 0.4375,-0.015625 0.734375,-0.140625 v 2.5 c 0,0.140625 0,0.203125 -0.53125,0.203125 H 0.75 V 0 c 0.265625,-0.015625 0.71875,-0.015625 1,-0.015625 0.296875,0 0.734375,0 1.015625,0.015625 v -0.21875 h -0.25 c -0.53125,0 -0.53125,-0.0625 -0.53125,-0.203125 z m 0,0"
               style="stroke:none;stroke-width:2.70331287" />
          </g>
        </g>
        <g
           id="g12570"
           style="fill:#000000;fill-opacity:1;stroke-width:2.70331287">
          <g
             transform="translate(237.625,134.765)"
             id="use12568"
             style="stroke-width:2.70331287">
            <path
               inkscape:connector-curvature="0"
               id="path13782"
               d="M 0.453125,1.21875 C 0.375,1.5625 0.34375,1.625 -0.09375,1.625 c -0.109375,0 -0.21875,0 -0.21875,0.1875 0,0.078125 0.046875,0.125 0.125,0.125 0.265625,0 0.5625,-0.03125 0.828125,-0.03125 0.34375,0 0.671875,0.03125 1,0.03125 0.046875,0 0.171875,0 0.171875,-0.203125 C 1.8125,1.625 1.71875,1.625 1.578125,1.625 c -0.5,0 -0.5,-0.0625 -0.5,-0.15625 0,-0.125 0.421875,-1.75 0.484375,-2 0.125,0.296875 0.40625,0.640625 0.921875,0.640625 1.15625,0 2.40625,-1.453125 2.40625,-2.921875 0,-0.9375 -0.578125,-1.59375 -1.328125,-1.59375 -0.5,0 -0.984375,0.359375 -1.3125,0.75 -0.09375,-0.546875 -0.53125,-0.75 -0.890625,-0.75 -0.46875,0 -0.65625,0.390625 -0.734375,0.5625 C 0.4375,-3.5 0.3125,-2.90625 0.3125,-2.875 c 0,0.109375 0.09375,0.109375 0.109375,0.109375 0.109375,0 0.109375,-0.015625 0.171875,-0.234375 0.171875,-0.703125 0.375,-1.1875 0.734375,-1.1875 0.171875,0 0.3125,0.078125 0.3125,0.453125 0,0.234375 -0.03125,0.34375 -0.078125,0.515625 z m 1.75,-4.328125 C 2.265625,-3.375 2.546875,-3.65625 2.71875,-3.8125 c 0.359375,-0.296875 0.640625,-0.375 0.8125,-0.375 0.390625,0 0.640625,0.34375 0.640625,0.9375 0,0.59375 -0.328125,1.734375 -0.515625,2.109375 -0.34375,0.703125 -0.8125,1.03125 -1.1875,1.03125 C 1.8125,-0.109375 1.6875,-0.9375 1.6875,-1 c 0,-0.015625 0,-0.03125 0.03125,-0.15625 z m 0,0"
               style="stroke:none;stroke-width:2.70331287" />
          </g>
        </g>
        <g
           id="g12574"
           style="fill:#000000;fill-opacity:1;stroke-width:2.70331287">
          <g
             transform="translate(245.40678,134.765)"
             id="use12572"
             style="stroke-width:2.70331287">
            <path
               inkscape:connector-curvature="0"
               id="path13790"
               d="m 6.734375,-4.96875 c 0.109375,-0.0625 0.1875,-0.109375 0.1875,-0.21875 0,-0.109375 -0.09375,-0.203125 -0.203125,-0.203125 -0.03125,0 -0.046875,0 -0.171875,0.078125 l -5.53125,2.59375 c -0.109375,0.0625 -0.1875,0.109375 -0.1875,0.21875 0,0.125 0.078125,0.171875 0.1875,0.234375 l 5.53125,2.59375 C 6.671875,0.40625 6.6875,0.40625 6.71875,0.40625 c 0.109375,0 0.203125,-0.09375 0.203125,-0.203125 0,-0.109375 -0.078125,-0.15625 -0.1875,-0.21875 L 1.5,-2.5 Z m 0,0"
               style="stroke:none;stroke-width:2.70331287" />
          </g>
        </g>
        <g
           id="g12578"
           style="fill:#000000;fill-opacity:1;stroke-width:2.70331287">
          <g
             transform="translate(255.92101,134.765)"
             id="use12576"
             style="stroke-width:2.70331287">
            <path
               inkscape:connector-curvature="0"
               id="path13814"
               d="m 4.578125,-3.1875 c 0,-0.796875 -0.046875,-1.59375 -0.390625,-2.328125 -0.453125,-0.96875 -1.28125,-1.125 -1.6875,-1.125 -0.609375,0 -1.328125,0.265625 -1.75,1.1875 -0.3125,0.6875 -0.359375,1.46875 -0.359375,2.265625 0,0.75 0.03125,1.640625 0.453125,2.40625 0.421875,0.796875 1.15625,1 1.640625,1 0.53125,0 1.296875,-0.203125 1.734375,-1.15625 0.3125,-0.6875 0.359375,-1.46875 0.359375,-2.25 z M 2.484375,0 C 2.09375,0 1.5,-0.25 1.328125,-1.203125 1.21875,-1.796875 1.21875,-2.71875 1.21875,-3.3125 c 0,-0.640625 0,-1.296875 0.078125,-1.828125 0.1875,-1.1875 0.9375,-1.28125 1.1875,-1.28125 0.328125,0 0.984375,0.1875 1.171875,1.171875 0.109375,0.5625 0.109375,1.3125 0.109375,1.9375 0,0.75 0,1.421875 -0.109375,2.0625 C 3.5,-0.296875 2.9375,0 2.484375,0 Z m 0,0"
               style="stroke:none;stroke-width:2.70331287" />
          </g>
        </g>
      </g>
    </g>
    <g
       style="stroke-width:3.7254777"
       ns0:text="$\\partial_{x_1} p  = 0$"
       ns0:preamble="/home/ajaramillo/Dropbox/preamble.ini"
       transform="matrix(0.26842195,0,0,0.26842195,68.44098,32.374493)"
       id="g13105">
      <defs
         id="defs13077">
        <g
           id="g13075">
          <symbol
             overflow="visible"
             id="symbol13037"
             style="overflow:visible">
            <path
               style="stroke:none"
               d=""
               id="path13035"
               inkscape:connector-curvature="0" />
          </symbol>
          <symbol
             overflow="visible"
             id="symbol13041"
             style="overflow:visible">
            <path
               style="stroke:none"
               d="m 4.609375,-3.375 c -0.09375,-0.625 -0.5,-1.1875 -1.28125,-1.1875 -0.609375,0 -1.25,0.171875 -2.03125,0.9375 -0.828125,0.828125 -0.890625,1.765625 -0.890625,2.0625 0,0.625 0.4375,1.78125 1.828125,1.78125 2.375,0 3.40625,-3.34375 3.40625,-4.78125 0,-1.578125 -0.921875,-2.578125 -2.15625,-2.578125 -1.4375,0 -1.90625,1.296875 -1.90625,1.578125 0,0.140625 0.09375,0.34375 0.390625,0.34375 0.328125,0 0.53125,-0.296875 0.53125,-0.515625 0,-0.359375 -0.3125,-0.359375 -0.46875,-0.359375 0.4375,-0.734375 1.15625,-0.796875 1.4375,-0.796875 0.734375,0 1.421875,0.515625 1.421875,1.8125 0,0.390625 -0.0625,0.890625 -0.265625,1.703125 z m -2.34375,3.3125 c -1.09375,0 -1.09375,-1.03125 -1.09375,-1.125 0,-0.265625 0.25,-1.65625 0.65625,-2.265625 0.390625,-0.5625 0.890625,-0.890625 1.5,-0.890625 1.09375,0 1.109375,1.125 1.109375,1.328125 0,0.71875 -0.640625,2.953125 -2.171875,2.953125 z m 0,0"
               id="path13039"
               inkscape:connector-curvature="0" />
          </symbol>
          <symbol
             overflow="visible"
             id="symbol13045"
             style="overflow:visible">
            <path
               style="stroke:none"
               d="M 0.453125,1.21875 C 0.375,1.5625 0.34375,1.625 -0.09375,1.625 c -0.109375,0 -0.21875,0 -0.21875,0.1875 0,0.078125 0.046875,0.125 0.125,0.125 0.265625,0 0.5625,-0.03125 0.828125,-0.03125 0.34375,0 0.671875,0.03125 1,0.03125 0.046875,0 0.171875,0 0.171875,-0.203125 C 1.8125,1.625 1.71875,1.625 1.578125,1.625 c -0.5,0 -0.5,-0.0625 -0.5,-0.15625 0,-0.125 0.421875,-1.75 0.484375,-2 0.125,0.296875 0.40625,0.640625 0.921875,0.640625 1.15625,0 2.40625,-1.453125 2.40625,-2.921875 0,-0.9375 -0.578125,-1.59375 -1.328125,-1.59375 -0.5,0 -0.984375,0.359375 -1.3125,0.75 -0.09375,-0.546875 -0.53125,-0.75 -0.890625,-0.75 -0.46875,0 -0.65625,0.390625 -0.734375,0.5625 C 0.4375,-3.5 0.3125,-2.90625 0.3125,-2.875 c 0,0.109375 0.09375,0.109375 0.109375,0.109375 0.109375,0 0.109375,-0.015625 0.171875,-0.234375 0.171875,-0.703125 0.375,-1.1875 0.734375,-1.1875 0.171875,0 0.3125,0.078125 0.3125,0.453125 0,0.234375 -0.03125,0.34375 -0.078125,0.515625 z m 1.75,-4.328125 C 2.265625,-3.375 2.546875,-3.65625 2.71875,-3.8125 c 0.359375,-0.296875 0.640625,-0.375 0.8125,-0.375 0.390625,0 0.640625,0.34375 0.640625,0.9375 0,0.59375 -0.328125,1.734375 -0.515625,2.109375 -0.34375,0.703125 -0.8125,1.03125 -1.1875,1.03125 C 1.8125,-0.109375 1.6875,-0.9375 1.6875,-1 c 0,-0.015625 0,-0.03125 0.03125,-0.15625 z m 0,0"
               id="path13043"
               inkscape:connector-curvature="0" />
          </symbol>
          <symbol
             overflow="visible"
             id="symbol13049"
             style="overflow:visible">
            <path
               style="stroke:none"
               d=""
               id="path13047"
               inkscape:connector-curvature="0" />
          </symbol>
          <symbol
             overflow="visible"
             id="symbol13053"
             style="overflow:visible">
            <path
               style="stroke:none"
               d="M 1.734375,-0.734375 C 1.671875,-0.5 1.4375,-0.125 1.078125,-0.125 c -0.015625,0 -0.234375,0 -0.375,-0.09375 0.28125,-0.09375 0.3125,-0.34375 0.3125,-0.390625 0,-0.15625 -0.125,-0.25 -0.28125,-0.25 -0.203125,0 -0.40625,0.15625 -0.40625,0.421875 0,0.34375 0.390625,0.5 0.734375,0.5 0.328125,0 0.609375,-0.1875 0.78125,-0.484375 C 2.015625,-0.0625 2.390625,0.0625 2.671875,0.0625 c 0.8125,0 1.234375,-0.859375 1.234375,-1.0625 0,-0.09375 -0.09375,-0.09375 -0.109375,-0.09375 -0.109375,0 -0.109375,0.046875 -0.140625,0.125 -0.140625,0.484375 -0.5625,0.84375 -0.953125,0.84375 -0.28125,0 -0.421875,-0.1875 -0.421875,-0.453125 0,-0.1875 0.171875,-0.8125 0.359375,-1.59375 C 2.78125,-2.703125 3.09375,-2.875 3.328125,-2.875 c 0.015625,0 0.21875,0 0.375,0.09375 -0.21875,0.0625 -0.3125,0.265625 -0.3125,0.390625 0,0.140625 0.125,0.25 0.28125,0.25 0.15625,0 0.390625,-0.125 0.390625,-0.421875 0,-0.390625 -0.453125,-0.515625 -0.71875,-0.515625 -0.359375,0 -0.640625,0.234375 -0.78125,0.5 -0.125,-0.28125 -0.453125,-0.5 -0.84375,-0.5 C 0.9375,-3.078125 0.5,-2.21875 0.5,-2 c 0,0.078125 0.09375,0.078125 0.109375,0.078125 0.09375,0 0.09375,-0.015625 0.140625,-0.109375 C 0.921875,-2.578125 1.359375,-2.875 1.703125,-2.875 1.9375,-2.875 2.125,-2.75 2.125,-2.421875 2.125,-2.28125 2.03125,-1.9375 1.96875,-1.6875 Z m 0,0"
               id="path13051"
               inkscape:connector-curvature="0" />
          </symbol>
          <symbol
             overflow="visible"
             id="symbol13057"
             style="overflow:visible">
            <path
               style="stroke:none"
               d=""
               id="path13055"
               inkscape:connector-curvature="0" />
          </symbol>
          <symbol
             overflow="visible"
             id="symbol13061"
             style="overflow:visible">
            <path
               style="stroke:none"
               d="M 1.984375,-3.171875 C 1.984375,-3.3125 1.96875,-3.3125 1.796875,-3.3125 1.453125,-3 0.890625,-3 0.796875,-3 H 0.71875 v 0.21875 h 0.078125 c 0.109375,0 0.4375,-0.015625 0.734375,-0.140625 v 2.5 c 0,0.140625 0,0.203125 -0.53125,0.203125 H 0.75 V 0 c 0.265625,-0.015625 0.71875,-0.015625 1,-0.015625 0.296875,0 0.734375,0 1.015625,0.015625 v -0.21875 h -0.25 c -0.53125,0 -0.53125,-0.0625 -0.53125,-0.203125 z m 0,0"
               id="path13059"
               inkscape:connector-curvature="0" />
          </symbol>
          <symbol
             overflow="visible"
             id="symbol13065"
             style="overflow:visible">
            <path
               style="stroke:none"
               d=""
               id="path13063"
               inkscape:connector-curvature="0" />
          </symbol>
          <symbol
             overflow="visible"
             id="symbol13069"
             style="overflow:visible">
            <path
               style="stroke:none"
               d="m 6.84375,-3.265625 c 0.15625,0 0.34375,0 0.34375,-0.1875 C 7.1875,-3.65625 7,-3.65625 6.859375,-3.65625 h -5.96875 c -0.140625,0 -0.328125,0 -0.328125,0.203125 0,0.1875 0.1875,0.1875 0.328125,0.1875 z m 0.015625,1.9375 c 0.140625,0 0.328125,0 0.328125,-0.203125 0,-0.1875 -0.1875,-0.1875 -0.34375,-0.1875 H 0.890625 c -0.140625,0 -0.328125,0 -0.328125,0.1875 0,0.203125 0.1875,0.203125 0.328125,0.203125 z m 0,0"
               id="path13067"
               inkscape:connector-curvature="0" />
          </symbol>
          <symbol
             overflow="visible"
             id="symbol13073"
             style="overflow:visible">
            <path
               style="stroke:none"
               d="m 4.578125,-3.1875 c 0,-0.796875 -0.046875,-1.59375 -0.390625,-2.328125 -0.453125,-0.96875 -1.28125,-1.125 -1.6875,-1.125 -0.609375,0 -1.328125,0.265625 -1.75,1.1875 -0.3125,0.6875 -0.359375,1.46875 -0.359375,2.265625 0,0.75 0.03125,1.640625 0.453125,2.40625 0.421875,0.796875 1.15625,1 1.640625,1 0.53125,0 1.296875,-0.203125 1.734375,-1.15625 0.3125,-0.6875 0.359375,-1.46875 0.359375,-2.25 z M 2.484375,0 C 2.09375,0 1.5,-0.25 1.328125,-1.203125 1.21875,-1.796875 1.21875,-2.71875 1.21875,-3.3125 c 0,-0.640625 0,-1.296875 0.078125,-1.828125 0.1875,-1.1875 0.9375,-1.28125 1.1875,-1.28125 0.328125,0 0.984375,0.1875 1.171875,1.171875 0.109375,0.5625 0.109375,1.3125 0.109375,1.9375 0,0.75 0,1.421875 -0.109375,2.0625 C 3.5,-0.296875 2.9375,0 2.484375,0 Z m 0,0"
               id="path13071"
               inkscape:connector-curvature="0" />
          </symbol>
        </g>
      </defs>
      <g
         id="g13103">
        <g
           style="fill:#000000;fill-opacity:1"
           id="g13081">
          <use
             xlink:href="#textext-b462b28d-1"
             x="223.43201"
             y="134.765"
             id="use13079"
             width="100%"
             height="100%" />
        </g>
        <g
           style="fill:#000000;fill-opacity:1"
           id="g13085">
          <use
             xlink:href="#textext-b462b28d-4"
             x="228.72099"
             y="136.259"
             id="use13083"
             width="100%"
             height="100%" />
        </g>
        <g
           style="fill:#000000;fill-opacity:1"
           id="g13089">
          <use
             xlink:href="#textext-b462b28d-6"
             x="233.239"
             y="137.256"
             id="use13087"
             width="100%"
             height="100%" />
        </g>
        <g
           style="fill:#000000;fill-opacity:1"
           id="g13093">
          <use
             xlink:href="#textext-b462b28d-2"
             x="237.625"
             y="134.765"
             id="use13091"
             width="100%"
             height="100%" />
        </g>
        <g
           style="fill:#000000;fill-opacity:1"
           id="g13097">
          <use
             xlink:href="#textext-b462b28d-8"
             x="245.405"
             y="134.765"
             id="use13095"
             width="100%"
             height="100%" />
        </g>
        <g
           style="fill:#000000;fill-opacity:1"
           id="g13101">
          <use
             xlink:href="#textext-b462b28d-9"
             x="255.92351"
             y="134.765"
             id="use13099"
             width="100%"
             height="100%" />
        </g>
      </g>
    </g>
    <g
       style="stroke-width:2.46529508"
       id="g14098"
       transform="matrix(0.27502176,0.29816018,-0.29816018,0.27502176,38.967344,-37.771239)"
       ns0:preamble="/home/ajaramillo/Dropbox/preamble.ini"
       ns0:text="$\\partial_{x_1} p  &gt;0$">
      <defs
         id="defs14071">
        <g
           id="g14069">
          <symbol
             style="overflow:visible"
             id="textext-97d4332b-0"
             overflow="visible">
            <path
               inkscape:connector-curvature="0"
               id="path14039"
               d=""
               style="stroke:none" />
          </symbol>
          <symbol
             style="overflow:visible"
             id="textext-97d4332b-1"
             overflow="visible">
            <path
               inkscape:connector-curvature="0"
               id="path14042"
               d="m 4.609375,-3.375 c -0.09375,-0.625 -0.5,-1.1875 -1.28125,-1.1875 -0.609375,0 -1.25,0.171875 -2.03125,0.9375 -0.828125,0.828125 -0.890625,1.765625 -0.890625,2.0625 0,0.625 0.4375,1.78125 1.828125,1.78125 2.375,0 3.40625,-3.34375 3.40625,-4.78125 0,-1.578125 -0.921875,-2.578125 -2.15625,-2.578125 -1.4375,0 -1.90625,1.296875 -1.90625,1.578125 0,0.140625 0.09375,0.34375 0.390625,0.34375 0.328125,0 0.53125,-0.296875 0.53125,-0.515625 0,-0.359375 -0.3125,-0.359375 -0.46875,-0.359375 0.4375,-0.734375 1.15625,-0.796875 1.4375,-0.796875 0.734375,0 1.421875,0.515625 1.421875,1.8125 0,0.390625 -0.0625,0.890625 -0.265625,1.703125 z m -2.34375,3.3125 c -1.09375,0 -1.09375,-1.03125 -1.09375,-1.125 0,-0.265625 0.25,-1.65625 0.65625,-2.265625 0.390625,-0.5625 0.890625,-0.890625 1.5,-0.890625 1.09375,0 1.109375,1.125 1.109375,1.328125 0,0.71875 -0.640625,2.953125 -2.171875,2.953125 z m 0,0"
               style="stroke:none" />
          </symbol>
          <symbol
             style="overflow:visible"
             id="textext-97d4332b-2"
             overflow="visible">
            <path
               inkscape:connector-curvature="0"
               id="path14045"
               d="M 0.453125,1.21875 C 0.375,1.5625 0.34375,1.625 -0.09375,1.625 c -0.109375,0 -0.21875,0 -0.21875,0.1875 0,0.078125 0.046875,0.125 0.125,0.125 0.265625,0 0.5625,-0.03125 0.828125,-0.03125 0.34375,0 0.671875,0.03125 1,0.03125 0.046875,0 0.171875,0 0.171875,-0.203125 C 1.8125,1.625 1.71875,1.625 1.578125,1.625 c -0.5,0 -0.5,-0.0625 -0.5,-0.15625 0,-0.125 0.421875,-1.75 0.484375,-2 0.125,0.296875 0.40625,0.640625 0.921875,0.640625 1.15625,0 2.40625,-1.453125 2.40625,-2.921875 0,-0.9375 -0.578125,-1.59375 -1.328125,-1.59375 -0.5,0 -0.984375,0.359375 -1.3125,0.75 -0.09375,-0.546875 -0.53125,-0.75 -0.890625,-0.75 -0.46875,0 -0.65625,0.390625 -0.734375,0.5625 C 0.4375,-3.5 0.3125,-2.90625 0.3125,-2.875 c 0,0.109375 0.09375,0.109375 0.109375,0.109375 0.109375,0 0.109375,-0.015625 0.171875,-0.234375 0.171875,-0.703125 0.375,-1.1875 0.734375,-1.1875 0.171875,0 0.3125,0.078125 0.3125,0.453125 0,0.234375 -0.03125,0.34375 -0.078125,0.515625 z m 1.75,-4.328125 C 2.265625,-3.375 2.546875,-3.65625 2.71875,-3.8125 c 0.359375,-0.296875 0.640625,-0.375 0.8125,-0.375 0.390625,0 0.640625,0.34375 0.640625,0.9375 0,0.59375 -0.328125,1.734375 -0.515625,2.109375 -0.34375,0.703125 -0.8125,1.03125 -1.1875,1.03125 C 1.8125,-0.109375 1.6875,-0.9375 1.6875,-1 c 0,-0.015625 0,-0.03125 0.03125,-0.15625 z m 0,0"
               style="stroke:none" />
          </symbol>
          <symbol
             style="overflow:visible"
             id="textext-97d4332b-3"
             overflow="visible">
            <path
               inkscape:connector-curvature="0"
               id="path14048"
               d="M 6.734375,-2.265625 C 6.84375,-2.328125 6.921875,-2.375 6.921875,-2.5 c 0,-0.109375 -0.078125,-0.15625 -0.1875,-0.21875 L 1.203125,-5.3125 C 1.078125,-5.390625 1.0625,-5.390625 1.03125,-5.390625 c -0.109375,0 -0.203125,0.09375 -0.203125,0.203125 0,0.09375 0.046875,0.15625 0.1875,0.21875 L 6.25,-2.5 1.015625,-0.015625 c -0.140625,0.0625 -0.1875,0.125 -0.1875,0.21875 0,0.109375 0.09375,0.203125 0.203125,0.203125 0.03125,0 0.046875,0 0.171875,-0.078125 z m 0,0"
               style="stroke:none" />
          </symbol>
          <symbol
             style="overflow:visible"
             id="textext-97d4332b-4"
             overflow="visible">
            <path
               inkscape:connector-curvature="0"
               id="path14051"
               d=""
               style="stroke:none" />
          </symbol>
          <symbol
             style="overflow:visible"
             id="textext-97d4332b-5"
             overflow="visible">
            <path
               inkscape:connector-curvature="0"
               id="path14054"
               d="M 1.734375,-0.734375 C 1.671875,-0.5 1.4375,-0.125 1.078125,-0.125 c -0.015625,0 -0.234375,0 -0.375,-0.09375 0.28125,-0.09375 0.3125,-0.34375 0.3125,-0.390625 0,-0.15625 -0.125,-0.25 -0.28125,-0.25 -0.203125,0 -0.40625,0.15625 -0.40625,0.421875 0,0.34375 0.390625,0.5 0.734375,0.5 0.328125,0 0.609375,-0.1875 0.78125,-0.484375 C 2.015625,-0.0625 2.390625,0.0625 2.671875,0.0625 c 0.8125,0 1.234375,-0.859375 1.234375,-1.0625 0,-0.09375 -0.09375,-0.09375 -0.109375,-0.09375 -0.109375,0 -0.109375,0.046875 -0.140625,0.125 -0.140625,0.484375 -0.5625,0.84375 -0.953125,0.84375 -0.28125,0 -0.421875,-0.1875 -0.421875,-0.453125 0,-0.1875 0.171875,-0.8125 0.359375,-1.59375 C 2.78125,-2.703125 3.09375,-2.875 3.328125,-2.875 c 0.015625,0 0.21875,0 0.375,0.09375 -0.21875,0.0625 -0.3125,0.265625 -0.3125,0.390625 0,0.140625 0.125,0.25 0.28125,0.25 0.15625,0 0.390625,-0.125 0.390625,-0.421875 0,-0.390625 -0.453125,-0.515625 -0.71875,-0.515625 -0.359375,0 -0.640625,0.234375 -0.78125,0.5 -0.125,-0.28125 -0.453125,-0.5 -0.84375,-0.5 C 0.9375,-3.078125 0.5,-2.21875 0.5,-2 c 0,0.078125 0.09375,0.078125 0.109375,0.078125 0.09375,0 0.09375,-0.015625 0.140625,-0.109375 C 0.921875,-2.578125 1.359375,-2.875 1.703125,-2.875 1.9375,-2.875 2.125,-2.75 2.125,-2.421875 2.125,-2.28125 2.03125,-1.9375 1.96875,-1.6875 Z m 0,0"
               style="stroke:none" />
          </symbol>
          <symbol
             style="overflow:visible"
             id="textext-97d4332b-6"
             overflow="visible">
            <path
               inkscape:connector-curvature="0"
               id="path14057"
               d=""
               style="stroke:none" />
          </symbol>
          <symbol
             style="overflow:visible"
             id="textext-97d4332b-7"
             overflow="visible">
            <path
               inkscape:connector-curvature="0"
               id="path14060"
               d="M 1.984375,-3.171875 C 1.984375,-3.3125 1.96875,-3.3125 1.796875,-3.3125 1.453125,-3 0.890625,-3 0.796875,-3 H 0.71875 v 0.21875 h 0.078125 c 0.109375,0 0.4375,-0.015625 0.734375,-0.140625 v 2.5 c 0,0.140625 0,0.203125 -0.53125,0.203125 H 0.75 V 0 c 0.265625,-0.015625 0.71875,-0.015625 1,-0.015625 0.296875,0 0.734375,0 1.015625,0.015625 v -0.21875 h -0.25 c -0.53125,0 -0.53125,-0.0625 -0.53125,-0.203125 z m 0,0"
               style="stroke:none" />
          </symbol>
          <symbol
             style="overflow:visible"
             id="textext-97d4332b-8"
             overflow="visible">
            <path
               inkscape:connector-curvature="0"
               id="path14063"
               d=""
               style="stroke:none" />
          </symbol>
          <symbol
             style="overflow:visible"
             id="textext-97d4332b-9"
             overflow="visible">
            <path
               inkscape:connector-curvature="0"
               id="path14066"
               d="m 4.578125,-3.1875 c 0,-0.796875 -0.046875,-1.59375 -0.390625,-2.328125 -0.453125,-0.96875 -1.28125,-1.125 -1.6875,-1.125 -0.609375,0 -1.328125,0.265625 -1.75,1.1875 -0.3125,0.6875 -0.359375,1.46875 -0.359375,2.265625 0,0.75 0.03125,1.640625 0.453125,2.40625 0.421875,0.796875 1.15625,1 1.640625,1 0.53125,0 1.296875,-0.203125 1.734375,-1.15625 0.3125,-0.6875 0.359375,-1.46875 0.359375,-2.25 z M 2.484375,0 C 2.09375,0 1.5,-0.25 1.328125,-1.203125 1.21875,-1.796875 1.21875,-2.71875 1.21875,-3.3125 c 0,-0.640625 0,-1.296875 0.078125,-1.828125 0.1875,-1.1875 0.9375,-1.28125 1.1875,-1.28125 0.328125,0 0.984375,0.1875 1.171875,1.171875 0.109375,0.5625 0.109375,1.3125 0.109375,1.9375 0,0.75 0,1.421875 -0.109375,2.0625 C 3.5,-0.296875 2.9375,0 2.484375,0 Z m 0,0"
               style="stroke:none" />
          </symbol>
        </g>
      </defs>
      <g
         id="textext-97d4332b-10"
         style="stroke-width:2.46529508">
        <g
           id="g14075"
           style="fill:#000000;fill-opacity:1;stroke-width:2.46529508">
          <use
             height="100%"
             width="100%"
             id="use14073"
             y="134.765"
             x="223.43201"
             xlink:href="#textext-97d4332b-1"
             style="stroke-width:2.46529508" />
        </g>
        <g
           id="g14079"
           style="fill:#000000;fill-opacity:1;stroke-width:2.46529508">
          <use
             height="100%"
             width="100%"
             id="use14077"
             y="136.259"
             x="228.72099"
             xlink:href="#textext-97d4332b-5"
             style="stroke-width:2.46529508" />
        </g>
        <g
           id="g14083"
           style="fill:#000000;fill-opacity:1;stroke-width:2.46529508">
          <use
             height="100%"
             width="100%"
             id="use14081"
             y="137.256"
             x="233.239"
             xlink:href="#textext-97d4332b-7"
             style="stroke-width:2.46529508" />
        </g>
        <g
           id="g14087"
           style="fill:#000000;fill-opacity:1;stroke-width:2.46529508">
          <use
             height="100%"
             width="100%"
             id="use14085"
             y="134.765"
             x="237.625"
             xlink:href="#textext-97d4332b-2"
             style="stroke-width:2.46529508" />
        </g>
        <g
           id="g14091"
           style="fill:#000000;fill-opacity:1;stroke-width:2.46529508">
          <use
             height="100%"
             width="100%"
             id="use14089"
             y="134.765"
             x="245.40678"
             xlink:href="#textext-97d4332b-3"
             style="stroke-width:2.46529508" />
        </g>
        <g
           id="g14095"
           style="fill:#000000;fill-opacity:1;stroke-width:2.46529508">
          <use
             height="100%"
             width="100%"
             id="use14093"
             y="134.765"
             x="255.92101"
             xlink:href="#textext-97d4332b-9"
             style="stroke-width:2.46529508" />
        </g>
      </g>
    </g>
    <g
       style="stroke-width:2.56895542"
       ns0:text="$\\partial_{x_1} p  =0$"
       ns0:preamble="/home/ajaramillo/Dropbox/preamble.ini"
       transform="matrix(0.28519949,0.26492854,-0.26492854,0.28519949,56.710213,-35.14989)"
       id="g14741">
      <defs
         id="defs14714">
        <g
           id="g14712">
          <symbol
             style="overflow:visible"
             overflow="visible"
             id="textext-14299caf-0">
            <path
               inkscape:connector-curvature="0"
               style="stroke:none"
               d=""
               id="path14682" />
          </symbol>
          <symbol
             style="overflow:visible"
             overflow="visible"
             id="textext-14299caf-1">
            <path
               inkscape:connector-curvature="0"
               style="stroke:none"
               d="m 4.609375,-3.375 c -0.09375,-0.625 -0.5,-1.1875 -1.28125,-1.1875 -0.609375,0 -1.25,0.171875 -2.03125,0.9375 -0.828125,0.828125 -0.890625,1.765625 -0.890625,2.0625 0,0.625 0.4375,1.78125 1.828125,1.78125 2.375,0 3.40625,-3.34375 3.40625,-4.78125 0,-1.578125 -0.921875,-2.578125 -2.15625,-2.578125 -1.4375,0 -1.90625,1.296875 -1.90625,1.578125 0,0.140625 0.09375,0.34375 0.390625,0.34375 0.328125,0 0.53125,-0.296875 0.53125,-0.515625 0,-0.359375 -0.3125,-0.359375 -0.46875,-0.359375 0.4375,-0.734375 1.15625,-0.796875 1.4375,-0.796875 0.734375,0 1.421875,0.515625 1.421875,1.8125 0,0.390625 -0.0625,0.890625 -0.265625,1.703125 z m -2.34375,3.3125 c -1.09375,0 -1.09375,-1.03125 -1.09375,-1.125 0,-0.265625 0.25,-1.65625 0.65625,-2.265625 0.390625,-0.5625 0.890625,-0.890625 1.5,-0.890625 1.09375,0 1.109375,1.125 1.109375,1.328125 0,0.71875 -0.640625,2.953125 -2.171875,2.953125 z m 0,0"
               id="path14685" />
          </symbol>
          <symbol
             style="overflow:visible"
             overflow="visible"
             id="textext-14299caf-2">
            <path
               inkscape:connector-curvature="0"
               style="stroke:none"
               d="M 0.453125,1.21875 C 0.375,1.5625 0.34375,1.625 -0.09375,1.625 c -0.109375,0 -0.21875,0 -0.21875,0.1875 0,0.078125 0.046875,0.125 0.125,0.125 0.265625,0 0.5625,-0.03125 0.828125,-0.03125 0.34375,0 0.671875,0.03125 1,0.03125 0.046875,0 0.171875,0 0.171875,-0.203125 C 1.8125,1.625 1.71875,1.625 1.578125,1.625 c -0.5,0 -0.5,-0.0625 -0.5,-0.15625 0,-0.125 0.421875,-1.75 0.484375,-2 0.125,0.296875 0.40625,0.640625 0.921875,0.640625 1.15625,0 2.40625,-1.453125 2.40625,-2.921875 0,-0.9375 -0.578125,-1.59375 -1.328125,-1.59375 -0.5,0 -0.984375,0.359375 -1.3125,0.75 -0.09375,-0.546875 -0.53125,-0.75 -0.890625,-0.75 -0.46875,0 -0.65625,0.390625 -0.734375,0.5625 C 0.4375,-3.5 0.3125,-2.90625 0.3125,-2.875 c 0,0.109375 0.09375,0.109375 0.109375,0.109375 0.109375,0 0.109375,-0.015625 0.171875,-0.234375 0.171875,-0.703125 0.375,-1.1875 0.734375,-1.1875 0.171875,0 0.3125,0.078125 0.3125,0.453125 0,0.234375 -0.03125,0.34375 -0.078125,0.515625 z m 1.75,-4.328125 C 2.265625,-3.375 2.546875,-3.65625 2.71875,-3.8125 c 0.359375,-0.296875 0.640625,-0.375 0.8125,-0.375 0.390625,0 0.640625,0.34375 0.640625,0.9375 0,0.59375 -0.328125,1.734375 -0.515625,2.109375 -0.34375,0.703125 -0.8125,1.03125 -1.1875,1.03125 C 1.8125,-0.109375 1.6875,-0.9375 1.6875,-1 c 0,-0.015625 0,-0.03125 0.03125,-0.15625 z m 0,0"
               id="path14688" />
          </symbol>
          <symbol
             style="overflow:visible"
             overflow="visible"
             id="textext-14299caf-3">
            <path
               inkscape:connector-curvature="0"
               style="stroke:none"
               d=""
               id="path14691" />
          </symbol>
          <symbol
             style="overflow:visible"
             overflow="visible"
             id="textext-14299caf-4">
            <path
               inkscape:connector-curvature="0"
               style="stroke:none"
               d="M 1.734375,-0.734375 C 1.671875,-0.5 1.4375,-0.125 1.078125,-0.125 c -0.015625,0 -0.234375,0 -0.375,-0.09375 0.28125,-0.09375 0.3125,-0.34375 0.3125,-0.390625 0,-0.15625 -0.125,-0.25 -0.28125,-0.25 -0.203125,0 -0.40625,0.15625 -0.40625,0.421875 0,0.34375 0.390625,0.5 0.734375,0.5 0.328125,0 0.609375,-0.1875 0.78125,-0.484375 C 2.015625,-0.0625 2.390625,0.0625 2.671875,0.0625 c 0.8125,0 1.234375,-0.859375 1.234375,-1.0625 0,-0.09375 -0.09375,-0.09375 -0.109375,-0.09375 -0.109375,0 -0.109375,0.046875 -0.140625,0.125 -0.140625,0.484375 -0.5625,0.84375 -0.953125,0.84375 -0.28125,0 -0.421875,-0.1875 -0.421875,-0.453125 0,-0.1875 0.171875,-0.8125 0.359375,-1.59375 C 2.78125,-2.703125 3.09375,-2.875 3.328125,-2.875 c 0.015625,0 0.21875,0 0.375,0.09375 -0.21875,0.0625 -0.3125,0.265625 -0.3125,0.390625 0,0.140625 0.125,0.25 0.28125,0.25 0.15625,0 0.390625,-0.125 0.390625,-0.421875 0,-0.390625 -0.453125,-0.515625 -0.71875,-0.515625 -0.359375,0 -0.640625,0.234375 -0.78125,0.5 -0.125,-0.28125 -0.453125,-0.5 -0.84375,-0.5 C 0.9375,-3.078125 0.5,-2.21875 0.5,-2 c 0,0.078125 0.09375,0.078125 0.109375,0.078125 0.09375,0 0.09375,-0.015625 0.140625,-0.109375 C 0.921875,-2.578125 1.359375,-2.875 1.703125,-2.875 1.9375,-2.875 2.125,-2.75 2.125,-2.421875 2.125,-2.28125 2.03125,-1.9375 1.96875,-1.6875 Z m 0,0"
               id="path14694" />
          </symbol>
          <symbol
             style="overflow:visible"
             overflow="visible"
             id="textext-14299caf-5">
            <path
               inkscape:connector-curvature="0"
               style="stroke:none"
               d=""
               id="path14697" />
          </symbol>
          <symbol
             style="overflow:visible"
             overflow="visible"
             id="textext-14299caf-6">
            <path
               inkscape:connector-curvature="0"
               style="stroke:none"
               d="M 1.984375,-3.171875 C 1.984375,-3.3125 1.96875,-3.3125 1.796875,-3.3125 1.453125,-3 0.890625,-3 0.796875,-3 H 0.71875 v 0.21875 h 0.078125 c 0.109375,0 0.4375,-0.015625 0.734375,-0.140625 v 2.5 c 0,0.140625 0,0.203125 -0.53125,0.203125 H 0.75 V 0 c 0.265625,-0.015625 0.71875,-0.015625 1,-0.015625 0.296875,0 0.734375,0 1.015625,0.015625 v -0.21875 h -0.25 c -0.53125,0 -0.53125,-0.0625 -0.53125,-0.203125 z m 0,0"
               id="path14700" />
          </symbol>
          <symbol
             style="overflow:visible"
             overflow="visible"
             id="textext-14299caf-7">
            <path
               inkscape:connector-curvature="0"
               style="stroke:none"
               d=""
               id="path14703" />
          </symbol>
          <symbol
             style="overflow:visible"
             overflow="visible"
             id="textext-14299caf-8">
            <path
               inkscape:connector-curvature="0"
               style="stroke:none"
               d="m 6.84375,-3.265625 c 0.15625,0 0.34375,0 0.34375,-0.1875 C 7.1875,-3.65625 7,-3.65625 6.859375,-3.65625 h -5.96875 c -0.140625,0 -0.328125,0 -0.328125,0.203125 0,0.1875 0.1875,0.1875 0.328125,0.1875 z m 0.015625,1.9375 c 0.140625,0 0.328125,0 0.328125,-0.203125 0,-0.1875 -0.1875,-0.1875 -0.34375,-0.1875 H 0.890625 c -0.140625,0 -0.328125,0 -0.328125,0.1875 0,0.203125 0.1875,0.203125 0.328125,0.203125 z m 0,0"
               id="path14706" />
          </symbol>
          <symbol
             style="overflow:visible"
             overflow="visible"
             id="textext-14299caf-9">
            <path
               inkscape:connector-curvature="0"
               style="stroke:none"
               d="m 4.578125,-3.1875 c 0,-0.796875 -0.046875,-1.59375 -0.390625,-2.328125 -0.453125,-0.96875 -1.28125,-1.125 -1.6875,-1.125 -0.609375,0 -1.328125,0.265625 -1.75,1.1875 -0.3125,0.6875 -0.359375,1.46875 -0.359375,2.265625 0,0.75 0.03125,1.640625 0.453125,2.40625 0.421875,0.796875 1.15625,1 1.640625,1 0.53125,0 1.296875,-0.203125 1.734375,-1.15625 0.3125,-0.6875 0.359375,-1.46875 0.359375,-2.25 z M 2.484375,0 C 2.09375,0 1.5,-0.25 1.328125,-1.203125 1.21875,-1.796875 1.21875,-2.71875 1.21875,-3.3125 c 0,-0.640625 0,-1.296875 0.078125,-1.828125 0.1875,-1.1875 0.9375,-1.28125 1.1875,-1.28125 0.328125,0 0.984375,0.1875 1.171875,1.171875 0.109375,0.5625 0.109375,1.3125 0.109375,1.9375 0,0.75 0,1.421875 -0.109375,2.0625 C 3.5,-0.296875 2.9375,0 2.484375,0 Z m 0,0"
               id="path14709" />
          </symbol>
        </g>
      </defs>
      <g
         id="textext-14299caf-10"
         style="stroke-width:2.56895542">
        <g
           style="fill:#000000;fill-opacity:1;stroke-width:2.56895542"
           id="g14718">
          <use
             height="100%"
             width="100%"
             xlink:href="#textext-14299caf-1"
             x="223.43201"
             y="134.765"
             id="use14716"
             style="stroke-width:2.56895542" />
        </g>
        <g
           style="fill:#000000;fill-opacity:1;stroke-width:2.56895542"
           id="g14722">
          <use
             height="100%"
             width="100%"
             xlink:href="#textext-14299caf-4"
             x="228.72099"
             y="136.259"
             id="use14720"
             style="stroke-width:2.56895542" />
        </g>
        <g
           style="fill:#000000;fill-opacity:1;stroke-width:2.56895542"
           id="g14726">
          <use
             height="100%"
             width="100%"
             xlink:href="#textext-14299caf-6"
             x="233.239"
             y="137.256"
             id="use14724"
             style="stroke-width:2.56895542" />
        </g>
        <g
           style="fill:#000000;fill-opacity:1;stroke-width:2.56895542"
           id="g14730">
          <use
             height="100%"
             width="100%"
             xlink:href="#textext-14299caf-2"
             x="237.625"
             y="134.765"
             id="use14728"
             style="stroke-width:2.56895542" />
        </g>
        <g
           style="fill:#000000;fill-opacity:1;stroke-width:2.56895542"
           id="g14734">
          <use
             height="100%"
             width="100%"
             xlink:href="#textext-14299caf-8"
             x="245.405"
             y="134.765"
             id="use14732"
             style="stroke-width:2.56895542" />
        </g>
        <g
           style="fill:#000000;fill-opacity:1;stroke-width:2.56895542"
           id="g14738">
          <use
             height="100%"
             width="100%"
             xlink:href="#textext-14299caf-9"
             x="255.92351"
             y="134.765"
             id="use14736"
             style="stroke-width:2.56895542" />
        </g>
      </g>
    </g>
    <path
       inkscape:connector-curvature="0"
       id="path15834"
       d="m 90.33641,74.655495 h 3.87426"
       style="fill:none;fill-rule:evenodd;stroke:#000000;stroke-width:0.26458332px;stroke-linecap:butt;stroke-linejoin:miter;stroke-opacity:1;marker-end:url(#marker15838)" />
    <path
       inkscape:connector-curvature="0"
       id="path17786"
       d="m 110.08566,90.152519 h 3.87426"
       style="fill:none;fill-rule:evenodd;stroke:#000000;stroke-width:0.26458332px;stroke-linecap:butt;stroke-linejoin:miter;stroke-opacity:1;marker-end:url(#marker17790)" />
    <g
       ns0:text="$\\partial_{x_1} p  &gt;0$"
       ns0:preamble="/home/ajaramillo/Dropbox/preamble.ini"
       transform="matrix(0.26219017,0.28424903,-0.28424903,0.26219017,18.593913,-28.290318)"
       id="g18794"
       style="stroke-width:2.5859468">
      <defs
         id="defs18766">
        <g
           id="g18764">
          <symbol
             overflow="visible"
             id="symbol18726"
             style="overflow:visible">
            <path
               style="stroke:none"
               d=""
               id="path18724"
               inkscape:connector-curvature="0" />
          </symbol>
          <symbol
             overflow="visible"
             id="symbol18730"
             style="overflow:visible">
            <path
               style="stroke:none"
               d="m 4.609375,-3.375 c -0.09375,-0.625 -0.5,-1.1875 -1.28125,-1.1875 -0.609375,0 -1.25,0.171875 -2.03125,0.9375 -0.828125,0.828125 -0.890625,1.765625 -0.890625,2.0625 0,0.625 0.4375,1.78125 1.828125,1.78125 2.375,0 3.40625,-3.34375 3.40625,-4.78125 0,-1.578125 -0.921875,-2.578125 -2.15625,-2.578125 -1.4375,0 -1.90625,1.296875 -1.90625,1.578125 0,0.140625 0.09375,0.34375 0.390625,0.34375 0.328125,0 0.53125,-0.296875 0.53125,-0.515625 0,-0.359375 -0.3125,-0.359375 -0.46875,-0.359375 0.4375,-0.734375 1.15625,-0.796875 1.4375,-0.796875 0.734375,0 1.421875,0.515625 1.421875,1.8125 0,0.390625 -0.0625,0.890625 -0.265625,1.703125 z m -2.34375,3.3125 c -1.09375,0 -1.09375,-1.03125 -1.09375,-1.125 0,-0.265625 0.25,-1.65625 0.65625,-2.265625 0.390625,-0.5625 0.890625,-0.890625 1.5,-0.890625 1.09375,0 1.109375,1.125 1.109375,1.328125 0,0.71875 -0.640625,2.953125 -2.171875,2.953125 z m 0,0"
               id="path18728"
               inkscape:connector-curvature="0" />
          </symbol>
          <symbol
             overflow="visible"
             id="symbol18734"
             style="overflow:visible">
            <path
               style="stroke:none"
               d="M 0.453125,1.21875 C 0.375,1.5625 0.34375,1.625 -0.09375,1.625 c -0.109375,0 -0.21875,0 -0.21875,0.1875 0,0.078125 0.046875,0.125 0.125,0.125 0.265625,0 0.5625,-0.03125 0.828125,-0.03125 0.34375,0 0.671875,0.03125 1,0.03125 0.046875,0 0.171875,0 0.171875,-0.203125 C 1.8125,1.625 1.71875,1.625 1.578125,1.625 c -0.5,0 -0.5,-0.0625 -0.5,-0.15625 0,-0.125 0.421875,-1.75 0.484375,-2 0.125,0.296875 0.40625,0.640625 0.921875,0.640625 1.15625,0 2.40625,-1.453125 2.40625,-2.921875 0,-0.9375 -0.578125,-1.59375 -1.328125,-1.59375 -0.5,0 -0.984375,0.359375 -1.3125,0.75 -0.09375,-0.546875 -0.53125,-0.75 -0.890625,-0.75 -0.46875,0 -0.65625,0.390625 -0.734375,0.5625 C 0.4375,-3.5 0.3125,-2.90625 0.3125,-2.875 c 0,0.109375 0.09375,0.109375 0.109375,0.109375 0.109375,0 0.109375,-0.015625 0.171875,-0.234375 0.171875,-0.703125 0.375,-1.1875 0.734375,-1.1875 0.171875,0 0.3125,0.078125 0.3125,0.453125 0,0.234375 -0.03125,0.34375 -0.078125,0.515625 z m 1.75,-4.328125 C 2.265625,-3.375 2.546875,-3.65625 2.71875,-3.8125 c 0.359375,-0.296875 0.640625,-0.375 0.8125,-0.375 0.390625,0 0.640625,0.34375 0.640625,0.9375 0,0.59375 -0.328125,1.734375 -0.515625,2.109375 -0.34375,0.703125 -0.8125,1.03125 -1.1875,1.03125 C 1.8125,-0.109375 1.6875,-0.9375 1.6875,-1 c 0,-0.015625 0,-0.03125 0.03125,-0.15625 z m 0,0"
               id="path18732"
               inkscape:connector-curvature="0" />
          </symbol>
          <symbol
             overflow="visible"
             id="symbol18738"
             style="overflow:visible">
            <path
               style="stroke:none"
               d="M 6.734375,-2.265625 C 6.84375,-2.328125 6.921875,-2.375 6.921875,-2.5 c 0,-0.109375 -0.078125,-0.15625 -0.1875,-0.21875 L 1.203125,-5.3125 C 1.078125,-5.390625 1.0625,-5.390625 1.03125,-5.390625 c -0.109375,0 -0.203125,0.09375 -0.203125,0.203125 0,0.09375 0.046875,0.15625 0.1875,0.21875 L 6.25,-2.5 1.015625,-0.015625 c -0.140625,0.0625 -0.1875,0.125 -0.1875,0.21875 0,0.109375 0.09375,0.203125 0.203125,0.203125 0.03125,0 0.046875,0 0.171875,-0.078125 z m 0,0"
               id="path18736"
               inkscape:connector-curvature="0" />
          </symbol>
          <symbol
             overflow="visible"
             id="symbol18742"
             style="overflow:visible">
            <path
               style="stroke:none"
               d=""
               id="path18740"
               inkscape:connector-curvature="0" />
          </symbol>
          <symbol
             overflow="visible"
             id="symbol18746"
             style="overflow:visible">
            <path
               style="stroke:none"
               d="M 1.734375,-0.734375 C 1.671875,-0.5 1.4375,-0.125 1.078125,-0.125 c -0.015625,0 -0.234375,0 -0.375,-0.09375 0.28125,-0.09375 0.3125,-0.34375 0.3125,-0.390625 0,-0.15625 -0.125,-0.25 -0.28125,-0.25 -0.203125,0 -0.40625,0.15625 -0.40625,0.421875 0,0.34375 0.390625,0.5 0.734375,0.5 0.328125,0 0.609375,-0.1875 0.78125,-0.484375 C 2.015625,-0.0625 2.390625,0.0625 2.671875,0.0625 c 0.8125,0 1.234375,-0.859375 1.234375,-1.0625 0,-0.09375 -0.09375,-0.09375 -0.109375,-0.09375 -0.109375,0 -0.109375,0.046875 -0.140625,0.125 -0.140625,0.484375 -0.5625,0.84375 -0.953125,0.84375 -0.28125,0 -0.421875,-0.1875 -0.421875,-0.453125 0,-0.1875 0.171875,-0.8125 0.359375,-1.59375 C 2.78125,-2.703125 3.09375,-2.875 3.328125,-2.875 c 0.015625,0 0.21875,0 0.375,0.09375 -0.21875,0.0625 -0.3125,0.265625 -0.3125,0.390625 0,0.140625 0.125,0.25 0.28125,0.25 0.15625,0 0.390625,-0.125 0.390625,-0.421875 0,-0.390625 -0.453125,-0.515625 -0.71875,-0.515625 -0.359375,0 -0.640625,0.234375 -0.78125,0.5 -0.125,-0.28125 -0.453125,-0.5 -0.84375,-0.5 C 0.9375,-3.078125 0.5,-2.21875 0.5,-2 c 0,0.078125 0.09375,0.078125 0.109375,0.078125 0.09375,0 0.09375,-0.015625 0.140625,-0.109375 C 0.921875,-2.578125 1.359375,-2.875 1.703125,-2.875 1.9375,-2.875 2.125,-2.75 2.125,-2.421875 2.125,-2.28125 2.03125,-1.9375 1.96875,-1.6875 Z m 0,0"
               id="path18744"
               inkscape:connector-curvature="0" />
          </symbol>
          <symbol
             overflow="visible"
             id="symbol18750"
             style="overflow:visible">
            <path
               style="stroke:none"
               d=""
               id="path18748"
               inkscape:connector-curvature="0" />
          </symbol>
          <symbol
             overflow="visible"
             id="symbol18754"
             style="overflow:visible">
            <path
               style="stroke:none"
               d="M 1.984375,-3.171875 C 1.984375,-3.3125 1.96875,-3.3125 1.796875,-3.3125 1.453125,-3 0.890625,-3 0.796875,-3 H 0.71875 v 0.21875 h 0.078125 c 0.109375,0 0.4375,-0.015625 0.734375,-0.140625 v 2.5 c 0,0.140625 0,0.203125 -0.53125,0.203125 H 0.75 V 0 c 0.265625,-0.015625 0.71875,-0.015625 1,-0.015625 0.296875,0 0.734375,0 1.015625,0.015625 v -0.21875 h -0.25 c -0.53125,0 -0.53125,-0.0625 -0.53125,-0.203125 z m 0,0"
               id="path18752"
               inkscape:connector-curvature="0" />
          </symbol>
          <symbol
             overflow="visible"
             id="symbol18758"
             style="overflow:visible">
            <path
               style="stroke:none"
               d=""
               id="path18756"
               inkscape:connector-curvature="0" />
          </symbol>
          <symbol
             overflow="visible"
             id="symbol18762"
             style="overflow:visible">
            <path
               style="stroke:none"
               d="m 4.578125,-3.1875 c 0,-0.796875 -0.046875,-1.59375 -0.390625,-2.328125 -0.453125,-0.96875 -1.28125,-1.125 -1.6875,-1.125 -0.609375,0 -1.328125,0.265625 -1.75,1.1875 -0.3125,0.6875 -0.359375,1.46875 -0.359375,2.265625 0,0.75 0.03125,1.640625 0.453125,2.40625 0.421875,0.796875 1.15625,1 1.640625,1 0.53125,0 1.296875,-0.203125 1.734375,-1.15625 0.3125,-0.6875 0.359375,-1.46875 0.359375,-2.25 z M 2.484375,0 C 2.09375,0 1.5,-0.25 1.328125,-1.203125 1.21875,-1.796875 1.21875,-2.71875 1.21875,-3.3125 c 0,-0.640625 0,-1.296875 0.078125,-1.828125 0.1875,-1.1875 0.9375,-1.28125 1.1875,-1.28125 0.328125,0 0.984375,0.1875 1.171875,1.171875 0.109375,0.5625 0.109375,1.3125 0.109375,1.9375 0,0.75 0,1.421875 -0.109375,2.0625 C 3.5,-0.296875 2.9375,0 2.484375,0 Z m 0,0"
               id="path18760"
               inkscape:connector-curvature="0" />
          </symbol>
        </g>
      </defs>
      <g
         id="g18792"
         style="stroke-width:2.5859468">
        <g
           style="fill:#000000;fill-opacity:1;stroke-width:2.5859468"
           id="g18770">
          <use
             xlink:href="#textext-97d4332b-1"
             x="223.43201"
             y="134.765"
             id="use18768"
             width="100%"
             height="100%"
             style="stroke-width:2.5859468" />
        </g>
        <g
           style="fill:#000000;fill-opacity:1;stroke-width:2.5859468"
           id="g18774">
          <use
             xlink:href="#textext-97d4332b-5"
             x="228.72099"
             y="136.259"
             id="use18772"
             width="100%"
             height="100%"
             style="stroke-width:2.5859468" />
        </g>
        <g
           style="fill:#000000;fill-opacity:1;stroke-width:2.5859468"
           id="g18778">
          <use
             xlink:href="#textext-97d4332b-7"
             x="233.239"
             y="137.256"
             id="use18776"
             width="100%"
             height="100%"
             style="stroke-width:2.5859468" />
        </g>
        <g
           style="fill:#000000;fill-opacity:1;stroke-width:2.5859468"
           id="g18782">
          <use
             xlink:href="#textext-97d4332b-2"
             x="237.625"
             y="134.765"
             id="use18780"
             width="100%"
             height="100%"
             style="stroke-width:2.5859468" />
        </g>
        <g
           style="fill:#000000;fill-opacity:1;stroke-width:2.5859468"
           id="g18786">
          <use
             xlink:href="#textext-97d4332b-3"
             x="245.40678"
             y="134.765"
             id="use18784"
             width="100%"
             height="100%"
             style="stroke-width:2.5859468" />
        </g>
        <g
           style="fill:#000000;fill-opacity:1;stroke-width:2.5859468"
           id="g18790">
          <use
             xlink:href="#textext-97d4332b-9"
             x="255.92101"
             y="134.765"
             id="use18788"
             width="100%"
             height="100%"
             style="stroke-width:2.5859468" />
        </g>
      </g>
    </g>
  </g>
</svg>
