<?xml version="1.0" encoding="UTF-8" standalone="no"?>
<!-- Created with Inkscape (http://www.inkscape.org/) -->

<svg
   xmlns:dc="http://purl.org/dc/elements/1.1/"
   xmlns:cc="http://creativecommons.org/ns#"
   xmlns:rdf="http://www.w3.org/1999/02/22-rdf-syntax-ns#"
   xmlns:svg="http://www.w3.org/2000/svg"
   xmlns="http://www.w3.org/2000/svg"
   xmlns:sodipodi="http://sodipodi.sourceforge.net/DTD/sodipodi-0.dtd"
   xmlns:inkscape="http://www.inkscape.org/namespaces/inkscape"
   version="1.1"
   id="svg834"
   xml:space="preserve"
   width="501.62027"
   height="393.4725"
   viewBox="0 0 501.62027 393.4725"
   sodipodi:docname="projections_solution_varying_ecc1.svg"
   inkscape:version="0.92.2 (5c3e80d, 2017-08-06)"><metadata
     id="metadata840"><rdf:RDF><cc:Work
         rdf:about=""><dc:format>image/svg+xml</dc:format><dc:type
           rdf:resource="http://purl.org/dc/dcmitype/StillImage" /><dc:title></dc:title></cc:Work></rdf:RDF></metadata><defs
     id="defs838" /><sodipodi:namedview
     pagecolor="#ffffff"
     bordercolor="#666666"
     borderopacity="1"
     objecttolerance="10"
     gridtolerance="10"
     guidetolerance="10"
     inkscape:pageopacity="0"
     inkscape:pageshadow="2"
     inkscape:window-width="1920"
     inkscape:window-height="1026"
     id="namedview836"
     showgrid="false"
     inkscape:zoom="2.986769"
     inkscape:cx="221.72752"
     inkscape:cy="304.0633"
     inkscape:window-x="0"
     inkscape:window-y="0"
     inkscape:window-maximized="1"
     inkscape:current-layer="g842" /><g
     id="g842"
     inkscape:groupmode="layer"
     inkscape:label="projections_solution_varying_ecc"
     transform="matrix(1.3333333,0,0,-1.3333333,0,393.47249)"><g
       transform="matrix(1,0,0,-1,0,295.10437)"
       id="g846"><path
         inkscape:connector-curvature="0"
         id="path848"
         style="fill:none;stroke:#262626;stroke-width:0.50002497;stroke-linecap:square;stroke-linejoin:round;stroke-miterlimit:10;stroke-dasharray:none;stroke-opacity:1"
         d="m 41.191,268.062 h 331.5" /></g><g
       transform="matrix(1,0,0,-1,0,295.10437)"
       id="g850"><path
         inkscape:connector-curvature="0"
         id="path852"
         style="fill:none;stroke:#262626;stroke-width:0.50002497;stroke-linecap:square;stroke-linejoin:round;stroke-miterlimit:10;stroke-dasharray:none;stroke-opacity:1"
         d="m 56.977,268.062 v -3.316" /></g><g
       transform="matrix(1,0,0,-1,0,295.10437)"
       id="g854"><path
         inkscape:connector-curvature="0"
         id="path856"
         style="fill:none;stroke:#262626;stroke-width:0.50002497;stroke-linecap:square;stroke-linejoin:round;stroke-miterlimit:10;stroke-dasharray:none;stroke-opacity:1"
         d="m 120.121,268.062 v -3.316" /></g><g
       transform="matrix(1,0,0,-1,0,295.10437)"
       id="g858"><path
         inkscape:connector-curvature="0"
         id="path860"
         style="fill:none;stroke:#262626;stroke-width:0.50002497;stroke-linecap:square;stroke-linejoin:round;stroke-miterlimit:10;stroke-dasharray:none;stroke-opacity:1"
         d="m 183.266,268.062 v -3.316" /></g><g
       transform="matrix(1,0,0,-1,0,295.10437)"
       id="g862"><path
         inkscape:connector-curvature="0"
         id="path864"
         style="fill:none;stroke:#262626;stroke-width:0.50002497;stroke-linecap:square;stroke-linejoin:round;stroke-miterlimit:10;stroke-dasharray:none;stroke-opacity:1"
         d="m 246.406,268.062 v -3.316" /></g><g
       transform="matrix(1,0,0,-1,0,295.10437)"
       id="g866"><path
         inkscape:connector-curvature="0"
         id="path868"
         style="fill:none;stroke:#262626;stroke-width:0.50002497;stroke-linecap:square;stroke-linejoin:round;stroke-miterlimit:10;stroke-dasharray:none;stroke-opacity:1"
         d="m 309.551,268.062 v -3.316" /></g><g
       transform="matrix(1,0,0,-1,0,295.10437)"
       id="g870"><path
         inkscape:connector-curvature="0"
         id="path872"
         style="fill:none;stroke:#262626;stroke-width:0.50002497;stroke-linecap:square;stroke-linejoin:round;stroke-miterlimit:10;stroke-dasharray:none;stroke-opacity:1"
         d="m 372.691,268.062 v -3.316" /></g><text
       id="text876"
       style="font-variant:normal;font-weight:normal;font-size:9px;font-family:'DejaVu Sans';-inkscape-font-specification:DejaVuSans;writing-mode:lr-tb;fill:#262626;fill-opacity:1;fill-rule:nonzero;stroke:none"
       transform="scale(1,-1)"
       x="53.603313"
       y="-16.291893"><tspan
         id="tspan874"
         sodipodi:role="line"
         y="-16.291893"
         x="53.603313 112.24731 117.97131 120.82431 175.38904 181.11305 183.96605 238.52405 244.24805 247.10104 301.67474 307.39874 310.25174 369.30975">11.21.41.61.82</tspan></text>
<g
       transform="matrix(1,0,0,-1,0,295.10437)"
       id="g878"><path
         inkscape:connector-curvature="0"
         id="path880"
         style="fill:none;stroke:#262626;stroke-width:0.50002497;stroke-linecap:square;stroke-linejoin:round;stroke-miterlimit:10;stroke-dasharray:none;stroke-opacity:1"
         d="m 41.191,268.062 v -258" /></g><g
       transform="matrix(1,0,0,-1,0,295.10437)"
       id="g882"><path
         inkscape:connector-curvature="0"
         id="path884"
         style="fill:none;stroke:#262626;stroke-width:0.50002497;stroke-linecap:square;stroke-linejoin:round;stroke-miterlimit:10;stroke-dasharray:none;stroke-opacity:1"
         d="m 41.191,258.891 h 3.317" /></g><g
       transform="matrix(1,0,0,-1,0,295.10437)"
       id="g886"><path
         inkscape:connector-curvature="0"
         id="path888"
         style="fill:none;stroke:#262626;stroke-width:0.50002497;stroke-linecap:square;stroke-linejoin:round;stroke-miterlimit:10;stroke-dasharray:none;stroke-opacity:1"
         d="m 41.191,233.742 h 3.317" /></g><g
       transform="matrix(1,0,0,-1,0,295.10437)"
       id="g890"><path
         inkscape:connector-curvature="0"
         id="path892"
         style="fill:none;stroke:#262626;stroke-width:0.50002497;stroke-linecap:square;stroke-linejoin:round;stroke-miterlimit:10;stroke-dasharray:none;stroke-opacity:1"
         d="m 41.191,208.594 h 3.317" /></g><g
       transform="matrix(1,0,0,-1,0,295.10437)"
       id="g894"><path
         inkscape:connector-curvature="0"
         id="path896"
         style="fill:none;stroke:#262626;stroke-width:0.50002497;stroke-linecap:square;stroke-linejoin:round;stroke-miterlimit:10;stroke-dasharray:none;stroke-opacity:1"
         d="m 41.191,183.441 h 3.317" /></g><g
       transform="matrix(1,0,0,-1,0,295.10437)"
       id="g898"><path
         inkscape:connector-curvature="0"
         id="path900"
         style="fill:none;stroke:#262626;stroke-width:0.50002497;stroke-linecap:square;stroke-linejoin:round;stroke-miterlimit:10;stroke-dasharray:none;stroke-opacity:1"
         d="m 41.191,158.293 h 3.317" /></g><g
       transform="matrix(1,0,0,-1,0,295.10437)"
       id="g902"><path
         inkscape:connector-curvature="0"
         id="path904"
         style="fill:none;stroke:#262626;stroke-width:0.50002497;stroke-linecap:square;stroke-linejoin:round;stroke-miterlimit:10;stroke-dasharray:none;stroke-opacity:1"
         d="m 41.191,133.145 h 3.317" /></g><g
       transform="matrix(1,0,0,-1,0,295.10437)"
       id="g906"><path
         inkscape:connector-curvature="0"
         id="path908"
         style="fill:none;stroke:#262626;stroke-width:0.50002497;stroke-linecap:square;stroke-linejoin:round;stroke-miterlimit:10;stroke-dasharray:none;stroke-opacity:1"
         d="m 41.191,107.996 h 3.317" /></g><g
       transform="matrix(1,0,0,-1,0,295.10437)"
       id="g910"><path
         inkscape:connector-curvature="0"
         id="path912"
         style="fill:none;stroke:#262626;stroke-width:0.50002497;stroke-linecap:square;stroke-linejoin:round;stroke-miterlimit:10;stroke-dasharray:none;stroke-opacity:1"
         d="m 41.191,82.848 h 3.317" /></g><g
       transform="matrix(1,0,0,-1,0,295.10437)"
       id="g914"><path
         inkscape:connector-curvature="0"
         id="path916"
         style="fill:none;stroke:#262626;stroke-width:0.50002497;stroke-linecap:square;stroke-linejoin:round;stroke-miterlimit:10;stroke-dasharray:none;stroke-opacity:1"
         d="m 41.191,57.699 h 3.317" /></g><g
       transform="matrix(1,0,0,-1,0,295.10437)"
       id="g918"><path
         inkscape:connector-curvature="0"
         id="path920"
         style="fill:none;stroke:#262626;stroke-width:0.50002497;stroke-linecap:square;stroke-linejoin:round;stroke-miterlimit:10;stroke-dasharray:none;stroke-opacity:1"
         d="m 41.191,32.547 h 3.317" /></g><text
       id="text942"
       style="font-variant:normal;font-weight:normal;font-size:9px;font-family:'DejaVu Sans';-inkscape-font-specification:DejaVuSans;writing-mode:lr-tb;fill:#262626;fill-opacity:1;fill-rule:nonzero;stroke:none"
       transform="scale(1,-1)"
       x="20.310854"
       y="-32.838905"><tspan
         id="tspan922"
         sodipodi:role="line"
         y="-32.838905"
         x="20.310854 23.550854 29.274855 32.127853">-1.8</tspan><tspan
         id="tspan924"
         sodipodi:role="line"
         y="-57.987984"
         x="20.262514 23.502514 29.226515 32.079514">-1.6</tspan><tspan
         id="tspan926"
         sodipodi:role="line"
         y="-83.137062"
         x="20.200991 23.44099 29.164991 32.01799">-1.4</tspan><tspan
         id="tspan928"
         sodipodi:role="line"
         y="-108.28613"
         x="20.5965 23.8365 29.560501 32.413502">-1.2</tspan><tspan
         id="tspan930"
         sodipodi:role="line"
         y="-133.43527"
         x="20.293276 23.533276 29.257277 32.110275">-1.0</tspan><tspan
         id="tspan932"
         sodipodi:role="line"
         y="-158.58434"
         x="20.310854 23.550854 29.274855 32.127853">-0.8</tspan><tspan
         id="tspan934"
         sodipodi:role="line"
         y="-183.73341"
         x="20.262514 23.502514 29.226515 32.079514">-0.6</tspan><tspan
         id="tspan936"
         sodipodi:role="line"
         y="-208.88258"
         x="20.200991 23.44099 29.164991 32.01799">-0.4</tspan><tspan
         id="tspan938"
         sodipodi:role="line"
         y="-234.03165"
         x="20.5965 23.8365 29.560501 32.413502">-0.2</tspan><tspan
         id="tspan940"
         y="-259.18073"
         x="32.140934">0</tspan></text>
<g
       transform="matrix(1,0,0,-1,0,295.10437)"
       id="g944"><path
         inkscape:connector-curvature="0"
         id="path946"
         style="fill:none;stroke:#0072bd;stroke-width:1.125;stroke-linecap:butt;stroke-linejoin:round;stroke-miterlimit:10;stroke-dasharray:none;stroke-opacity:1"
         d="m 51.613,10.031 c 12.996,55.11 28.301,110.914 58.43,159.43 19.383,31.269 48.109,57.34 83.008,69.926 45.554,16.699 94.945,16.476 142.808,15.484 12.297,-0.359 24.59,-0.898 36.871,-1.547" /></g><path
       inkscape:connector-curvature="0"
       id="path1354"
       style="fill:#77ac30;fill-opacity:1;fill-rule:nonzero;stroke:none"
       d="m 58.707,262.557 c 0,-0.957 -0.773,-1.73 -1.73,-1.73 -0.954,0 -1.727,0.773 -1.727,1.73 0,0.954 0.773,1.727 1.727,1.727 0.957,0 1.73,-0.773 1.73,-1.727 z" /><g
       transform="matrix(1,0,0,-1,0,295.10437)"
       id="g1402"><path
         inkscape:connector-curvature="0"
         id="path1404"
         style="fill:none;stroke:#000000;stroke-width:0.478825;stroke-linecap:square;stroke-linejoin:miter;stroke-miterlimit:10;stroke-dasharray:none;stroke-opacity:1"
         d="M 140.887,5.992 H 322.129 V 45.265 H 140.887 Z" /></g><g
       transform="matrix(1,0,0,-1,0,295.10437)"
       id="g1412"><path
         inkscape:connector-curvature="0"
         id="path1414"
         style="fill:none;stroke:#0072bd;stroke-width:1.125;stroke-linecap:butt;stroke-linejoin:round;stroke-miterlimit:10;stroke-dasharray:none;stroke-opacity:1"
         d="m 235.008,36.996 h 16.101" /></g><path
       inkscape:connector-curvature="0"
       id="path1602"
       style="fill:#000000;fill-opacity:1;fill-rule:nonzero;stroke:none"
       d="m 149.734,281.843 c 0,-1.051 -0.851,-1.899 -1.898,-1.899 -1.051,0 -1.902,0.848 -1.902,1.899 0,1.05 0.851,1.902 1.902,1.902 1.047,0 1.898,-0.852 1.898,-1.902 z" /><path
       inkscape:connector-curvature="0"
       id="path1604"
       style="fill:#000000;fill-opacity:1;fill-rule:nonzero;stroke:none"
       d="m 59.105,262.374 c 0,-1.051 -0.851,-1.902 -1.902,-1.902 -1.051,0 -1.898,0.851 -1.898,1.902 0,1.051 0.847,1.898 1.898,1.898 1.051,0 1.902,-0.847 1.902,-1.898 z" /><path
       inkscape:connector-curvature="0"
       id="path1606"
       style="fill:#000000;fill-opacity:1;fill-rule:nonzero;stroke:none"
       d="m 204.305,13.991 -1.325,-1.344 0.168,-0.168 1.157,1 1.125,-1 0.172,0.168 z" /><path
       inkscape:connector-curvature="0"
       id="path1608"
       style="fill:#000000;fill-opacity:1;fill-rule:nonzero;stroke:none"
       d="m 203.391,10.718 c 0.062,0.23 0.093,0.324 0.277,0.355 0.094,0.016 0.402,0.016 0.602,0.016 0.695,0 1.789,0 1.789,-0.973 0,-0.34 -0.153,-1.019 -0.539,-1.402 -0.262,-0.25 -0.77,-0.574 -1.665,-0.574 h -1.097 z m 1.421,-2.7 c 1,0.215 2.157,0.911 2.157,1.899 0,0.848 -0.879,1.48 -2.172,1.48 h -2.793 c -0.199,0 -0.293,0 -0.293,-0.203 0,-0.105 0.094,-0.105 0.277,-0.105 0.016,0 0.2,0 0.371,-0.016 0.184,-0.031 0.262,-0.031 0.262,-0.172 0,-0.031 0,-0.062 -0.031,-0.183 L 201.262,5.44 c -0.09,-0.383 -0.106,-0.461 -0.895,-0.461 -0.168,0 -0.262,0 -0.262,-0.199 0,-0.109 0.125,-0.109 0.141,-0.109 0.277,0 0.973,0.031 1.234,0.031 0.278,0 0.985,-0.031 1.262,-0.031 0.078,0 0.188,0 0.188,0.199 0,0.109 -0.078,0.109 -0.278,0.109 -0.355,0 -0.632,0 -0.632,0.168 0,0.063 0.015,0.11 0.031,0.172 l 0.648,2.606 h 1.172 c 0.895,0 1.063,-0.555 1.063,-0.895 0,-0.137 -0.079,-0.445 -0.137,-0.68 -0.063,-0.277 -0.156,-0.628 -0.156,-0.832 0,-1.062 1.187,-1.062 1.312,-1.062 0.832,0 1.188,0.984 1.188,1.125 0,0.125 -0.11,0.125 -0.125,0.125 -0.09,0 -0.106,-0.063 -0.121,-0.141 -0.25,-0.726 -0.68,-0.894 -0.895,-0.894 -0.324,0 -0.402,0.215 -0.402,0.601 0,0.309 0.062,0.801 0.109,1.125 0.016,0.141 0.031,0.325 0.031,0.465 0,0.754 -0.664,1.063 -0.926,1.156 z" /><path
       inkscape:connector-curvature="0"
       id="path1610"
       style="fill:#000000;fill-opacity:1;fill-rule:nonzero;stroke:none"
       d="m 2.543,150.843 1.676,-1.653 0.211,0.211 -1.25,1.442 1.25,1.406 -0.211,0.211 z" /><path
       inkscape:connector-curvature="0"
       id="path1612"
       style="fill:#000000;fill-opacity:1;fill-rule:nonzero;stroke:none"
       d="m 12.57,147.28 c 0.422,-0.094 0.5,-0.133 0.5,-0.672 0,-0.133 0,-0.269 0.231,-0.269 0.094,0 0.152,0.058 0.152,0.156 0,0.324 -0.039,0.691 -0.039,1.02 0,0.421 0.039,0.824 0.039,1.23 0,0.059 0,0.211 -0.25,0.211 -0.133,0 -0.133,-0.117 -0.133,-0.289 0,-0.613 -0.078,-0.613 -0.195,-0.613 -0.152,0 -2.152,0.515 -2.461,0.593 0.363,0.157 0.789,0.5 0.789,1.137 0,1.422 -1.789,2.961 -3.598,2.961 -1.156,0 -1.964,-0.711 -1.964,-1.633 0,-0.617 0.445,-1.215 0.925,-1.617 -0.675,-0.117 -0.925,-0.656 -0.925,-1.098 0,-0.578 0.48,-0.808 0.695,-0.902 0.422,-0.23 1.152,-0.387 1.191,-0.387 0.133,0 0.133,0.117 0.133,0.137 0,0.133 -0.015,0.133 -0.285,0.211 -0.867,0.211 -1.465,0.461 -1.465,0.902 0,0.211 0.098,0.387 0.559,0.387 0.289,0 0.422,-0.039 0.636,-0.098 z m -5.332,2.156 c -0.328,0.079 -0.672,0.426 -0.867,0.637 -0.363,0.442 -0.461,0.789 -0.461,1 0,0.481 0.426,0.789 1.156,0.789 0.731,0 2.133,-0.406 2.598,-0.637 0.863,-0.421 1.27,-1 1.27,-1.46 0,-0.809 -1.02,-0.961 -1.098,-0.961 -0.02,0 -0.039,0 -0.191,0.035 z" /><path
       inkscape:connector-curvature="0"
       id="path1718"
       style="fill:#000000;fill-opacity:1;fill-rule:nonzero;stroke:none"
       d="m 158.18,285.667 -1.207,-1.227 0.152,-0.152 1.055,0.914 1.027,-0.914 0.156,0.152 z" /><path
       inkscape:connector-curvature="0"
       id="path1720"
       style="fill:#000000;fill-opacity:1;fill-rule:nonzero;stroke:none"
       d="m 155.578,278.339 c -0.07,-0.309 -0.098,-0.367 -0.492,-0.367 -0.098,0 -0.199,0 -0.199,-0.168 0,-0.071 0.043,-0.114 0.113,-0.114 0.238,0 0.508,0.032 0.746,0.032 0.309,0 0.606,-0.032 0.899,-0.032 0.043,0 0.156,0 0.156,0.184 0,0.098 -0.086,0.098 -0.211,0.098 -0.449,0 -0.449,0.058 -0.449,0.14 0,0.113 0.379,1.578 0.433,1.801 0.114,-0.266 0.367,-0.574 0.832,-0.574 1.039,0 2.164,1.304 2.164,2.629 0,0.843 -0.519,1.433 -1.195,1.433 -0.449,0 -0.887,-0.324 -1.18,-0.676 -0.086,0.493 -0.48,0.676 -0.8,0.676 -0.422,0 -0.594,-0.351 -0.665,-0.508 -0.168,-0.308 -0.281,-0.843 -0.281,-0.871 0,-0.097 0.086,-0.097 0.102,-0.097 0.097,0 0.097,0.015 0.152,0.211 0.156,0.632 0.34,1.07 0.66,1.07 0.157,0 0.282,-0.07 0.282,-0.41 0,-0.211 -0.028,-0.309 -0.071,-0.465 z m 1.574,3.894 c 0.055,0.239 0.309,0.492 0.465,0.633 0.324,0.27 0.574,0.34 0.731,0.34 0.351,0 0.578,-0.313 0.578,-0.844 0,-0.535 -0.297,-1.562 -0.465,-1.898 -0.309,-0.633 -0.731,-0.93 -1.07,-0.93 -0.59,0 -0.703,0.746 -0.703,0.801 0,0.015 0,0.027 0.027,0.14 z" /><path
       inkscape:connector-curvature="0"
       id="path1722"
       style="fill:#000000;fill-opacity:1;fill-rule:nonzero;stroke:none"
       d="m 162.648,277.284 c 0,0.027 0,0.043 -0.156,0.195 -1.109,1.125 -1.406,2.828 -1.406,4.207 0,1.559 0.34,3.121 1.449,4.231 0.113,0.113 0.113,0.129 0.113,0.156 0,0.07 -0.027,0.098 -0.086,0.098 -0.097,0 -0.898,-0.617 -1.433,-1.758 -0.449,-0.984 -0.563,-1.981 -0.563,-2.727 0,-0.703 0.098,-1.785 0.59,-2.812 0.551,-1.098 1.309,-1.688 1.406,-1.688 0.059,0 0.086,0.028 0.086,0.098 z" /><path
       inkscape:connector-curvature="0"
       id="path1724"
       style="fill:#000000;fill-opacity:1;fill-rule:nonzero;stroke:none"
       d="m 165.984,285.667 -1.211,-1.227 0.157,-0.152 1.054,0.914 1.028,-0.914 0.152,0.152 z" /><path
       inkscape:connector-curvature="0"
       id="path1726"
       style="fill:#000000;fill-opacity:1;fill-rule:nonzero;stroke:none"
       d="m 166.164,282.151 c 0.055,0.223 0.266,1.055 0.887,1.055 0.039,0 0.265,0 0.449,-0.113 -0.254,-0.059 -0.422,-0.27 -0.422,-0.493 0,-0.14 0.098,-0.308 0.336,-0.308 0.199,0 0.481,0.152 0.481,0.519 0,0.465 -0.524,0.59 -0.833,0.59 -0.519,0 -0.828,-0.476 -0.941,-0.676 -0.226,0.59 -0.703,0.676 -0.969,0.676 -0.929,0 -1.449,-1.152 -1.449,-1.379 0,-0.097 0.098,-0.097 0.113,-0.097 0.071,0 0.098,0.027 0.11,0.097 0.312,0.957 0.902,1.184 1.211,1.184 0.168,0 0.476,-0.086 0.476,-0.606 0,-0.281 -0.152,-0.871 -0.476,-2.136 -0.141,-0.551 -0.465,-0.93 -0.86,-0.93 -0.054,0 -0.25,0 -0.449,0.113 0.227,0.055 0.422,0.239 0.422,0.493 0,0.238 -0.195,0.308 -0.324,0.308 -0.281,0 -0.492,-0.226 -0.492,-0.519 0,-0.411 0.437,-0.59 0.832,-0.59 0.605,0 0.925,0.633 0.941,0.672 0.113,-0.321 0.438,-0.672 0.969,-0.672 0.929,0 1.437,1.152 1.437,1.375 0,0.101 -0.07,0.101 -0.101,0.101 -0.082,0 -0.098,-0.043 -0.125,-0.101 -0.297,-0.969 -0.899,-1.18 -1.18,-1.18 -0.352,0 -0.492,0.281 -0.492,0.59 0,0.199 0.039,0.394 0.14,0.789 z" /><path
       inkscape:connector-curvature="0"
       id="path1728"
       style="fill:#000000;fill-opacity:1;fill-rule:nonzero;stroke:none"
       d="m 170.316,284.249 c 0.524,0.226 0.746,0.312 0.903,0.394 0.125,0.043 0.183,0.071 0.183,0.2 0,0.097 -0.086,0.195 -0.199,0.195 -0.043,0 -0.055,0 -0.125,-0.055 l -0.859,-0.578 0.097,0.93 c 0.016,0.109 0,0.265 -0.195,0.265 -0.07,0 -0.195,-0.043 -0.195,-0.183 0,-0.055 0.027,-0.238 0.039,-0.309 0.015,-0.097 0.058,-0.562 0.07,-0.703 l -0.855,0.578 c -0.059,0.028 -0.071,0.055 -0.129,0.055 -0.125,0 -0.196,-0.098 -0.196,-0.195 0,-0.129 0.071,-0.172 0.125,-0.184 l 0.946,-0.41 c -0.508,-0.223 -0.746,-0.309 -0.903,-0.379 -0.113,-0.055 -0.168,-0.082 -0.168,-0.195 0,-0.114 0.071,-0.2 0.196,-0.2 0.043,0 0.058,0 0.129,0.059 l 0.855,0.563 -0.109,-1 c 0,-0.141 0.125,-0.196 0.195,-0.196 0.086,0 0.195,0.055 0.195,0.196 0,0.058 -0.027,0.238 -0.027,0.296 -0.012,0.114 -0.055,0.563 -0.07,0.704 l 0.746,-0.493 c 0.168,-0.129 0.183,-0.129 0.238,-0.129 0.113,0 0.199,0.086 0.199,0.2 0,0.125 -0.086,0.152 -0.14,0.183 z" /><path
       inkscape:connector-curvature="0"
       id="path1732"
       style="fill:#000000;fill-opacity:1;fill-rule:nonzero;stroke:none"
       d="m 178.246,283.022 h 0.844 c 0.183,0 0.281,0 0.281,0.184 0,0.098 -0.098,0.098 -0.254,0.098 h -0.789 c 0.324,1.277 0.367,1.449 0.367,1.503 0,0.157 -0.113,0.239 -0.265,0.239 -0.032,0 -0.282,0 -0.352,-0.324 l -0.351,-1.418 h -0.844 c -0.184,0 -0.27,0 -0.27,-0.168 0,-0.114 0.071,-0.114 0.254,-0.114 h 0.789 c -0.648,-2.547 -0.691,-2.699 -0.691,-2.855 0,-0.492 0.34,-0.828 0.832,-0.828 0.914,0 1.418,1.304 1.418,1.375 0,0.101 -0.07,0.101 -0.098,0.101 -0.086,0 -0.097,-0.031 -0.14,-0.129 -0.379,-0.941 -0.86,-1.152 -1.168,-1.152 -0.184,0 -0.282,0.113 -0.282,0.406 0,0.227 0.028,0.282 0.059,0.438 z" /><path
       inkscape:connector-curvature="0"
       id="path1734"
       style="fill:#000000;fill-opacity:1;fill-rule:nonzero;stroke:none"
       d="m 180.398,283.085 c -0.015,-0.086 -0.058,-0.242 -0.058,-0.254 0,-0.141 0.113,-0.199 0.211,-0.199 0.113,0 0.211,0.07 0.254,0.129 0.027,0.054 0.07,0.265 0.113,0.394 0.027,0.11 0.098,0.406 0.125,0.563 0.043,0.14 0.086,0.281 0.113,0.422 0.071,0.25 0.086,0.308 0.266,0.562 0.172,0.25 0.465,0.574 0.945,0.574 0.352,0 0.363,-0.324 0.363,-0.433 0,-0.383 -0.265,-1.071 -0.363,-1.336 -0.07,-0.184 -0.101,-0.242 -0.101,-0.34 0,-0.336 0.269,-0.535 0.593,-0.535 0.633,0 0.899,0.859 0.899,0.957 0,0.086 -0.07,0.086 -0.098,0.086 -0.086,0 -0.086,-0.043 -0.113,-0.114 -0.141,-0.507 -0.422,-0.757 -0.66,-0.757 -0.141,0 -0.168,0.082 -0.168,0.222 0,0.141 0.039,0.227 0.152,0.508 0.07,0.195 0.324,0.856 0.324,1.207 0,0.606 -0.476,0.719 -0.816,0.719 -0.52,0 -0.871,-0.324 -1.055,-0.578 -0.043,0.437 -0.406,0.578 -0.676,0.578 -0.265,0 -0.406,-0.195 -0.492,-0.336 -0.14,-0.242 -0.222,-0.594 -0.222,-0.633 0,-0.07 0.082,-0.07 0.113,-0.07 0.082,0 0.082,0.011 0.125,0.179 0.098,0.368 0.226,0.676 0.465,0.676 0.168,0 0.211,-0.14 0.211,-0.308 0,-0.114 -0.059,-0.352 -0.114,-0.52 -0.043,-0.168 -0.097,-0.422 -0.125,-0.562 z" /><path
       inkscape:connector-curvature="0"
       id="path1736"
       style="fill:#000000;fill-opacity:1;fill-rule:nonzero;stroke:none"
       d="m 187.105,281.686 c 0,0.688 -0.097,1.77 -0.589,2.797 -0.536,1.098 -1.309,1.688 -1.395,1.688 -0.055,0 -0.098,-0.043 -0.098,-0.098 0,-0.027 0,-0.043 0.168,-0.211 0.887,-0.887 1.395,-2.305 1.395,-4.176 0,-1.546 -0.324,-3.121 -1.434,-4.246 -0.129,-0.113 -0.129,-0.129 -0.129,-0.156 0,-0.055 0.043,-0.098 0.098,-0.098 0.086,0 0.902,0.618 1.422,1.758 0.465,0.985 0.562,1.981 0.562,2.742 z" /><path
       inkscape:connector-curvature="0"
       id="path1738"
       style="fill:#000000;fill-opacity:1;fill-rule:nonzero;stroke:none"
       d="m 189.719,282.823 c 0,0.27 -0.211,0.481 -0.461,0.481 -0.27,0 -0.481,-0.211 -0.481,-0.481 0,-0.25 0.211,-0.476 0.481,-0.476 0.25,0 0.461,0.226 0.461,0.476 z m 0,-2.91 c 0,0.254 -0.211,0.48 -0.461,0.48 -0.27,0 -0.481,-0.226 -0.481,-0.48 0,-0.266 0.211,-0.477 0.481,-0.477 0.25,0 0.461,0.211 0.461,0.477 z" /><path
       inkscape:connector-curvature="0"
       id="path1740"
       style="fill:#000000;fill-opacity:1;fill-rule:nonzero;stroke:none"
       d="m 197.152,281.46 c 0.141,0 0.309,0 0.309,0.156 0,0.125 -0.109,0.125 -0.266,0.125 h -1.449 c 0.211,0.762 0.719,1.281 1.535,1.281 h 0.281 c 0.153,0 0.293,0 0.293,0.153 0,0.129 -0.113,0.129 -0.265,0.129 h -0.324 c -1.168,0 -2.364,-0.903 -2.364,-2.266 0,-0.996 0.676,-1.699 1.618,-1.699 0.589,0 1.168,0.363 1.168,0.461 0,0.015 0,0.113 -0.086,0.113 -0.012,0 -0.04,0 -0.11,-0.043 -0.281,-0.18 -0.621,-0.336 -0.945,-0.336 -0.52,0 -0.969,0.379 -0.969,1.168 0,0.309 0.07,0.66 0.098,0.758 z" /><path
       inkscape:connector-curvature="0"
       id="path1742"
       style="fill:#000000;fill-opacity:1;fill-rule:nonzero;stroke:none"
       d="m 206.77,282.374 c 0.14,0 0.308,0 0.308,0.168 0,0.183 -0.168,0.183 -0.293,0.183 h -5.371 c -0.129,0 -0.297,0 -0.297,-0.183 0,-0.168 0.168,-0.168 0.297,-0.168 z m 0.015,-1.742 c 0.125,0 0.293,0 0.293,0.183 0,0.168 -0.168,0.168 -0.308,0.168 h -5.356 c -0.129,0 -0.297,0 -0.297,-0.168 0,-0.183 0.168,-0.183 0.297,-0.183 z" /><path
       inkscape:connector-curvature="0"
       id="path1744"
       style="fill:#000000;fill-opacity:1;fill-rule:nonzero;stroke:none"
       d="m 214.199,282.304 c 0,0.718 -0.043,1.433 -0.351,2.097 -0.41,0.871 -1.157,1.012 -1.52,1.012 -0.551,0 -1.195,-0.238 -1.574,-1.07 -0.281,-0.618 -0.324,-1.321 -0.324,-2.039 0,-0.676 0.027,-1.477 0.406,-2.164 0.379,-0.719 1.043,-0.903 1.476,-0.903 0.481,0 1.168,0.184 1.563,1.043 0.281,0.617 0.324,1.32 0.324,2.024 z m -1.887,-2.868 c -0.351,0 -0.886,0.223 -1.039,1.082 -0.097,0.536 -0.097,1.364 -0.097,1.899 0,0.578 0,1.168 0.07,1.644 0.168,1.071 0.844,1.153 1.066,1.153 0.297,0 0.887,-0.168 1.055,-1.055 0.098,-0.504 0.098,-1.18 0.098,-1.742 0,-0.676 0,-1.281 -0.098,-1.856 -0.14,-0.859 -0.644,-1.125 -1.055,-1.125 z" /><path
       inkscape:connector-curvature="0"
       id="path1812"
       style="fill:#000000;fill-opacity:1;fill-rule:nonzero;stroke:none"
       d="m 256.258,263.46 -1.102,-1.113 0.141,-0.141 0.961,0.828 0.933,-0.828 0.141,0.141 z" /><path
       inkscape:connector-curvature="0"
       id="path1814"
       style="fill:#000000;fill-opacity:1;fill-rule:nonzero;stroke:none"
       d="m 255.449,258.901 h 0.703 c 0.164,0 0.243,0 0.243,0.164 0,0.09 -0.079,0.09 -0.219,0.09 H 255.5 l 0.164,0.934 c 0.039,0.168 0.156,0.742 0.207,0.843 0.063,0.157 0.203,0.286 0.383,0.286 0.027,0 0.242,0 0.398,-0.157 -0.359,-0.023 -0.449,-0.32 -0.449,-0.433 0,-0.192 0.152,-0.297 0.309,-0.297 0.215,0 0.445,0.195 0.445,0.5 0,0.371 -0.371,0.562 -0.703,0.562 -0.281,0 -0.793,-0.152 -1.035,-0.957 -0.051,-0.168 -0.078,-0.257 -0.27,-1.281 h -0.562 c -0.168,0 -0.258,0 -0.258,-0.152 0,-0.102 0.078,-0.102 0.23,-0.102 h 0.539 l -0.601,-3.226 c -0.152,-0.793 -0.293,-1.535 -0.719,-1.535 -0.035,0 -0.226,0 -0.394,0.156 0.382,0.023 0.461,0.316 0.461,0.433 0,0.192 -0.153,0.293 -0.309,0.293 -0.215,0 -0.445,-0.191 -0.445,-0.5 0,-0.355 0.355,-0.562 0.687,-0.562 0.449,0 0.781,0.488 0.922,0.793 0.27,0.512 0.449,1.5 0.461,1.562 z" /><path
       inkscape:connector-curvature="0"
       id="path1816"
       style="fill:#000000;fill-opacity:1;fill-rule:nonzero;stroke:none"
       d="m 258.355,258.046 c 0,0.156 0,0.156 -0.167,0.156 -0.372,-0.359 -0.883,-0.359 -1.114,-0.359 v -0.203 c 0.129,0 0.512,0 0.821,0.152 v -2.906 c 0,-0.192 0,-0.266 -0.563,-0.266 h -0.219 v -0.207 c 0.102,0 0.805,0.027 1.012,0.027 0.18,0 0.895,-0.027 1.023,-0.027 v 0.207 h -0.218 c -0.575,0 -0.575,0.074 -0.575,0.266 z" /><path
       inkscape:connector-curvature="0"
       id="path1818"
       style="fill:#000000;fill-opacity:1;fill-rule:nonzero;stroke:none"
       d="m 262.809,253.679 c 0,0.027 0,0.039 -0.141,0.179 -1.012,1.024 -1.281,2.574 -1.281,3.824 0,1.422 0.308,2.844 1.32,3.852 0.102,0.106 0.102,0.117 0.102,0.141 0,0.066 -0.028,0.09 -0.079,0.09 -0.089,0 -0.82,-0.563 -1.304,-1.598 -0.41,-0.895 -0.512,-1.805 -0.512,-2.485 0,-0.636 0.09,-1.621 0.539,-2.558 0.496,-0.996 1.188,-1.535 1.277,-1.535 0.051,0 0.079,0.027 0.079,0.09 z" /><path
       inkscape:connector-curvature="0"
       id="path1820"
       style="fill:#000000;fill-opacity:1;fill-rule:nonzero;stroke:none"
       d="m 267.098,263.366 -1.102,-1.113 0.141,-0.141 0.961,0.832 0.933,-0.832 0.141,0.141 z" /><path
       inkscape:connector-curvature="0"
       id="path1822"
       style="fill:#000000;fill-opacity:1;fill-rule:nonzero;stroke:none"
       d="m 266.34,260.651 c 0.051,0.196 0.074,0.27 0.226,0.297 0.079,0.012 0.336,0.012 0.5,0.012 0.579,0 1.485,0 1.485,-0.805 0,-0.281 -0.129,-0.848 -0.446,-1.164 -0.218,-0.207 -0.64,-0.476 -1.382,-0.476 h -0.911 z m 1.176,-2.238 c 0.832,0.18 1.789,0.754 1.789,1.574 0,0.703 -0.727,1.231 -1.801,1.231 h -2.316 c -0.168,0 -0.247,0 -0.247,-0.168 0,-0.09 0.079,-0.09 0.231,-0.09 0.016,0 0.168,0 0.308,-0.012 0.153,-0.027 0.219,-0.027 0.219,-0.141 0,-0.027 0,-0.05 -0.027,-0.156 l -1.098,-4.375 c -0.078,-0.32 -0.09,-0.383 -0.742,-0.383 -0.141,0 -0.219,0 -0.219,-0.168 0,-0.089 0.102,-0.089 0.114,-0.089 0.23,0 0.808,0.027 1.023,0.027 0.23,0 0.82,-0.027 1.051,-0.027 0.062,0 0.152,0 0.152,0.168 0,0.089 -0.062,0.089 -0.23,0.089 -0.293,0 -0.524,0 -0.524,0.141 0,0.051 0.012,0.09 0.028,0.141 l 0.535,2.164 h 0.972 c 0.743,0 0.883,-0.461 0.883,-0.742 0,-0.118 -0.062,-0.372 -0.113,-0.567 -0.055,-0.23 -0.129,-0.523 -0.129,-0.687 0,-0.883 0.984,-0.883 1.086,-0.883 0.691,0 0.984,0.816 0.984,0.933 0,0.102 -0.086,0.102 -0.101,0.102 -0.074,0 -0.09,-0.051 -0.102,-0.117 -0.203,-0.602 -0.562,-0.742 -0.742,-0.742 -0.27,0 -0.332,0.179 -0.332,0.5 0,0.257 0.051,0.664 0.09,0.933 0.012,0.117 0.023,0.27 0.023,0.387 0,0.625 -0.547,0.883 -0.765,0.957 z" /><path
       inkscape:connector-curvature="0"
       id="path1824"
       style="fill:#000000;fill-opacity:1;fill-rule:nonzero;stroke:none"
       d="m 271.891,257.682 c 0,0.629 -0.09,1.614 -0.536,2.547 -0.488,1 -1.191,1.536 -1.269,1.536 -0.051,0 -0.086,-0.036 -0.086,-0.09 0,-0.024 0,-0.035 0.152,-0.192 0.805,-0.804 1.266,-2.097 1.266,-3.801 0,-1.406 -0.293,-2.839 -1.305,-3.863 C 270,253.718 270,253.706 270,253.679 c 0,-0.051 0.035,-0.09 0.086,-0.09 0.078,0 0.82,0.562 1.293,1.601 0.422,0.895 0.512,1.805 0.512,2.492 z" /><path
       inkscape:connector-curvature="0"
       id="path1826"
       style="fill:#000000;fill-opacity:1;fill-rule:nonzero;stroke:none"
       d="m 71.066,266.487 -0.988,-1.004 0.125,-0.125 0.863,0.746 0.844,-0.746 0.125,0.125 z" /><path
       inkscape:connector-curvature="0"
       id="path1828"
       style="fill:#000000;fill-opacity:1;fill-rule:nonzero;stroke:none"
       d="m 68.934,260.483 c -0.059,-0.254 -0.082,-0.301 -0.403,-0.301 -0.082,0 -0.164,0 -0.164,-0.14 0,-0.055 0.035,-0.09 0.094,-0.09 0.195,0 0.414,0.023 0.609,0.023 0.254,0 0.496,-0.023 0.739,-0.023 0.035,0 0.129,0 0.129,0.148 0,0.082 -0.071,0.082 -0.176,0.082 -0.367,0 -0.367,0.047 -0.367,0.114 0,0.094 0.312,1.293 0.359,1.476 0.09,-0.218 0.297,-0.472 0.68,-0.472 0.851,0 1.773,1.07 1.773,2.156 0,0.691 -0.426,1.176 -0.98,1.176 -0.368,0 -0.727,-0.266 -0.969,-0.555 -0.067,0.402 -0.391,0.555 -0.656,0.555 -0.344,0 -0.485,-0.289 -0.54,-0.414 -0.14,-0.254 -0.234,-0.692 -0.234,-0.715 0,-0.082 0.07,-0.082 0.082,-0.082 0.082,0 0.082,0.011 0.129,0.172 0.125,0.519 0.273,0.875 0.539,0.875 0.129,0 0.231,-0.055 0.231,-0.332 0,-0.172 -0.024,-0.254 -0.055,-0.379 z m 1.293,3.192 c 0.043,0.195 0.25,0.402 0.378,0.519 0.266,0.219 0.473,0.274 0.598,0.274 0.289,0 0.473,-0.25 0.473,-0.692 0,-0.437 -0.242,-1.277 -0.379,-1.554 -0.254,-0.52 -0.602,-0.762 -0.875,-0.762 -0.484,0 -0.578,0.613 -0.578,0.66 0,0.012 0,0.02 0.023,0.113 z" /><path
       inkscape:connector-curvature="0"
       id="path1830"
       style="fill:#000000;fill-opacity:1;fill-rule:nonzero;stroke:none"
       d="m 74.73,259.616 c 0,0.024 0,0.035 -0.128,0.164 -0.911,0.922 -1.153,2.317 -1.153,3.445 0,1.278 0.278,2.559 1.188,3.469 0.093,0.094 0.093,0.102 0.093,0.125 0,0.059 -0.023,0.082 -0.07,0.082 -0.082,0 -0.738,-0.508 -1.176,-1.441 -0.367,-0.805 -0.461,-1.625 -0.461,-2.235 0,-0.578 0.082,-1.464 0.485,-2.304 0.449,-0.899 1.07,-1.383 1.152,-1.383 0.047,0 0.07,0.023 0.07,0.078 z" /><path
       inkscape:connector-curvature="0"
       id="path1832"
       style="fill:#000000;fill-opacity:1;fill-rule:nonzero;stroke:none"
       d="m 77.461,266.487 -0.988,-1.004 0.125,-0.125 0.863,0.746 0.844,-0.746 0.125,0.125 z" /><path
       inkscape:connector-curvature="0"
       id="path1834"
       style="fill:#000000;fill-opacity:1;fill-rule:nonzero;stroke:none"
       d="m 77.609,263.604 c 0.047,0.184 0.219,0.864 0.727,0.864 0.035,0 0.219,0 0.367,-0.09 -0.207,-0.047 -0.344,-0.219 -0.344,-0.403 0,-0.117 0.082,-0.253 0.278,-0.253 0.16,0 0.39,0.125 0.39,0.425 0,0.379 -0.425,0.485 -0.679,0.485 -0.426,0 -0.68,-0.395 -0.774,-0.555 -0.183,0.484 -0.574,0.555 -0.793,0.555 -0.761,0 -1.187,-0.946 -1.187,-1.129 0,-0.082 0.078,-0.082 0.09,-0.082 0.058,0 0.082,0.023 0.093,0.082 0.254,0.781 0.739,0.965 0.993,0.965 0.136,0 0.39,-0.067 0.39,-0.493 0,-0.23 -0.125,-0.714 -0.39,-1.753 -0.118,-0.45 -0.383,-0.762 -0.704,-0.762 -0.046,0 -0.207,0 -0.371,0.094 0.188,0.046 0.348,0.195 0.348,0.402 0,0.195 -0.16,0.254 -0.266,0.254 -0.23,0 -0.402,-0.184 -0.402,-0.426 0,-0.336 0.355,-0.484 0.68,-0.484 0.496,0 0.761,0.519 0.769,0.554 0.094,-0.265 0.36,-0.554 0.797,-0.554 0.762,0 1.176,0.945 1.176,1.129 0,0.082 -0.059,0.082 -0.082,0.082 -0.067,0 -0.078,-0.036 -0.102,-0.082 -0.242,-0.793 -0.738,-0.969 -0.968,-0.969 -0.29,0 -0.403,0.23 -0.403,0.484 0,0.164 0.035,0.324 0.113,0.649 z" /><path
       inkscape:connector-curvature="0"
       id="path1836"
       style="fill:#000000;fill-opacity:1;fill-rule:nonzero;stroke:none"
       d="m 81.016,265.327 c 0.425,0.184 0.609,0.254 0.738,0.32 0.101,0.035 0.148,0.059 0.148,0.164 0,0.079 -0.07,0.161 -0.16,0.161 -0.035,0 -0.047,0 -0.105,-0.047 l -0.703,-0.473 0.082,0.762 c 0.011,0.093 0,0.218 -0.164,0.218 -0.055,0 -0.161,-0.035 -0.161,-0.148 0,-0.047 0.024,-0.195 0.036,-0.254 0.011,-0.082 0.046,-0.461 0.058,-0.578 l -0.703,0.473 c -0.047,0.023 -0.059,0.047 -0.105,0.047 -0.102,0 -0.161,-0.082 -0.161,-0.161 0,-0.105 0.059,-0.14 0.102,-0.152 l 0.773,-0.332 c -0.414,-0.184 -0.609,-0.254 -0.738,-0.312 -0.09,-0.047 -0.137,-0.067 -0.137,-0.161 0,-0.093 0.059,-0.16 0.161,-0.16 0.035,0 0.046,0 0.105,0.043 l 0.703,0.461 -0.094,-0.816 c 0,-0.117 0.106,-0.16 0.161,-0.16 0.07,0 0.164,0.043 0.164,0.16 0,0.047 -0.024,0.195 -0.024,0.242 -0.012,0.09 -0.047,0.461 -0.058,0.574 l 0.609,-0.402 c 0.141,-0.102 0.152,-0.102 0.199,-0.102 0.09,0 0.16,0.067 0.16,0.16 0,0.102 -0.07,0.125 -0.117,0.149 z" /><path
       inkscape:connector-curvature="0"
       id="path1838"
       style="fill:#000000;fill-opacity:1;fill-rule:nonzero;stroke:none"
       d="m 84.23,261.393 c 0,0.485 -0.183,0.77 -0.472,0.77 -0.242,0 -0.391,-0.184 -0.391,-0.391 0,-0.195 0.149,-0.39 0.391,-0.39 0.082,0 0.187,0.035 0.254,0.09 0.023,0.023 0.035,0.023 0.035,0.023 0.012,0 0.012,0 0.012,-0.102 0,-0.554 -0.254,-0.992 -0.497,-1.234 -0.078,-0.082 -0.078,-0.094 -0.078,-0.117 0,-0.055 0.032,-0.078 0.067,-0.078 0.082,0 0.679,0.562 0.679,1.429 z" /><path
       inkscape:connector-curvature="0"
       id="path1840"
       style="fill:#000000;fill-opacity:1;fill-rule:nonzero;stroke:none"
       d="m 89.137,265.843 c 0.058,0.207 0.082,0.254 0.172,0.273 0.07,0.012 0.312,0.012 0.461,0.012 0.75,0 1.074,-0.024 1.074,-0.598 0,-0.117 -0.024,-0.402 -0.059,-0.59 0,-0.031 -0.023,-0.113 -0.023,-0.136 0,-0.047 0.023,-0.106 0.093,-0.106 0.079,0 0.09,0.059 0.114,0.176 l 0.195,1.277 c 0.012,0.035 0.012,0.106 0.012,0.129 0,0.078 -0.067,0.078 -0.196,0.078 h -4.078 c -0.175,0 -0.187,-0.011 -0.242,-0.148 l -0.437,-1.289 c 0,-0.012 -0.047,-0.117 -0.047,-0.141 0,-0.035 0.047,-0.082 0.09,-0.082 0.07,0 0.082,0.047 0.129,0.164 0.39,1.141 0.585,1.266 1.671,1.266 h 0.286 c 0.21,0 0.21,-0.024 0.21,-0.09 0,-0.035 -0.023,-0.129 -0.035,-0.152 l -0.98,-3.93 c -0.07,-0.266 -0.094,-0.344 -0.875,-0.344 -0.266,0 -0.313,0 -0.313,-0.14 0,-0.09 0.082,-0.09 0.125,-0.09 0.2,0 0.407,0.011 0.602,0.011 0.207,0 0.426,0.012 0.633,0.012 0.207,0 0.402,-0.012 0.613,-0.012 0.207,0 0.426,-0.011 0.633,-0.011 0.07,0 0.16,0 0.16,0.148 0,0.082 -0.059,0.082 -0.254,0.082 -0.172,0 -0.277,0 -0.461,0.012 -0.219,0.023 -0.277,0.043 -0.277,0.16 0,0.012 0,0.047 0.035,0.148 z" /><path
       inkscape:connector-curvature="0"
       id="path1842"
       style="fill:#000000;fill-opacity:1;fill-rule:nonzero;stroke:none"
       d="m 93.434,263.225 c 0,0.563 -0.079,1.454 -0.485,2.293 -0.437,0.899 -1.07,1.383 -1.14,1.383 -0.043,0 -0.079,-0.035 -0.079,-0.082 0,-0.023 0,-0.031 0.137,-0.172 0.727,-0.726 1.141,-1.89 1.141,-3.422 0,-1.269 -0.266,-2.558 -1.176,-3.48 -0.102,-0.094 -0.102,-0.105 -0.102,-0.129 0,-0.047 0.036,-0.078 0.079,-0.078 0.07,0 0.738,0.504 1.164,1.437 0.382,0.809 0.461,1.625 0.461,2.25 z" /><path
       inkscape:connector-curvature="0"
       id="path1844"
       style="fill:#000000;fill-opacity:1;fill-rule:nonzero;stroke:none"
       d="m 95.578,264.159 c 0,0.219 -0.172,0.391 -0.379,0.391 -0.219,0 -0.394,-0.172 -0.394,-0.391 0,-0.207 0.175,-0.394 0.394,-0.394 0.207,0 0.379,0.187 0.379,0.394 z m 0,-2.387 c 0,0.207 -0.172,0.391 -0.379,0.391 -0.219,0 -0.394,-0.184 -0.394,-0.391 0,-0.218 0.175,-0.39 0.394,-0.39 0.207,0 0.379,0.172 0.379,0.39 z" /><path
       inkscape:connector-curvature="0"
       id="path1846"
       style="fill:#000000;fill-opacity:1;fill-rule:nonzero;stroke:none"
       d="m 101.668,263.042 c 0.117,0 0.254,0 0.254,0.125 0,0.105 -0.09,0.105 -0.219,0.105 h -1.187 c 0.175,0.621 0.589,1.047 1.257,1.047 h 0.231 c 0.129,0 0.242,0 0.242,0.129 0,0.102 -0.094,0.102 -0.219,0.102 h -0.265 c -0.957,0 -1.938,-0.739 -1.938,-1.856 0,-0.816 0.555,-1.394 1.328,-1.394 0.485,0 0.957,0.3 0.957,0.379 0,0.011 0,0.093 -0.07,0.093 -0.012,0 -0.035,0 -0.094,-0.035 -0.23,-0.148 -0.507,-0.277 -0.769,-0.277 -0.43,0 -0.797,0.312 -0.797,0.957 0,0.254 0.059,0.543 0.082,0.625 z" /><path
       inkscape:connector-curvature="0"
       id="path1848"
       style="fill:#000000;fill-opacity:1;fill-rule:nonzero;stroke:none"
       d="m 109.551,263.788 c 0.117,0 0.254,0 0.254,0.141 0,0.148 -0.137,0.148 -0.243,0.148 h -4.402 c -0.101,0 -0.242,0 -0.242,-0.148 0,-0.141 0.141,-0.141 0.242,-0.141 z m 0.011,-1.426 c 0.106,0 0.243,0 0.243,0.149 0,0.136 -0.137,0.136 -0.254,0.136 h -4.391 c -0.101,0 -0.242,0 -0.242,-0.136 0,-0.149 0.141,-0.149 0.242,-0.149 z" /><path
       inkscape:connector-curvature="0"
       id="path1850"
       style="fill:#000000;fill-opacity:1;fill-rule:nonzero;stroke:none"
       d="m 115.641,263.733 c 0,0.586 -0.036,1.176 -0.289,1.715 -0.336,0.715 -0.946,0.832 -1.247,0.832 -0.449,0 -0.976,-0.195 -1.289,-0.879 -0.23,-0.504 -0.265,-1.082 -0.265,-1.668 0,-0.554 0.023,-1.211 0.336,-1.777 0.308,-0.586 0.851,-0.738 1.207,-0.738 0.394,0 0.957,0.152 1.281,0.855 0.23,0.508 0.266,1.082 0.266,1.66 z m -1.547,-2.351 c -0.285,0 -0.723,0.183 -0.852,0.886 -0.082,0.438 -0.082,1.118 -0.082,1.555 0,0.473 0,0.957 0.059,1.348 0.14,0.879 0.691,0.945 0.875,0.945 0.242,0 0.726,-0.137 0.867,-0.863 0.078,-0.414 0.078,-0.969 0.078,-1.43 0,-0.551 0,-1.047 -0.078,-1.519 -0.117,-0.704 -0.531,-0.922 -0.867,-0.922 z" /><g
       transform="matrix(1,0,0,-1,0,295.10437)"
       id="g1974"><path
         inkscape:connector-curvature="0"
         id="path1976"
         style="fill:none;stroke:#262626;stroke-width:0.548787;stroke-linecap:square;stroke-linejoin:round;stroke-miterlimit:10;stroke-dasharray:0.548787, 1.097575;stroke-dashoffset:0;stroke-opacity:1"
         d="M 48.922,32.684 H 65.637" /></g><g
       transform="matrix(1,0,0,-1,0,295.10437)"
       id="g2078"><path
         inkscape:connector-curvature="0"
         id="path2080"
         style="fill:none;stroke:#000000;stroke-width:0.42519701;stroke-linecap:butt;stroke-linejoin:miter;stroke-miterlimit:10;stroke-dasharray:0.425197, 0.850394;stroke-dashoffset:0;stroke-opacity:1"
         d="M 310.762,44.534997 V 268.379"
         sodipodi:nodetypes="cc" /></g></g></svg>